<?xml version="1.0" encoding="UTF-8" standalone="no"?>
<svg
   xmlns:dc="http://purl.org/dc/elements/1.1/"
   xmlns:cc="http://creativecommons.org/ns#"
   xmlns:rdf="http://www.w3.org/1999/02/22-rdf-syntax-ns#"
   xmlns:svg="http://www.w3.org/2000/svg"
   xmlns="http://www.w3.org/2000/svg"
   xmlns:sodipodi="http://sodipodi.sourceforge.net/DTD/sodipodi-0.dtd"
   xmlns:inkscape="http://www.inkscape.org/namespaces/inkscape"
   width="736"
   height="865"
   viewBox="0 0 194.73333 228.86459"
   version="1.1"
   id="svg8"
   sodipodi:docname="exclamation.svg"
   inkscape:version="1.0.1 (c497b03c, 2020-09-10)">
  <style
     id="style833"></style>
  <defs
     id="defs2"><rect
   x="98.234019"
   y="9.3351041"
   width="15.941486"
   height="18.670208"
   id="rect1444" />

	
</defs>
  <sodipodi:namedview
     id="base"
     pagecolor="#ffffff"
     bordercolor="#666666"
     borderopacity="1.0"
     inkscape:pageopacity="0.0"
     inkscape:pageshadow="2"
     inkscape:zoom="1.2385652"
     inkscape:cx="298.19418"
     inkscape:cy="211.58378"
     inkscape:document-units="mm"
     inkscape:current-layer="layer1"
     inkscape:document-rotation="0"
     showgrid="false"
     inkscape:window-width="1252"
     inkscape:window-height="819"
     inkscape:window-x="0"
     inkscape:window-y="25"
     inkscape:window-maximized="0"
     units="px" />
  <metadata
     id="metadata5">
    <rdf:RDF>
      <cc:Work
         rdf:about="">
        <dc:format>image/svg+xml</dc:format>
        <dc:type
           rdf:resource="http://purl.org/dc/dcmitype/StillImage" />
        <dc:title></dc:title>
      </cc:Work>
    </rdf:RDF>
  </metadata>
  <g
     inkscape:label="Layer 1"
     inkscape:groupmode="layer"
     id="layer1">
    <path
       d="m 20.270689,52.712797 1.326358,3.276589 3.626375,0.10057 c 0.235521,0.02329 0.331331,0.356792 0.152537,0.532444 l -2.806362,2.764771 0.771847,4.058154 c 0.05361,0.261967 -0.196437,0.468033 -0.39876,0.328822 l -2.918238,-1.998548 -3.988758,3.069078 c -0.202869,0.138571 -0.452288,-0.06756 -0.398759,-0.328822 l 1.842345,-4.840333 -3.210578,-2.130978 c -0.178836,-0.175805 -0.08355,-0.509386 0.152536,-0.532482 l 4.030066,-0.734952 1.326379,-3.564351 c 0.09205,-0.248008 0.400903,-0.248008 0.492972,0 z"
       id="path1018"
       style="fill:#a1b2d6;fill-opacity:1;stroke-width:0.570395"
       sodipodi:nodetypes="cccccccccccccccsc" />
    <g
       id="g1036"
       transform="matrix(0.26458333,0,0,0.26458333,68.336264,113.50106)"
       style="fill:#a1b2d6;fill-opacity:1">
</g>
    <g
       id="g1038"
       transform="matrix(0.26458333,0,0,0.26458333,68.336264,113.50106)"
       style="fill:#a1b2d6;fill-opacity:1">
</g>
    <g
       id="g1040"
       transform="matrix(0.26458333,0,0,0.26458333,68.336264,113.50106)"
       style="fill:#a1b2d6;fill-opacity:1">
</g>
    <g
       id="g1042"
       transform="matrix(0.26458333,0,0,0.26458333,68.336264,113.50106)"
       style="fill:#a1b2d6;fill-opacity:1">
</g>
    <g
       id="g1044"
       transform="matrix(0.26458333,0,0,0.26458333,68.336264,113.50106)"
       style="fill:#a1b2d6;fill-opacity:1">
</g>
    <g
       id="g1046"
       transform="matrix(0.26458333,0,0,0.26458333,68.336264,113.50106)"
       style="fill:#a1b2d6;fill-opacity:1">
</g>
    <g
       id="g1048"
       transform="matrix(0.26458333,0,0,0.26458333,68.336264,113.50106)"
       style="fill:#a1b2d6;fill-opacity:1">
</g>
    <g
       id="g1050"
       transform="matrix(0.26458333,0,0,0.26458333,68.336264,113.50106)"
       style="fill:#a1b2d6;fill-opacity:1">
</g>
    <g
       id="g1052"
       transform="matrix(0.26458333,0,0,0.26458333,68.336264,113.50106)"
       style="fill:#a1b2d6;fill-opacity:1">
</g>
    <g
       id="g1054"
       transform="matrix(0.26458333,0,0,0.26458333,68.336264,113.50106)"
       style="fill:#a1b2d6;fill-opacity:1">
</g>
    <g
       id="g1056"
       transform="matrix(0.26458333,0,0,0.26458333,68.336264,113.50106)"
       style="fill:#a1b2d6;fill-opacity:1">
</g>
    <g
       id="g1058"
       transform="matrix(0.26458333,0,0,0.26458333,68.336264,113.50106)"
       style="fill:#a1b2d6;fill-opacity:1">
</g>
    <g
       id="g1060"
       transform="matrix(0.26458333,0,0,0.26458333,68.336264,113.50106)"
       style="fill:#a1b2d6;fill-opacity:1">
</g>
    <g
       id="g1062"
       transform="matrix(0.26458333,0,0,0.26458333,68.336264,113.50106)"
       style="fill:#a1b2d6;fill-opacity:1">
</g>
    <g
       id="g1064"
       transform="matrix(0.26458333,0,0,0.26458333,68.336264,113.50106)"
       style="fill:#a1b2d6;fill-opacity:1">
</g>
    <g
       id="g1207"
       transform="matrix(1.5994421,-0.579901,0.579901,1.5994421,-102.14239,-119.22756)"
       style="fill:#a1b2d6;fill-opacity:1" />
    <path
       d="M 48.979224,95.346957 93.142708,71.606356 c 0.418648,-0.170194 16.526542,-8.520163 16.605582,-8.35416 0.0834,0.168021 -16.059327,9.033169 -16.224989,9.120734 l -43.92589,23.95246 c -0.333593,0.171722 -0.646587,0.145268 -0.881577,-0.198013 -0.149456,-0.339803 -0.02929,-0.635172 0.26339,-0.78042 z"
       id="path1032-7"
       style="fill:#a1b2d6;fill-opacity:1;stroke-width:0.264583"
       sodipodi:nodetypes="ccccccc" />
    <path
       d="m 159.76392,80.552059 0.68846,1.6295 1.76259,0.15142 c 0.12225,0.0106 0.17199,0.1631 0.0791,0.24339 l -1.33695,1.15829 0.40064,1.72314 c 0.0278,0.11975 -0.10196,0.21394 -0.20698,0.15031 l -1.51476,-0.91352 -1.51476,0.91352 c -0.1053,0.0633 -0.23477,-0.0309 -0.20699,-0.15031 l 0.40064,-1.72314 -1.33723,-1.15857 c -0.0928,-0.0804 -0.0433,-0.23282 0.0792,-0.24338 l 1.76259,-0.15142 0.68848,-1.62923 c 0.0477,-0.11336 0.20809,-0.11336 0.25588,0 z"
       id="path1018-0"
       style="stroke-width:0.277835;fill:#a1b2d6;fill-opacity:1" />
    <path
       d="m 84.736443,11.792624 0.98107,2.322068 2.511716,0.215765 c 0.174167,0.01569 0.245089,0.232431 0.112799,0.346834 l -1.905183,1.650593 0.570915,2.455491 c 0.03957,0.17068 -0.145226,0.30487 -0.294951,0.214195 l -2.158553,-1.301771 -2.158553,1.301771 c -0.150108,0.09014 -0.334561,-0.04393 -0.294968,-0.214195 l 0.570915,-2.455491 -1.905566,-1.650977 c -0.132151,-0.114542 -0.06172,-0.331788 0.112799,-0.346834 l 2.511716,-0.215765 0.981087,-2.321684 c 0.06799,-0.161614 0.296537,-0.161614 0.364635,0 z"
       id="path1018-0-1"
       style="stroke-width:0.39592;fill:#a1b2d6;fill-opacity:1" />
    <path
       d="m 59.569449,17.722525 c 0.104242,-0.04277 0.203677,-0.01681 0.289242,0.01938 L 91.61416,30.47826 c 0.407634,0.195096 10.07558,4.226515 10.00597,4.396699 -0.0681,0.174774 -10.140604,-3.535689 -10.316861,-3.599307 L 59.474668,18.788121 c -0.08783,-0.03103 -0.202388,-0.09318 -0.268836,-0.198405 -0.06653,-0.105121 -0.09579,-0.330707 -0.07717,-0.539238 0.188631,-0.306254 0.201272,-0.235714 0.440787,-0.327953 z"
       id="path1032-7-1"
       style="fill:#a1b2d6;fill-opacity:1;stroke-width:0.264583"
       sodipodi:nodetypes="cccccczcc" />
    <path
       d="m 50.8499,110.88536 56.31982,-35.864951 c 0.40263,-0.205251 13.42005,-8.369826 13.51295,-8.211162 0.0974,0.160302 -12.91081,8.841151 -13.06841,8.942514 L 51.549219,111.80756 c -0.3687,0.13971 -0.613096,0.0961 -0.871175,-0.21591 -0.0538,-0.31267 -0.02652,-0.50229 0.171856,-0.70629 z"
       id="path1032-7-5"
       style="fill:#a1b2d6;fill-opacity:1;stroke-width:0.264583"
       sodipodi:nodetypes="ccccccc" />
    <path
       d="m 52.990511,49.661877 0.68846,1.6295 1.76259,0.15142 c 0.12225,0.0106 0.17199,0.1631 0.0791,0.24339 l -1.33695,1.15829 0.40064,1.72314 c 0.0278,0.11975 -0.10196,0.21394 -0.20698,0.15031 l -1.51476,-0.91352 -1.51476,0.91352 c -0.1053,0.0633 -0.23477,-0.0309 -0.20699,-0.15031 l 0.40064,-1.72314 -1.33723,-1.15857 c -0.0928,-0.0804 -0.0433,-0.23282 0.0792,-0.24338 l 1.76259,-0.15142 0.68848,-1.62923 c 0.0477,-0.11336 0.20809,-0.11336 0.25588,0 z"
       id="path1018-0-9"
       style="stroke-width:0.277836;fill:#a1b2d6;fill-opacity:1" />
    <path
       d="m 136.87573,198.79715 4.1535,-98.33643 c 0.0677,-0.44683 0.68055,-11.375617 0.86364,-11.358713 0.18702,0.0142 -8.3e-4,11.236223 -0.0102,11.423373 l -3.84997,98.24051 c -0.10122,0.38107 -0.27901,0.55432 -0.68295,0.58236 -0.28549,-0.1384 -0.42372,-0.27104 -0.47399,-0.5511 z"
       id="path1032-7-5-9"
       style="stroke-width:0.264583;fill:#a1b2d6;fill-opacity:1"
       sodipodi:nodetypes="cccccccc" />
    <path
       d="m 150.14322,180.98236 0.14987,-80.4529 c 0.0473,-0.44945 0.16357,-11.394817 0.34724,-11.38624 0.18747,0.0057 0.50912,11.22471 0.50823,11.41209 l 0.14899,80.3433 c -0.0838,0.38529 -0.25356,0.56643 -0.65581,0.61277 -0.29148,-0.1253 -0.43559,-0.25154 -0.49852,-0.52902 z"
       id="path1032-7-5-9-3"
       style="stroke-width:0.264583;fill:#a1b2d6;fill-opacity:1"
       sodipodi:nodetypes="ccccccc" />
    <path
       d="m 19.286784,158.6577 1.21886,2.88489 2.42661,-0.12906 c 0.21643,0.0188 0.30449,0.28875 0.14004,0.4309 l -1.67305,1.51094 1.63452,4.29594 c 0.0492,0.21201 -0.18051,0.37876 -0.36644,0.26611 l -3.60698,-1.92572 -3.838279,2.61964 c -0.186425,0.11206 -0.415641,-0.0547 -0.366459,-0.26612 l 1.865825,-4.05299 -2.367455,-2.05116 c -0.164295,-0.14234 -0.07666,-0.41218 0.140217,-0.43088 l 3.120521,-0.26808 1.2189,-2.88441 c 0.0844,-0.2007 0.3684,-0.2007 0.45301,0 z"
       id="path1018-0-3"
       style="stroke-width:0.491886;fill:#a1b2d6;fill-opacity:1"
       sodipodi:nodetypes="cccccccccccsccccc" />
    <path
       d="m 54.418321,142.91975 1.180871,2.79498 3.023259,0.25972 c 0.209688,0.0182 0.295004,0.27976 0.135675,0.41747 l -2.293185,1.98674 0.687192,2.9556 c 0.04768,0.2054 -0.174885,0.36695 -0.355019,0.25781 l -2.598172,-1.5669 -2.598172,1.5669 c -0.180614,0.10858 -0.402686,-0.053 -0.355036,-0.25781 l 0.687192,-2.9556 -2.293666,-1.98722 c -0.159174,-0.1379 -0.07427,-0.39934 0.135847,-0.41745 l 3.023259,-0.25972 1.180906,-2.79452 c 0.08182,-0.19444 0.356923,-0.19444 0.438894,0 z"
       id="path1018-0-5"
       style="stroke-width:0.476554;fill:#a1b2d6;fill-opacity:1" />
    <path
       d="m 165.85458,201.67427 1.43543,4.52986 3.8933,-0.36298 c -1.30095,1.59683 -1.81347,2.37112 -2.84092,3.60118 l 1.56082,5.62664 c 0.058,0.24968 0.0325,0.37947 -0.18644,0.2468 l -4.12886,-3.872 -4.24773,4.11465 c -0.21954,0.13199 -0.28974,-0.0645 -0.23182,-0.31338 l 1.72504,-5.80271 -2.78811,-2.41561 c -0.19348,-0.16763 -0.18292,-0.31043 0.0725,-0.33244 l 3.76763,-0.24895 1.59084,-4.81544 c 0.0994,-0.23635 0.2785,-0.19195 0.37814,0.0444 z"
       id="path1018-0-5-6"
       style="stroke-width:0.579285;fill:#a1b2d6;fill-opacity:1"
       sodipodi:nodetypes="cccccccccccccccc" />
    <path
       d="m 20.936426,209.85669 1.180871,3.32414 3.023259,0.25972 c 0.209688,0.0182 0.295004,0.27976 0.135675,0.41747 l -2.293185,1.98674 0.687192,2.9556 c 0.04768,0.2054 -0.174885,0.36695 -0.355019,0.25781 l -2.598172,-1.5669 -2.598172,1.03774 c -0.180614,0.10858 -0.402686,-0.053 -0.355036,-0.25781 l 0.687192,-2.9556 -2.293666,-1.98722 c -0.159174,-0.1379 -0.07427,-0.39934 0.135847,-0.41745 l 3.103502,0.0613 1.100663,-3.11549 c 0.08182,-0.19444 0.356923,-0.19444 0.438894,0 z"
       id="path1018-0-5-8"
       style="stroke-width:0.476554;fill:#a1b2d6;fill-opacity:1"
       sodipodi:nodetypes="ccccccccccccccccc" />
    <path
       d="m 118.54734,103.07852 1.18087,3.17858 3.02326,-0.12388 c 0.20969,0.0182 0.29501,0.27976 0.13568,0.41747 l -2.29319,1.98674 0.6872,3.48477 c 0.0477,0.2054 -0.17489,0.36695 -0.35502,0.25781 l -2.59818,-2.48424 -2.59817,2.48424 c -0.18061,0.10858 -0.40268,-0.053 -0.35503,-0.25781 l 0.68719,-3.48477 -2.29367,-1.98722 c -0.15917,-0.1379 -0.0743,-0.39934 0.13585,-0.41745 l 3.02326,0.12388 1.1809,-3.17812 c 0.0818,-0.19444 0.35693,-0.19444 0.4389,0 z"
       id="path1018-0-5-9"
       style="stroke-width:0.476554;fill:#a1b2d6;fill-opacity:1"
       sodipodi:nodetypes="ccccccccccccccccc" />
    <path
       d="m 51.556149,183.4173 1.55475,3.67991 3.980464,0.34196 c 0.276066,0.024 0.3884,0.36832 0.178624,0.54964 l -3.019231,2.61576 0.904763,3.89139 c 0.06281,0.27043 -0.230262,0.48313 -0.467423,0.33943 l -3.420785,-2.063 -3.420784,2.063 c -0.237807,0.14296 -0.530187,-0.0698 -0.467451,-0.33943 l 0.904765,-3.89139 -3.019864,-2.61639 c -0.209577,-0.18157 -0.0978,-0.52578 0.17885,-0.54963 l 3.980463,-0.34195 1.554801,-3.6793 c 0.107699,-0.256 0.469926,-0.256 0.577848,0 z"
       id="path1018-0-5-4"
       style="stroke-width:0.627437;fill:#a1b2d6;fill-opacity:1" />
    <path
       d="m 34.691862,11.238574 0.747724,1.769773 1.914319,0.164454 c 0.132774,0.01152 0.186796,0.177144 0.08591,0.264341 l -1.452038,1.257998 0.435128,1.871478 c 0.03019,0.130058 -0.110737,0.232351 -0.224797,0.163244 l -1.645155,-0.992156 -1.645155,0.992156 c -0.114364,0.06875 -0.25498,-0.03356 -0.224808,-0.163244 l 0.435128,-1.871478 -1.452343,-1.258302 c -0.100788,-0.08732 -0.04703,-0.252861 0.08602,-0.264328 l 1.914319,-0.164454 0.747747,-1.769482 c 0.05181,-0.123119 0.226002,-0.123119 0.277906,0 z"
       id="path1018-0-5-90"
       style="stroke-width:0.301753;fill:#a1b2d6;fill-opacity:1" />
    <path
       d="m 22.410336,117.78142 0.707361,1.67425 1.810984,0.15557 c 0.125607,0.0109 0.176713,0.16758 0.08127,0.25007 l -1.373657,1.1901 0.41164,1.77045 c 0.02856,0.12304 -0.104759,0.21981 -0.212663,0.15443 l -1.556349,-0.9386 -1.55635,0.9386 c -0.10819,0.065 -0.241215,-0.0318 -0.212672,-0.15443 l 0.41164,-1.77045 -1.373946,-1.19038 c -0.09535,-0.0826 -0.04449,-0.23922 0.08138,-0.25006 l 1.810984,-0.15558 0.707383,-1.67397 c 0.04901,-0.11647 0.213803,-0.11647 0.262905,0 z"
       id="path1018-0-5-7"
       style="stroke-width:0.285464;fill:#a1b2d6;fill-opacity:1" />
    <path
       d="m 96.425187,207.74585 1.18087,3.17858 3.023263,-0.12388 c 0.20969,0.0182 0.29501,0.27976 0.13568,0.41747 l -2.293193,1.98674 0.6872,3.48477 c 0.0477,0.2054 -0.17489,0.36695 -0.35502,0.25781 l -2.59818,-2.48424 -2.59817,2.48424 c -0.18061,0.10858 -0.40268,-0.053 -0.35503,-0.25781 l 0.68719,-3.48477 -2.29367,-1.98722 c -0.15917,-0.1379 -0.0743,-0.39934 0.13585,-0.41745 l 3.02326,0.12388 1.1809,-3.17812 c 0.0818,-0.19444 0.35693,-0.19444 0.4389,0 z"
       id="path1018-0-5-9-1"
       style="stroke-width:0.476554;fill:#a1b2d6;fill-opacity:1"
       sodipodi:nodetypes="ccccccccccccccccc"
       inkscape:transform-center-x="11.005065"
       inkscape:transform-center-y="-36.920218" />
    <path
       d="m 71.696988,36.521121 c 0.08756,-0.04748 0.177382,-0.03409 0.255991,-0.01053 l 15.119248,4.127198 c 0.37668,0.132774 12.581536,3.587425 12.536516,3.743568 -0.0433,0.160017 -12.573166,-2.974237 -12.734076,-3.013421 L 71.714754,37.466347 c -0.08014,-0.01896 -0.186672,-0.06269 -0.255039,-0.148851 -0.06842,-0.08606 -0.115513,-0.281507 -0.118948,-0.466507 0.136713,-0.286993 0.154496,-0.226207 0.356219,-0.329973 z"
       id="path1032-7-1-4"
       style="fill:#a1b2d6;fill-opacity:1;stroke-width:0.233837"
       sodipodi:nodetypes="cccccczccc" />
    <g
       aria-label="!"
       id="text1442"
       style="font-weight:bold;font-size:10.58329999999999949px;line-height:1.25;font-family:sans-serif;-inkscape-font-specification:'sans-serif Bold';white-space:pre;shape-inside:url(#rect1444);fill:#a1b2d6;fill-opacity:1"
       transform="matrix(0.84142677,-0.20475008,0.20475008,0.84142677,18.749847,21.828852)">
      <path
         d="m 102.05245,24.392918 h -0.63504 q 0,-2.393645 -0.31753,-4.909415 -0.12206,-1.025847 -0.58621,-3.66374 -0.31751,-1.831871 -0.31751,-2.589044 0,-0.976998 0.39079,-1.514347 0.41523,-0.561774 1.14797,-0.561774 1.53878,0 1.53878,2.100546 -0.48849,3.053117 -0.85487,5.764286 -0.36638,2.686744 -0.36638,5.373488 z m -0.31753,2.637893 q 0.63506,0 1.05029,0.464074 0.43964,0.439648 0.43964,1.074698 0,0.610623 -0.43964,1.050272 -0.41523,0.415224 -1.05029,0.415224 -0.61063,0 -1.02583,-0.415224 -0.41523,-0.415224 -0.41523,-1.050272 0,-0.63505 0.39079,-1.074698 0.41523,-0.464074 1.05027,-0.464074 z"
         style="font-style:normal;font-variant:normal;font-weight:bold;font-stretch:normal;font-family:AppleMyungjo;-inkscape-font-specification:'AppleMyungjo Bold';fill:#a1b2d6;fill-opacity:1;stroke-width:2.36557"
         id="path1448" />
    </g>
  </g>
</svg>
