<?xml version="1.0" encoding="UTF-8" standalone="no"?>
<svg
   xmlns:dc="http://purl.org/dc/elements/1.1/"
   xmlns:cc="http://creativecommons.org/ns#"
   xmlns:rdf="http://www.w3.org/1999/02/22-rdf-syntax-ns#"
   xmlns:svg="http://www.w3.org/2000/svg"
   xmlns="http://www.w3.org/2000/svg"
   xmlns:sodipodi="http://sodipodi.sourceforge.net/DTD/sodipodi-0.dtd"
   xmlns:inkscape="http://www.inkscape.org/namespaces/inkscape"
   width="258"
   height="156"
   viewBox="0 0 68.262498 41.275001"
   version="1.1"
   id="svg8"
   sodipodi:docname="flagLogo.svg"
   inkscape:version="1.0.1 (c497b03c, 2020-09-10)">
  <sodipodi:namedview
     pagecolor="#ffffff"
     bordercolor="#666666"
     borderopacity="1"
     objecttolerance="10"
     gridtolerance="10"
     guidetolerance="10"
     inkscape:pageopacity="0"
     inkscape:pageshadow="2"
     inkscape:window-width="1440"
     inkscape:window-height="819"
     id="namedview843"
     showgrid="false"
     inkscape:zoom="2.4651163"
     inkscape:cx="125.71213"
     inkscape:cy="95.443396"
     inkscape:window-x="0"
     inkscape:window-y="25"
     inkscape:window-maximized="1"
     inkscape:current-layer="svg8"
     inkscape:document-rotation="0" />
  <style
     id="style833"></style>
  <defs
     id="defs2">
    <rect
       x="62.389061"
       y="85.093941"
       width="43.830288"
       height="27.245855"
       id="rect971" />
  </defs>
  <metadata
     id="metadata5">
    <rdf:RDF>
      <cc:Work
         rdf:about="">
        <dc:format>image/svg+xml</dc:format>
        <dc:type
           rdf:resource="http://purl.org/dc/dcmitype/StillImage" />
        <dc:title />
      </cc:Work>
    </rdf:RDF>
  </metadata>
  <g
     id="layer1"
     transform="translate(-70.643749,-126.47083)"
     style="fill:#221711;fill-opacity:1">
    <path
       id="path846"
       style="fill:#e84426;fill-opacity:1;stroke-width:0.999999"
       transform="scale(0.26458333)"
       d="m 404,479 v 9 9 h 60 60 v -9 -9 h -60 z m 0,34 v 9 9 h 60 60 v -9 -9 h -60 z m 0,34 v 9 9 h 60 60 v -9 -9 h -60 z m -136,34 v 9 9 h 128 128 v -9 -9 H 396 Z m 0,34 v 9 9 h 128 128 v -9 -9 H 396 Z" />
    <path
       style="fill:#151fe9;fill-opacity:1;stroke-width:0.999999"
       d="m 268,479 v 43 43 h 60 60 v -43 -43 h -60 z"
       transform="scale(0.26458333)"
       id="path967" />
    <g
       aria-label="VC"
       transform="matrix(1.5737401,0,0,1.5737401,-24.020021,-4.6941126)"
       id="text969"
       style="font-weight:bold;font-size:10.58329999999999949px;line-height:1.25;font-family:'GT Super Display Trial';-inkscape-font-specification:'GT Super Display Trial Bold';white-space:pre;shape-inside:url(#rect971);fill:#221711;fill-opacity:1" />
  </g>
</svg>
