<?xml version="1.0" encoding="UTF-8" standalone="no"?>
<svg
   xmlns:dc="http://purl.org/dc/elements/1.1/"
   xmlns:cc="http://creativecommons.org/ns#"
   xmlns:rdf="http://www.w3.org/1999/02/22-rdf-syntax-ns#"
   xmlns:svg="http://www.w3.org/2000/svg"
   xmlns="http://www.w3.org/2000/svg"
   xmlns:sodipodi="http://sodipodi.sourceforge.net/DTD/sodipodi-0.dtd"
   xmlns:inkscape="http://www.inkscape.org/namespaces/inkscape"
   width="258"
   height="156"
   viewBox="0 0 68.262498 41.275001"
   version="1.1"
   id="svg8"
   sodipodi:docname="flagLogo.svg"
   inkscape:version="1.0.1 (c497b03c, 2020-09-10)">
  <sodipodi:namedview
     pagecolor="#ffffff"
     bordercolor="#666666"
     borderopacity="1"
     objecttolerance="10"
     gridtolerance="10"
     guidetolerance="10"
     inkscape:pageopacity="0"
     inkscape:pageshadow="2"
     inkscape:window-width="1440"
     inkscape:window-height="819"
     id="namedview843"
     showgrid="false"
     inkscape:zoom="2.4651163"
     inkscape:cx="129"
     inkscape:cy="78"
     inkscape:window-x="0"
     inkscape:window-y="25"
     inkscape:window-maximized="1"
     inkscape:current-layer="svg8" />
  <style
     id="style833"></style>
  <defs
     id="defs2">
    <rect
       x="62.389061"
       y="85.093941"
       width="43.830288"
       height="27.245855"
       id="rect971" />
  </defs>
  <metadata
     id="metadata5">
    <rdf:RDF>
      <cc:Work
         rdf:about="">
        <dc:format>image/svg+xml</dc:format>
        <dc:type
           rdf:resource="http://purl.org/dc/dcmitype/StillImage" />
        <dc:title />
      </cc:Work>
    </rdf:RDF>
  </metadata>
  <g
     id="layer1"
     transform="translate(-70.643749,-126.47083)"
     style="fill:#221711;fill-opacity:1">
    <path
       id="path967"
       style="fill:#221711;stroke-width:0.999999;fill-opacity:1"
       d="m 268,479 v 43 43 h 60 60 v -43 -43 h -60 z m 136,0 v 9 9 h 60 60 v -9 -9 h -60 z m -49.06836,20.16797 c 1.92619,0 3.65846,0.1125 5.19531,0.33789 1.55735,0.20493 2.99129,0.48174 4.30274,0.83008 1.37292,0.38935 2.61417,0.82854 3.7207,1.32031 1.12702,0.4713 2.10907,0.91244 2.94922,1.32227 v 11.0957 h -1.35156 c -0.57376,-0.49179 -1.30052,-1.07574 -2.18164,-1.75195 -0.86064,-0.67622 -1.84464,-1.34233 -2.95118,-1.99805 -1.12702,-0.65572 -2.34675,-1.20739 -3.6582,-1.6582 -1.31144,-0.45081 -2.71507,-0.67774 -4.21094,-0.67774 -1.6598,0 -3.2385,0.26801 -4.73437,0.80078 -1.49587,0.51229 -2.87797,1.3711 -4.14844,2.58008 -1.20899,1.16801 -2.19299,2.71639 -2.95117,4.64258 -0.73769,1.92619 -1.10547,4.26197 -1.10547,7.00781 0,2.86879 0.3981,5.26522 1.19727,7.19141 0.81965,1.92618 1.84474,3.44425 3.07421,4.55078 1.24998,1.12702 2.64284,1.93594 4.17969,2.42773 1.53685,0.4713 3.05296,0.70703 4.54883,0.70703 1.4344,0 2.84878,-0.21616 4.24219,-0.64648 1.4139,-0.43032 2.7158,-1.01427 3.90429,-1.75195 1.00408,-0.59426 1.93624,-1.22809 2.79688,-1.9043 0.86064,-0.67622 1.56783,-1.26016 2.12109,-1.75195 h 1.22852 v 10.9414 c -1.14752,0.51229 -2.244,0.99451 -3.28906,1.44532 -1.04506,0.4508 -2.1396,0.8401 -3.28711,1.16796 -1.49587,0.43032 -2.89949,0.75702 -4.21094,0.98243 -1.31145,0.22539 -3.11512,0.33789 -5.41016,0.33789 -3.40156,0 -6.54822,-0.50179 -9.4375,-1.50586 -2.86879,-1.00408 -5.33662,-2.49867 -7.40625,-4.48633 -2.06962,-1.98766 -3.67865,-4.46821 -4.82617,-7.43945 -1.12702,-2.97124 -1.6914,-6.40352 -1.6914,-10.29688 0,-3.62697 0.54286,-6.91643 1.6289,-9.86719 1.08604,-2.95075 2.66475,-5.48118 4.73438,-7.59179 1.98766,-2.02865 4.44669,-3.59465 7.37695,-4.70118 2.95075,-1.10653 6.16686,-1.66015 9.65039,-1.66015 z m -73.89062,0.89062 h 12.38671 l 11.06446,32.15039 11.0664,-32.15039 h 12.08008 l -16.6914,45.76758 h -13.2168 z M 404,513 v 9 9 h 60 60 v -9 -9 h -60 z m 0,34 v 9 9 h 60 60 v -9 -9 h -60 z m -136,34 v 9 9 h 128 128 v -9 -9 H 396 Z m 0,34 v 9 9 h 128 128 v -9 -9 H 396 Z"
       transform="scale(0.26458333)" />
    <g
       aria-label="VC"
       transform="matrix(1.5737401,0,0,1.5737401,-24.020021,-4.6941126)"
       id="text969"
       style="font-weight:bold;font-size:10.58329999999999949px;line-height:1.25;font-family:'GT Super Display Trial';-inkscape-font-specification:'GT Super Display Trial Bold';white-space:pre;shape-inside:url(#rect971);fill:#221711;fill-opacity:1" />
  </g>
</svg>
