<?xml version="1.0" encoding="UTF-8" standalone="no"?>
<svg
   xmlns:dc="http://purl.org/dc/elements/1.1/"
   xmlns:cc="http://creativecommons.org/ns#"
   xmlns:rdf="http://www.w3.org/1999/02/22-rdf-syntax-ns#"
   xmlns:svg="http://www.w3.org/2000/svg"
   xmlns="http://www.w3.org/2000/svg"
   width="211.49622"
   height="149.89011"
   viewBox="0 0 24.784714 17.565247"
   version="1.1"
   id="svg4235">
  <metadata
     id="metadata4294">
    <rdf:RDF>
      <cc:Work
         rdf:about="">
        <dc:format>image/svg+xml</dc:format>
        <dc:type
           rdf:resource="http://purl.org/dc/dcmitype/StillImage" />
        <dc:title>020 - Racing Flag</dc:title>
      </cc:Work>
    </rdf:RDF>
  </metadata>
  <!-- Generator: Sketch 51.3 (57544) - http://www.bohemiancoding.com/sketch -->
  <title
     id="title4237">020 - Racing Flag</title>
  <desc
     id="desc4239">Created with Sketch.</desc>
  <defs
     id="defs4241" />
  <g
     transform="translate(-5.8370557,-13.749411)"
     style="fill:none;fill-rule:nonzero;stroke:none;stroke-width:1"
     id="020---Racing-Flag" />
  <flowRoot
     transform="translate(-5.8370557,-13.749411)"
     xml:space="preserve"
     id="flowRoot4336"
     style="font-style:normal;font-weight:normal;font-size:12.5px;line-height:125%;font-family:sans-serif;letter-spacing:0px;word-spacing:0px;fill:#000000;fill-opacity:1;stroke:none;stroke-width:1px;stroke-linecap:butt;stroke-linejoin:miter;stroke-opacity:1"><flowRegion
       id="flowRegion4338"><rect
         id="rect4340"
         width="375.89926"
         height="214.00755"
         x="113.10243"
         y="195.9785" /></flowRegion><flowPara
       id="flowPara4342" /></flowRoot>  <path
     style="fill:#ccdbf2;fill-opacity:1;fill-rule:nonzero;stroke:none;stroke-width:1"
     id="path4288"
     d="m 3.4959567,16.760901 0.00409,0 c 1.1824687,0.327629 2.4174978,0.421418 3.6358823,0.27611 l 0.00357,0 c 1.2931957,-0.149296 2.576456,-0.374761 3.8430928,-0.67522 3.464908,-0.753307 6.736896,-1.464765 9.294366,0.932448 0.18372,0.174095 0.427218,0.271092 0.680323,0.271007 0.482043,7.15e-4 0.899765,-0.333798 1.004411,-0.804345 L 24.759541,4.2828426 C 24.832592,3.9599406 24.7445,3.6216643 24.523239,3.3754031 22.511357,1.1384474 20.100365,0.7781255 17.595464,1.0276969 l -0.01276,0 C 16.320427,1.1792448 15.067694,1.4017789 13.830453,1.6942413 10.171093,2.49042 6.7112889,3.2360719 4.0895136,0.29123161 c 0,0 -0.5333978,-0.72381723 -1.0380945,0.11075049 L 0.03076168,13.794883 c -0.14618147,0.613482 0.24893086,0.844836 0.75563576,1.383868 0.76594686,0.730291 1.69236666,1.270937 2.70496606,1.578577 z" />
  <g
     id="flowRoot4348"
     style="font-style:normal;font-weight:normal;font-size:12.5px;line-height:125%;font-family:sans-serif;letter-spacing:0px;word-spacing:0px;fill:#2b3b80;fill-opacity:1;stroke:none;stroke-width:1px;stroke-linecap:butt;stroke-linejoin:miter;stroke-opacity:1"
     transform="matrix(0.05980909,0,-0.00616449,0.05980909,-6.0131368,-13.542617)">
    <path
       id="path4749"
       style="font-style:italic;font-variant:normal;font-weight:bold;font-stretch:normal;font-size:200px;font-family:'Helvetica Neue';-inkscape-font-specification:'Helvetica Neue Bold Italic';fill:#2b3b80;fill-opacity:1"
       d="m 454.94219,345.65411 31.4,0 q 0.2,-13 -4,-22.8 -4.2,-10 -12,-16.6 -7.6,-6.8 -18.2,-10.2 -10.6,-3.4 -23,-3.4 -18,0 -32.6,7 -14.4,7 -24.6,19 -10,11.8 -15.4,27.4 -5.4,15.6 -5.4,33 0,30.6 16.4,46.8 16.6,16.2 47,16.2 11.6,0 21.4,-3 10,-2.8 18,-9.2 8.2,-6.6 14.6,-17 6.6,-10.4 11.4,-25.4 l -31.4,0 q -1,5.6 -4,10.8 -3,5.2 -7.4,9.2 -4.4,3.8 -10.2,6.2 -5.6,2.2 -12,2.2 -8.6,0 -14.8,-3 -6,-3 -10,-8 -3.8,-5.2 -5.8,-11.8 -1.8,-6.6 -1.8,-14 0,-10.2 2.8,-20.8 2.8,-10.8 8.4,-19.4 5.8,-8.8 14.6,-14.2 9,-5.6 21,-5.6 11.4,0 18.4,6.8 7.2,6.6 7.2,19.8 z" />
  </g>
  <g
     id="text4344"
     style="font-style:normal;font-weight:normal;font-size:11.97219563px;line-height:125%;font-family:sans-serif;letter-spacing:0px;word-spacing:0px;fill:#2b3b80;fill-opacity:1;stroke:none;stroke-width:1px;stroke-linecap:butt;stroke-linejoin:miter;stroke-opacity:1"
     transform="matrix(1,0,-0.10306937,1,0,0)">
    <path
       id="path4746"
       style="font-style:italic;font-variant:normal;font-weight:bold;font-stretch:normal;font-family:'Helvetica Neue';-inkscape-font-specification:'Helvetica Neue Bold Italic';fill:#2b3b80;fill-opacity:1"
       d="m 8.3863259,13.936536 4.5614061,-8.5481478 -1.951467,0 -3.2444655,6.4170968 -0.023944,0 -0.5626932,-6.4170968 -1.8796347,0 0.9817201,8.5481478 2.1190786,0 z" />
  </g>
</svg>
