<?xml version="1.0" encoding="UTF-8" standalone="no"?>
<!-- Created with Inkscape (http://www.inkscape.org/) -->

<svg
   xmlns:dc="http://purl.org/dc/elements/1.1/"
   xmlns:cc="http://creativecommons.org/ns#"
   xmlns:rdf="http://www.w3.org/1999/02/22-rdf-syntax-ns#"
   xmlns:svg="http://www.w3.org/2000/svg"
   xmlns="http://www.w3.org/2000/svg"
   xmlns:sodipodi="http://sodipodi.sourceforge.net/DTD/sodipodi-0.dtd"
   xmlns:inkscape="http://www.inkscape.org/namespaces/inkscape"
   width="650.70081"
   height="500.51968"
   viewBox="0 0 172.16458 132.42917"
   version="1.1"
   id="svg4699"
   sodipodi:docname="paperAndPencils.svg"
   inkscape:version="0.92.2 5c3e80d, 2017-08-06">
  <defs
     id="defs4693" />
  <sodipodi:namedview
     id="base"
     pagecolor="#ffffff"
     bordercolor="#666666"
     borderopacity="1.0"
     inkscape:pageopacity="0.0"
     inkscape:pageshadow="2"
     inkscape:zoom="0.98994949"
     inkscape:cx="288.90828"
     inkscape:cy="480.93537"
     inkscape:document-units="mm"
     inkscape:current-layer="layer1"
     showgrid="false"
     units="px"
     inkscape:window-width="1440"
     inkscape:window-height="855"
     inkscape:window-x="0"
     inkscape:window-y="1"
     inkscape:window-maximized="1" />
  <metadata
     id="metadata4696">
    <rdf:RDF>
      <cc:Work
         rdf:about="">
        <dc:format>image/svg+xml</dc:format>
        <dc:type
           rdf:resource="http://purl.org/dc/dcmitype/StillImage" />
        <dc:title />
      </cc:Work>
    </rdf:RDF>
  </metadata>
  <g
     inkscape:label="Layer 1"
     inkscape:groupmode="layer"
     id="layer1"
     transform="translate(0,-164.57082)">
    <path
       d="m 127.01009,196.72979 c 0.002,0.0105 0.004,0.0212 0.005,0.0321 0.002,0.009 0.004,0.0161 0.006,0.0241 0.002,0.009 0.004,0.0177 0.007,0.0255 0.005,0.0172 0.0113,0.0331 0.0179,0.0493 l 12.50197,29.02952 c 0.24154,0.56152 0.89409,0.8225 1.45573,0.58147 l 5.25708,-2.25621 c 0.56181,-0.24068 0.82317,-0.89436 0.58141,-1.45571 L 134.341,193.73035 c -0.007,-0.0163 -0.0142,-0.0322 -0.0226,-0.0474 -0.004,-0.008 -0.008,-0.016 -0.0146,-0.0225 -0.004,-0.007 -0.01,-0.0134 -0.0137,-0.0208 -0.006,-0.009 -0.0128,-0.0171 -0.0199,-0.0258 -0.004,-0.005 -0.008,-0.0102 -0.0109,-0.0157 -0.007,-0.009 -0.015,-0.017 -0.0227,-0.0248 -0.003,-0.004 -0.006,-0.008 -0.0103,-0.0104 l -0.006,-0.007 c -4.8e-4,-3.6e-4 -6.2e-4,-4.8e-4 -8.7e-4,-6.6e-4 l -5.68472,-4.55288 c -0.15511,-0.15502 -0.38898,-0.1999 -0.5905,-0.1134 -0.20171,0.0862 -0.33009,0.28699 -0.32462,0.50613 l -0.61622,7.257 c -6e-5,6.3e-4 -1.6e-4,0.001 8.5e-4,0.002 l 10e-4,0.008 c 6.5e-4,0.005 0.001,0.0107 0.001,0.0144 -4.5e-4,0.0117 9e-4,0.0224 0.003,0.0336 6.5e-4,0.005 0.001,0.0127 0.002,0.019 z m 13.52454,28.7377 -11.88423,-27.59019 c -0.0803,-0.1858 0.40665,-0.0502 0.60359,-0.13477 0.19708,-0.0842 0.36916,-0.20276 0.51352,-0.34467 l 11.89834,27.62304 -1.08435,0.46517 c -0.0182,0.008 -0.0393,-2.6e-4 -0.047,-0.0188 z m -12.20322,-31.37552 3.11776,-1.3381 1.93403,1.4815 c 0.0774,0.28716 -0.0655,0.59579 -0.34651,0.7164 -0.30778,0.13268 -0.66609,-0.0109 -0.79828,-0.31885 -0.11699,-0.27209 -0.43219,-0.39814 -0.70437,-0.28131 -0.2721,0.11699 -0.39813,0.43218 -0.28132,0.70437 0.13267,0.30776 -0.0109,0.66609 -0.31885,0.79829 -0.30778,0.13268 -0.6661,-0.0108 -0.79829,-0.31884 -0.11699,-0.27209 -0.43219,-0.39813 -0.70437,-0.28132 -0.27209,0.11699 -0.39813,0.43219 -0.28132,0.70437 0.13267,0.30777 -0.0109,0.6661 -0.31884,0.79829 -0.28092,0.12092 -0.60325,0.0116 -0.75799,-0.24236 z m 3.53894,2.40338 11.89833,27.62306 -1.11709,0.47951 -11.89834,-27.62306 c 0.2023,-0.007 0.40665,-0.0502 0.6036,-0.13479 0.19707,-0.0842 0.36915,-0.20275 0.51352,-0.34466 z m 13.9683,26.73466 -1.08436,0.46517 -11.89833,-27.62308 c -0.0803,-0.18582 0.40666,-0.0502 0.60359,-0.13477 0.19709,-0.0842 0.36917,-0.20276 0.51353,-0.34467 l 11.88423,27.5902 c 0.009,0.0178 -3.1e-4,0.0392 -0.0188,0.047 z"
       id="path946"
       inkscape:connector-curvature="0"
       sodipodi:nodetypes="scccssssssccccccccccscccccccscsccsscccsssssssssccccccscsccccsscccc"
       style="fill:#577fd6;fill-opacity:1;stroke:none;stroke-width:0.07150977;stroke-opacity:1" />
    <g
       id="g6266"
       transform="matrix(1.0518666,0,0,1.0518666,5.6795853,8.6203552)">
      <path
         style="fill:#577fd6;fill-opacity:1;stroke:none;stroke-width:0.23448949;stroke-opacity:1"
         d="m 342.70508,-159.0332 -435.572268,51.77343 c -1.219748,0.14514 -2.090555,1.25102 -1.945312,2.47071 l -0.002,0.002 32.664062,274.31055 c 0.145248,1.21969 1.252924,2.09029 2.472657,1.94531 l 355.953121,-42.31445 26.73438,-3.17774 -0.42383,-4.42773 -26.58789,3.16015 -353.996094,42.08204 -32.136719,-269.89454 431.156243,-51.24804 2.36719,19.87304 c 0.14514,1.21871 1.62165,2.83358 2.46875,1.94532 l 19.875,-2.36719 29.50781,247.8125 -45.69335,5.43164 0.42382,4.42773 48.00391,-5.70703 c 1.21882,-0.14513 2.09056,-1.25101 1.94531,-2.4707 l -30.03515,-252.22656 c -0.008,-0.0491 -0.0339,-0.0887 -0.043,-0.13672 -0.034,-0.19238 -0.0943,-0.37939 -0.17969,-0.55469 -0.034,-0.0673 -0.0587,-0.13345 -0.0977,-0.19922 -0.13568,-0.22753 -0.31143,-0.42847 -0.51953,-0.59375 l -24.71094,-19.45312 c -0.20976,-0.16403 -0.44654,-0.2858 -0.70117,-0.36328 -0.0695,-0.0189 -0.1395,-0.0379 -0.21093,-0.0488 -0.19238,-0.042 -0.38888,-0.0578 -0.58594,-0.0469 -0.0378,0.0113 -0.0844,-0.008 -0.13086,-0.004 z m 3.10547,7.27734 16.27343,12.8125 -14.54296,1.73047 z"
         transform="matrix(0.26458333,0,0,0.26458333,7.4083337,151.34165)"
         id="path5320"
         inkscape:connector-curvature="0" />
      <path
         style="fill:#577fd6;fill-opacity:1;stroke:none;stroke-width:0.07993423;stroke-opacity:1"
         inkscape:connector-curvature="0"
         id="path5340"
         d="m 105.57118,170.73191 2.1405,-0.25464 0.25191,2.1175 -2.14049,0.25464 z m 0,0" />
      <path
         style="fill:#577fd6;fill-opacity:1;stroke:none;stroke-width:0.07993423;stroke-opacity:1"
         inkscape:connector-curvature="0"
         id="path5340-2"
         d="m 105.05195,166.70305 2.14051,-0.25464 0.25191,2.1175 -2.14051,0.25463 z m 0,0" />
      <path
         style="fill:#577fd6;fill-opacity:1;stroke:none;stroke-width:0.07993423;stroke-opacity:1"
         inkscape:connector-curvature="0"
         id="path5340-3"
         d="m 104.53903,162.46943 2.14051,-0.25464 0.25191,2.11749 -2.14051,0.25464 z m 0,0" />
      <path
         style="fill:#577fd6;fill-opacity:1;stroke:none;stroke-width:0.07993423;stroke-opacity:1"
         inkscape:connector-curvature="0"
         id="path5340-2-9"
         d="m 104.01982,158.44056 2.1405,-0.25464 0.25191,2.11749 -2.1405,0.25463 z m 0,0" />
      <path
         style="fill:#577fd6;fill-opacity:1;stroke:none;stroke-width:0.07993423;stroke-opacity:1"
         inkscape:connector-curvature="0"
         id="path5340-0"
         d="m 103.5654,154.16432 2.1405,-0.25464 0.25192,2.11749 -2.14051,0.25464 z m 0,0" />
      <path
         style="fill:#577fd6;fill-opacity:1;stroke:none;stroke-width:0.07993423;stroke-opacity:1"
         inkscape:connector-curvature="0"
         id="path5340-2-5"
         d="m 103.04619,150.13546 2.14048,-0.25464 0.25191,2.1175 -2.14048,0.25463 z m 0,0" />
      <path
         style="fill:#577fd6;fill-opacity:1;stroke:none;stroke-width:0.07993423;stroke-opacity:1"
         inkscape:connector-curvature="0"
         id="path5340-3-5"
         d="m 102.53325,145.90183 2.1405,-0.25464 0.25191,2.11749 -2.1405,0.25464 z m 0,0" />
      <path
         style="fill:#577fd6;fill-opacity:1;stroke:none;stroke-width:0.07993423;stroke-opacity:1"
         inkscape:connector-curvature="0"
         id="path5340-2-9-4"
         d="m 102.01404,141.87297 2.14049,-0.25464 0.25191,2.1175 -2.14049,0.25463 z m 0,0" />
      <path
         style="fill:#577fd6;fill-opacity:1;stroke:none;stroke-width:0.07993423;stroke-opacity:1"
         inkscape:connector-curvature="0"
         id="path5340-4"
         d="m 101.48283,137.5725 2.14049,-0.25464 0.25191,2.1175 -2.14049,0.25464 z m 0,0" />
      <path
         style="fill:#577fd6;fill-opacity:1;stroke:none;stroke-width:0.07993423;stroke-opacity:1"
         inkscape:connector-curvature="0"
         id="path5340-2-3"
         d="m 100.9636,133.54363 2.1405,-0.25464 0.25191,2.1175 -2.1405,0.25463 z m 0,0" />
      <path
         style="fill:#577fd6;fill-opacity:1;stroke:none;stroke-width:0.07993423;stroke-opacity:1"
         inkscape:connector-curvature="0"
         id="path5340-3-8"
         d="m 100.45068,129.31002 2.1405,-0.25464 0.25191,2.11748 -2.1405,0.25464 z m 0,0" />
      <path
         sodipodi:nodetypes="ccccc"
         style="fill:#577fd6;fill-opacity:1;stroke:none;stroke-width:0.07993423;stroke-opacity:1"
         inkscape:connector-curvature="0"
         id="path5340-00"
         d="m 106.08824,174.76539 2.1405,-0.25464 0.45914,3.85799 -2.14049,0.25463 z" />
    </g>
    <path
       d="m 104.47917,185.77234 c -0.003,0.0103 -0.007,0.0204 -0.0108,0.0307 -0.003,0.009 -0.004,0.0162 -0.006,0.0242 -0.003,0.009 -0.005,0.0174 -0.006,0.0258 -0.004,0.0174 -0.006,0.0345 -0.008,0.0518 l -2.99091,31.46533 c -0.0581,0.6085 0.38867,1.15102 0.99703,1.20962 l 5.69443,0.5485 c 0.60834,0.059 1.15173,-0.38858 1.20956,-0.99703 l 2.9909,-31.46531 c 0.002,-0.0175 0.003,-0.0351 0.003,-0.0524 1.8e-4,-0.009 5.8e-4,-0.0179 -0.002,-0.0267 -2.9e-4,-0.008 -0.002,-0.0164 -0.002,-0.0248 -0.001,-0.0107 -0.003,-0.0212 -0.005,-0.0322 -10e-4,-0.006 -0.002,-0.0127 -0.002,-0.019 -0.002,-0.0112 -0.005,-0.0221 -0.008,-0.0327 -5.6e-4,-0.005 -0.001,-0.0101 -0.004,-0.0141 l -0.002,-0.009 c -2.5e-4,-5.6e-4 -3.2e-4,-7.2e-4 -4.5e-4,-0.001 l -2.7964,-6.72492 c -0.0615,-0.21049 -0.24501,-0.36226 -0.4633,-0.38328 -0.21829,-0.0214 -0.42741,0.093 -0.52795,0.28779 l -4.02864,6.06744 c -3.4e-4,5.3e-4 -6.1e-4,7.9e-4 -1.2e-4,0.002 l -0.003,0.008 c -0.002,0.005 -0.004,0.01 -0.006,0.0131 -0.006,0.01 -0.01,0.0201 -0.0138,0.0307 -0.002,0.005 -0.005,0.0117 -0.007,0.0178 z m -1.95397,31.70096 2.84075,-29.90625 c 0.0189,-0.20153 0.38074,0.15142 0.59407,0.17195 0.2133,0.0209 0.42118,-3.5e-4 0.61598,-0.0554 l -2.84417,29.94184 -1.17445,-0.11332 c -0.0197,-0.002 -0.0343,-0.0191 -0.0322,-0.0391 z m 4.38056,-33.37893 3.37715,0.32527 0.98383,2.22877 c -0.0702,0.28899 -0.34381,0.49096 -0.64822,0.46165 -0.33367,-0.0316 -0.57888,-0.3297 -0.54674,-0.66332 0.0282,-0.29483 -0.18762,-0.55687 -0.48245,-0.58526 -0.29483,-0.0282 -0.55685,0.18761 -0.58526,0.48244 -0.0316,0.33365 -0.32968,0.57888 -0.66331,0.54676 -0.33367,-0.0316 -0.5789,-0.32969 -0.54677,-0.66332 0.0282,-0.29482 -0.18761,-0.55686 -0.48242,-0.58526 -0.29483,-0.0282 -0.55688,0.18761 -0.58527,0.48244 -0.0316,0.33365 -0.32971,0.57888 -0.66332,0.54676 -0.30446,-0.029 -0.53456,-0.27981 -0.54817,-0.57688 z m 1.94804,3.80861 -2.84418,29.94185 -1.21008,-0.11648 2.84419,-29.94185 c 0.1807,0.0912 0.38073,0.15142 0.59408,0.17194 0.21329,0.0209 0.42116,-3.5e-4 0.61598,-0.0554 z m -0.60201,30.1578 -1.17446,-0.11332 2.8442,-29.94186 c 0.0189,-0.20155 0.38074,0.15143 0.59407,0.17195 0.2133,0.0209 0.42118,-3.5e-4 0.61599,-0.0554 l -2.84076,29.90626 c -0.001,0.0198 -0.0191,0.0342 -0.0391,0.0322 z"
       id="path946-0"
       inkscape:connector-curvature="0"
       sodipodi:nodetypes="scccssssssccccccccccscccccccscsccsscccsssssssssccccccscsccccsscccc"
       style="fill:#577fd6;fill-opacity:1;stroke:none;stroke-width:0.07150977;stroke-opacity:1"
       inkscape:transform-center-x="-36.348657"
       inkscape:transform-center-y="-26.726953" />
  </g>
</svg>
