<?xml version="1.0" encoding="UTF-8" standalone="no"?>
<svg
   xmlns:dc="http://purl.org/dc/elements/1.1/"
   xmlns:cc="http://creativecommons.org/ns#"
   xmlns:rdf="http://www.w3.org/1999/02/22-rdf-syntax-ns#"
   xmlns:svg="http://www.w3.org/2000/svg"
   xmlns="http://www.w3.org/2000/svg"
   xmlns:sodipodi="http://sodipodi.sourceforge.net/DTD/sodipodi-0.dtd"
   xmlns:inkscape="http://www.inkscape.org/namespaces/inkscape"
   height="512pt"
   viewBox="0 0 512 512"
   width="512pt"
   version="1.1"
   id="svg4397"
   sodipodi:docname="pencil2.svg"
   inkscape:version="0.92.2 5c3e80d, 2017-08-06">
  <metadata
     id="metadata4403">
    <rdf:RDF>
      <cc:Work
         rdf:about="">
        <dc:format>image/svg+xml</dc:format>
        <dc:type
           rdf:resource="http://purl.org/dc/dcmitype/StillImage" />
        <dc:title></dc:title>
      </cc:Work>
    </rdf:RDF>
  </metadata>
  <defs
     id="defs4401" />
  <sodipodi:namedview
     pagecolor="#ffffff"
     bordercolor="#666666"
     borderopacity="1"
     objecttolerance="10"
     gridtolerance="10"
     guidetolerance="10"
     inkscape:pageopacity="0"
     inkscape:pageshadow="2"
     inkscape:window-width="1013"
     inkscape:window-height="674"
     id="namedview4399"
     showgrid="false"
     inkscape:zoom="1.9555922"
     inkscape:cx="489.5161"
     inkscape:cy="407.37981"
     inkscape:window-x="377"
     inkscape:window-y="0"
     inkscape:window-maximized="0"
     inkscape:current-layer="svg4397" />
  <path
     d="m 398.5,198.53906 -59.02344,-10 v 72 l 59.02344,-10 63.39062,-26 z"
     id="path4381"
     inkscape:connector-curvature="0"
     style="fill:#ffcb7c"
     sodipodi:nodetypes="cccccc" />
  <path
     d="m167.5 502v-107.441406l-28.988281-16.25c-17.152344-9.621094-28.472657-27.375-29.113281-47.03125-.019532-.617188-.03125-1.238282-.03125-1.855469v-68.882813h48.15625v11.15625-110.398437c0-13.597656 11.019531-24.617187 24.617187-24.617187s24.621094 11.019531 24.621094 24.617187v110.398437-110.398437c0-13.597656 11.019531-24.617187 24.617187-24.617187s24.617188 11.019531 24.617188 24.617187v110.398437-110.398437c0-13.597656 11.023437-24.617187 24.621094-24.617187 13.597656 0 24.617187 11.019531 24.617187 24.617187v110.398437-110.398437c0-13.597656 11.023437-24.617187 24.621094-24.617187 13.597656 0 24.617187 11.019531 24.617187 24.617187v151.234375c0 30.929688-12.5625 60.535156-34.808594 82.027344v107.441406zm0 0"
     fill="#ffddcf"
     id="path4383" />
  <path
     d="m 488.5,224.53906 -77,-36 v 72 z m 0,0"
     id="path4385"
     inkscape:connector-curvature="0"
     style="fill:#8690a6" />
  <path
     d="m 489.73437,215.48047 -77,-36 c -1.32421,-0.6211 -2.76953,-0.94141 -4.23437,-0.94141 h -44.02344 v -17.24219 c 0,-19.08984 -15.52734,-34.61718 -34.61719,-34.61718 -9.625,0 -18.33984,3.94922 -24.62109,10.30859 -6.27734,-6.35937 -14.99609,-10.30859 -24.61719,-10.30859 -9.625,0 -18.33984,3.94922 -24.62109,10.30859 -6.28125,-6.35937 -14.99609,-10.30859 -24.61719,-10.30859 -9.625,0 -18.33984,3.94922 -24.62109,10.30859 -6.28125,-6.35937 -14.9961,-10.30859 -24.61719,-10.30859 -19.08984,0 -34.62109,15.52734 -34.62109,34.61718 v 17.24219 H 56.26953 c -12.003906,0 -21.769531,9.76563 -21.769531,21.76953 v 48.46094 c 0,12.00391 9.765625,21.76953 21.769531,21.76953 h 43.101564 v 58.88281 c 0,0.73047 0.01172,1.46094 0.03516,2.1836 0.742186,22.77344 13.851556,44.00781 34.214836,55.42578 L 157.5,400.42187 V 502 c 0,5.52344 4.48047,10 10,10 5.52344,0 10,-4.47656 10,-10 V 394.55859 c 0,-3.61718 -1.95313,-6.95312 -5.10938,-8.72265 l -28.98828,-16.25 c -14.29297,-8.01563 -23.49218,-22.81641 -24.00781,-38.64063 -0.0156,-0.50781 -0.0234,-1.01562 -0.0234,-1.52344 v -58.88281 h 28.15235 v 1.15625 c 0,5.52344 4.48047,10 10,10 5.52343,0 10,-4.47656 10,-10 V 161.29687 c 0,-8.0625 6.55859,-14.61718 14.62109,-14.61718 8.05859,0 14.61719,6.55859 14.61719,14.61718 v 110.39844 c 0,5.52344 4.47656,10 10,10 5.52344,0 10,-4.47656 10,-10 V 161.29687 c 0,-8.0625 6.55859,-14.61718 14.62109,-14.61718 8.0586,0 14.61719,6.55468 14.61719,14.61718 v 110.39844 c 0,5.52344 4.47656,10 10,10 5.52344,0 10,-4.47656 10,-10 V 161.29687 c 0,-8.0625 6.55859,-14.61718 14.61719,-14.61718 8.0625,0 14.62109,6.55859 14.62109,14.61718 v 110.39844 c 0,5.52344 4.48047,10 10,10 5.52344,0 10,-4.47656 10,-10 V 161.29687 c 0,-8.0625 6.55859,-14.61718 14.62109,-14.61718 8.0586,0 14.61719,6.55859 14.61719,14.61718 v 151.23438 c 0,28.0625 -11.57422,55.33984 -31.75781,74.83594 -1.94922,1.88672 -3.05469,4.48047 -3.05469,7.1914 V 462 c 0,5.52344 4.48047,10 10,10 5.52344,0 10,-4.47656 10,-10 v -63.30469 c 22.17578,-22.99219 34.8125,-54.14844 34.8125,-86.16406 V 270.53906 H 408.5 c 1.46484,0 2.91016,-0.32031 4.23437,-0.9414 l 77,-36 c 3.51954,-1.64454 5.76563,-5.17579 5.76563,-9.0586 0,-3.88281 -2.24609,-7.41406 -5.76563,-9.05859 z M 56.26953,198.53906 c 57.23937,0.26591 48.41851,52 0,52 -0.976562,0 -1.769531,-0.79297 -1.769531,-1.76953 v -48.46094 c 0,-0.97656 0.792969,-1.76953 1.769531,-1.76953 m 91.25391,0 v 52 h -38.15625 c -76.178488,-17.17343 -26.095944,-52 38.15625,-52 m 216.95312,0 H 398.5 v 52 H 364.47656 Z M 418.5,244.82422 v -40.57031 l 43.39062,20.28515 z"
     id="path4387"
     inkscape:connector-curvature="0"
     sodipodi:nodetypes="ccscsscscscsscsssscscccsssscccsccssssssssssssssssssssssssscsssscscsccscccsscccccccccccccc" />
  <path
     d="m255.832031 84.339844c5.519531 0 10-4.480469 10-10v-64.339844c0-5.523438-4.480469-10-10-10-5.523437 0-10 4.476562-10 10v64.339844c0 5.519531 4.476563 10 10 10zm0 0"
     id="path4389" />
  <path
     d="m178.359375 98.621094c1.953125 1.953125 4.511719 2.929687 7.070313 2.929687 2.558593 0 5.117187-.976562 7.070312-2.929687 3.90625-3.902344 3.90625-10.234375 0-14.140625l-25.628906-25.632813c-3.902344-3.902344-10.234375-3.902344-14.144532 0-3.902343 3.90625-3.902343 10.238282 0 14.144532zm0 0"
     id="path4391" />
  <path
     d="m326.570312 101.550781c2.558594 0 5.117188-.976562 7.070313-2.929687l25.628906-25.628906c3.90625-3.90625 3.90625-10.238282 0-14.144532-3.90625-3.902344-10.234375-3.902344-14.140625 0l-25.632812 25.632813c-3.902344 3.90625-3.902344 10.238281 0 14.140625 1.953125 1.953125 4.515625 2.929687 7.074218 2.929687zm0 0"
     id="path4393" />
  <path
     d="m319.671875 492c-2.640625 0-5.210937 1.070312-7.070313 2.929688-1.871093 1.859374-2.929687 4.441406-2.929687 7.070312s1.058594 5.210938 2.929687 7.070312c1.859376 1.859376 4.429688 2.929688 7.070313 2.929688 2.628906 0 5.207031-1.070312 7.066406-2.929688 1.859375-1.859374 2.933594-4.441406 2.933594-7.070312s-1.070313-5.210938-2.933594-7.070312c-1.859375-1.859376-4.4375-2.929688-7.066406-2.929688zm0 0"
     id="path4395" />
  <rect
     style="opacity:0.98999999;fill:#ffcb7c;fill-opacity:1;stroke:none;stroke-width:0.65064615;stroke-linecap:round;stroke-miterlimit:4;stroke-dasharray:none;stroke-dashoffset:0;stroke-opacity:1"
     id="rect4948"
     width="93.828529"
     height="52.420719"
     x="53.694912"
     y="198.53906" />
  <rect
     style="opacity:0.98999999;fill:#caa366;fill-opacity:1;stroke:none;stroke-width:0.74046844;stroke-linecap:round;stroke-miterlimit:4;stroke-dasharray:none;stroke-dashoffset:0;stroke-opacity:1"
     id="rect820"
     width="93.828529"
     height="15.090981"
     x="53.694912"
     y="235.86879" />
  <rect
     style="opacity:0.98999999;fill:#caa366;fill-opacity:1;stroke:none;stroke-width:0.44594604;stroke-linecap:round;stroke-miterlimit:4;stroke-dasharray:none;stroke-dashoffset:0;stroke-opacity:1"
     id="rect820-3"
     width="34.031921"
     height="15.090981"
     x="364.47656"
     y="235.44809" />
  <rect
     style="opacity:0.98999999;fill:#e3b56e;fill-opacity:1;stroke:none;stroke-width:0.89392793;stroke-linecap:round;stroke-miterlimit:4;stroke-dasharray:none;stroke-dashoffset:0;stroke-opacity:1"
     id="rect820-7"
     width="93.828529"
     height="21.994261"
     x="53.694904"
     y="213.87453" />
  <rect
     style="opacity:0.98999999;fill:#e3b56e;fill-opacity:1;stroke:none;stroke-width:0.53836662;stroke-linecap:round;stroke-miterlimit:4;stroke-dasharray:none;stroke-dashoffset:0;stroke-opacity:1"
     id="rect820-7-1"
     width="34.031898"
     height="21.994261"
     x="364.47656"
     y="213.45383" />
</svg>
