<?xml version="1.0" encoding="UTF-8" standalone="no"?>
<svg
   xmlns:dc="http://purl.org/dc/elements/1.1/"
   xmlns:cc="http://creativecommons.org/ns#"
   xmlns:rdf="http://www.w3.org/1999/02/22-rdf-syntax-ns#"
   xmlns:svg="http://www.w3.org/2000/svg"
   xmlns="http://www.w3.org/2000/svg"
   version="1.1"
   id="svg4778"
   viewBox="0 0 399.73422 367.34218"
   height="103.67213mm"
   width="112.81388mm">
  <defs
     id="defs4780" />
  <metadata
     id="metadata4783">
    <rdf:RDF>
      <cc:Work
         rdf:about="">
        <dc:format>image/svg+xml</dc:format>
        <dc:type
           rdf:resource="http://purl.org/dc/dcmitype/StillImage" />
        <dc:title></dc:title>
      </cc:Work>
    </rdf:RDF>
  </metadata>
  <g
     transform="translate(-201.20929,-528.0465)"
     id="layer1">
    <path
       id="path4173"
       d="m 600.33725,660.69053 c -0.7077,2.70886 -2.1215,2.77619 -4.673,0.22323 -1.0804,-1.08035 -1.9642,-1.72618 -1.9642,-1.4368 0,1.85508 3.1442,9.18518 4.2679,9.94441 0.7467,0.5051 -0.1891,0.92696 -2.0798,0.9375 -1.8906,0.01 -3.4384,0.65775 -3.4384,1.43822 0,1.96253 -5.9823,7.33154 -8.1693,7.33154 -0.9844,0 -4.4705,2.49541 -7.7474,5.54378 -8.531,7.93748 -16.3483,13.34803 -17.2284,11.92412 -1.22,-1.97397 -2.7657,-1.4027 -3.4673,1.2815 -0.3913,1.49554 -1.7052,2.49976 -3.2721,2.49976 -1.4394,0 -2.6162,0.6182 -2.6162,1.3739 0,2.0915 -9.8682,15.25927 -13.1933,16.29777 -1.6118,0.5036 -4.4825,2.527 -6.3778,4.4966 -1.8966,1.9697 -4.5693,3.5813 -5.9365,3.5813 -1.369,0 -2.4884,0.7457 -2.4884,1.6574 0,2.7246 -5.6351,7.2499 -7.9306,6.3689 -1.3117,-0.5034 -2.0693,-0.1605 -2.0693,0.9365 0,0.9518 -0.8613,2.9596 -1.9139,4.4637 -1.5721,2.2447 -2.4643,2.5226 -5.0009,1.5585 -2.4161,-0.919 -3.0864,-0.7735 -3.0864,0.6708 0,1.0142 0.8437,1.8436 1.875,1.8436 1.8457,0 2.7632,2.4739 0.9375,2.5283 -0.5157,0.015 -4.2803,-0.9397 -5.9207,0.3221 l -2.9827,2.2949 0.1685,6.1153 c 1.1926,3.3635 1.301,8.3658 2.685,11.1148 2.9104,5.783 7.1639,17.9151 7.2097,20.5567 0.017,0.9936 1.405,3.24307 3.084,4.99937 2.1531,2.2519 3.4408,5.6197 4.3643,11.4184 0.7211,4.5239 2.1832,9.9731 3.248,12.1104 1.0657,2.1359 4.4305,6.8717 5.0309,10.5246 0.6018,3.6514 1.7151,8.2555 2.474,10.2295 0.9815,2.5527 0.9936,4.0554 0.043,5.2014 -0.9294,1.1199 -0.9377,1.8594 -0.027,2.4223 0.7208,0.4455 1.3107,2.2089 1.3107,3.9179 0,1.709 1.3501,4.458 2.9996,6.1082 2.4016,2.4023 3.125,4.6972 3.6217,11.5058 0.3415,4.6786 3.0044,9.4488 3.4733,10.6005 0.5731,1.4093 -0.4084,3.4151 -2.9972,6.1225 -2.1167,2.2147 -3.8484,4.5697 -3.8484,5.2344 0,1.7405 -11.4534,-4.173 -13.8478,-6.3135 -1.0854,-0.9701 -2.9465,-1.7634 -4.1377,-1.7634 -3.096,0 -14.0696,-5.4605 -15.8395,-8.7667 -0.822,-1.5356 -2.8284,-3.1271 -4.4584,-3.5368 -1.891,-0.4746 -2.9658,0.3454 -2.9658,-1.259 0,-1.3834 -0.9844,-2.8177 -2.1875,-3.1858 -5.6665,-1.7362 -12.9653,-5.6942 -13.6115,-7.3788 -0.395,-1.0294 -1.9237,-1.9124 -3.3975,-1.9626 -3.8363,-0.1308 -9.9705,-3.9737 -11.4004,-7.141 -1.033,-2.2905 -1.9262,-2.5942 -5.8087,-1.9725 -4.3185,0.6906 -4.6368,0.5112 -5.4229,-3.0742 -0.6361,-2.8965 -1.71086,-3.9995 -4.48966,-4.6098 -2.0098,-0.4414 -3.9762,-1.3218 -4.3668,-1.9568 -0.3922,-0.6346 -1.755,-1.1538 -3.0285,-1.1538 -1.2734,0 -3.7833,-1.7462 -5.5797,-3.8792 -2.5342,-3.0125 -3.6409,-3.5669 -4.9527,-2.4782 -2.18,1.8092 -5.3409,0.5782 -6.1149,-2.3823 -0.3741,-1.4304 -1.9752,-2.4739 -4.1859,-2.726 -1.969,-0.2251 -7.4602,-3.0471 -7.3155,-3.8264 0.1943,-1.0425 -1.1069,-1.0694 -4.9189,-0.1016 -3.6097,0.9162 -7.106,3.2833 -11.5138,7.7957 -5.3746,5.5008 -7.2313,6.5981 -12.2998,7.2699 -5.5386,0.7333 -11.6744,8.3847 -16.2534,12.3642 -1.0854,0.9431 -2.8525,1.7147 -3.9279,1.7147 -1.0754,0 -2.2484,0.7638 -2.6066,1.6975 -0.3581,0.9335 -2.3192,2.0313 -4.3571,2.4381 -3.8966,0.7794 -7.9148,2.4009 -11.0084,7.2413 -3.1853,4.9837 -18.3617,16.7635 -26.9197,22.4409 -2.7247,1.8078 -4.2186,4.4293 -5.7618,5.8231 -1.5442,1.3944 -3.1901,2.153 -3.6579,1.6861 -0.4673,-0.4674 -2.1407,0.3632 -3.7181,1.845 -1.7064,1.603 -7.0371,4.908 -10.2176,5.2217 -4.57586,0.7371 -8.15968,0.8605 -10.3495,-4.6439 0.4364,-1.375 0.2587,-2.4998 -0.3949,-2.4998 -2.2493,0 -2.609,-5.4463 -0.611,-9.2826 4.8369,-9.2912 5.3819,-10.6248 5.3819,-13.1804 0,-1.4869 -0.6863,-6.4937 0.92,-8.6826 4.4512,-6.0666 7.4074,-15.3707 7.9885,-25.147 0.2894,-4.8576 3.337,-8.483 4.3279,-10.5 1.1039,-2.2476 1.3537,-4.1155 0.6451,-4.8246 -1.3727,-1.3727 -0.057,-6.1326 4.9093,-17.7571 0.881,-2.0628 1.7886,-7.6453 2.0169,-12.40547 0.3145,-6.558 1.024,-9.3027 2.9297,-11.3311 1.8,-1.9167 0.5149,-4.3849 0.5149,-8.6967 l 0,-6.0208 -4.2775,0.6942 c -3.0382,0.4931 -0.4753,-1.8214 -0.96,-3.0865 -0.3758,-0.9793 -1.5447,-1.7806 -2.5969,-1.7806 -1.0528,0 0.0857,-0.5625 0.0857,-1.25 0,-0.6875 -1.3981,-1.25 -3.1057,-1.25 -4.0919,0 -14.1423,-7.4089 -14.1423,-9.5662 0,-0.9262 -1.0648,-1.6846 -2.3662,-1.6846 -1.3015,0 -2.691,-0.8438 -3.0864,-1.8752 -0.3957,-1.0312 -1.5184,-1.8751 -2.4957,-1.8751 -0.9764,0 -1.6972,-0.9844 -1.6017,-2.1875 0.1215,-1.5299 -0.6305,-2.1057 -2.5029,-1.9138 -1.7528,0.1793 -2.8983,-0.5759 -3.3203,-2.1874 -0.3903,-1.4927 -1.7091,-2.461 -3.3516,-2.461 -3.8074,0 -13.5102,-5.9406 -14.4289,-8.8357 -0.4216,-1.3281 -1.8406,-2.4152 -3.1539,-2.4152 -1.3129,0 -3.3083,-1.4062 -4.4343,-3.1257 -1.3939,-2.1273 -3.1877,-3.1243 -5.6207,-3.1243 -2.6716,0 -6.0436,-0.9066 -7.4301,-3.5913 -1.0214,-1.97539 -3.0044,-3.89059 -4.4078,-4.25739 -1.4999,-0.3922 -4.5511,0.2982 -4.5511,-1.1801 0,-1.3821 -0.5874,-2.7089 -1.3055,-2.9481 -0.718,-0.2394 -1.3917,-1.57861 -1.497,-2.97673 -0.1538,-2.04275 -0.8794,-2.43955 -3.694,-2.027 -2.5149,0.3691 -3.5035,-0.0171 -3.5035,-1.369 0,-1.03571 -4.8438,-2.20747 -5.8751,-2.60285 -1.0312,-0.3957 -1.8749,-1.7763 -1.8749,-3.06697 0,-3.50963 3.6916,-10.23093 5.6206,-10.23093 0.9281,0 3.3589,-1.40625 5.4012,-3.1257 4.2221,-3.5526 4.9647,-3.6801 9.8331,-1.68032 4.726,1.94102 7.2096,1.50555 15.907,-2.79338 8.1331,-4.0196 10.3442,-4.3462 15.0172,-2.21751 2.4306,1.10786 3.5832,1.07135 5.0685,-0.16061 1.4085,-1.16899 4.5548,-1.36466 11.791,-0.73338 5.7074,0.4979 10.1707,0.37437 10.583,-0.29292 0.3922,-0.63468 3.3998,-1.84793 6.684,-2.6974 3.2841,-0.84898 6.8142,0.14205 7.8438,-0.24186 1.0312,-0.38384 3.5614,-0.87527 5.6254,-1.09204 2.0625,-0.21678 6.2813,-0.67873 9.3749,-1.02654 3.0937,-0.34784 8.7191,-0.90867 12.5,-1.24631 10.5492,-0.94205 15.1354,-4.09145 15.8588,-5.97375 0.3627,-0.94523 1.443,-1.719 2.4007,-1.719 1.2232,0 1.7413,-1.62875 1.7413,-5.47215 0,-3.33916 0.7308,-6.0781 1.875,-7.02785 1.0312,-0.85586 1.875,-2.33068 1.875,-3.27756 0,-0.94708 1.1316,-1.72187 2.5149,-1.72187 2.2381,0 2.4257,-0.55575 1.707,-5.05242 -0.633,-3.958 -0.3465,-5.38906 1.3235,-6.60955 1.1721,-0.85714 1.9891,-2.10005 1.8155,-2.76043 -0.1736,-0.66123 0.3349,-3.42368 1.1299,-6.1397 1.1854,-4.04825 1.1182,-5.29881 -0.3732,-6.9462 -1.6041,-1.772 -1.4956,-2.4109 0.9197,-5.41341 1.9942,-2.47822 2.6403,-4.75017 2.3804,-8.36007 -0.3136,-4.3419 0.045,-5.11117 2.891,-6.19269 2.6283,-0.9993 3.1057,-1.81068 2.4933,-4.2445 -0.4153,-1.65454 -0.1455,-3.385 0.5995,-3.84626 2.2175,-1.37049 6.7925,-12.31664 6.5513,-15.67213 -0.1355,-1.87944 0.7995,-3.8835 2.3617,-5.06245 2.4377,-1.8379 3.7205,-5.32031 6.1197,-16.61442 0.5596,-2.63294 1.6473,-5.41772 2.4161,-6.18697 0.7697,-0.76971 1.20735,-2.15625 2.29705,-3.71385 1.38712,-1.98275 1.33768,-1.83223 3.02418,-2.7347 3.518,-1.88231 6.7761,-2.42936 8.59177,-0.87451 2.06459,1.48969 1.93793,2.88089 2.47472,3.43226 1.5469,0.68602 1.26118,2.07582 1.26118,3.28772 0,1.34463 0.9416,2.20318 2.4161,2.20318 1.4275,0 2.7536,1.15059 3.2407,2.812 0.4536,1.5471 1.8738,5.06245 3.1563,7.81285 1.282,2.7504 2.7054,7.38024 3.166,10.28965 0.459,2.9094 1.3268,4.9851 1.9284,4.61408 0.6016,-0.37183 1.0939,0.2009 1.0939,1.27272 0,1.07183 0.5625,1.9482 1.25,1.9482 0.6875,0 1.25,0.64112 1.25,1.4247 0,0.78357 0.885,2.07139 1.9667,2.86213 1.5423,1.12772 6.3922,15.62342 8.4611,25.29065 0.1711,0.79922 2.1135,3.29617 4.3161,5.5495 2.2029,2.25332 2.0051,5.39622 2.0051,6.98487 0,1.62015 0.7562,2.88792 1.722,2.88792 2.5029,0 5.2179,3.74742 4.7429,6.54938 -0.2251,1.32834 0.4089,3.35063 1.4088,4.4952 1,1.14418 2.5559,4.16857 3.4553,6.71985 0.90076,2.55272 2.93926,6.04372 4.52836,7.75842 1.59,1.71471 2.8911,4.22873 2.8911,5.58675 0,3.36065 8.3537,7.63953 13.3449,7.63953 2.246,0 5.1722,0.98437 6.5008,2.18742 1.6108,1.45828 4.5886,2.22038 8.9312,2.28341 3.5832,0.0531 7.106,0.46174 7.827,0.90802 0.7221,0.44628 2.2084,-0.17805 3.3034,-1.38741 1.6224,-1.79206 3.6723,-2.12869 11.1038,-1.82071 14.7592,0.61175 16.2349,0.49452 18.3978,-1.46258 1.2058,-1.0912 3.207,-1.5643 4.8273,-1.1409 2.7537,0.72015 3.8966,2.93233 1.5164,2.93233 -0.6875,0 -1.25,1.42604 -1.25,3.16869 0,2.78191 0.3056,3.00538 2.5005,1.83073 1.375,-0.73587 2.5004,-2.16165 2.5004,-3.1687 0,-1.98543 1.7298,-2.20031 5.5821,-0.6946 1.5875,0.62064 3.8001,0.17328 6.2499,-1.2638 2.7778,-1.62875 6.8046,-2.28055 15.0414,-2.43382 17.9952,-0.33439 25.4746,0.0561 26.2882,1.37257 0.4177,0.67605 1.3133,0.88702 1.9899,0.46884 0.6766,-0.41819 3.5059,-1.02175 6.2861,-1.34122 6.9396,-0.79717 9.5968,2.61145 7.6991,9.87278 z m -84.0646,-2.81199 c -0.6469,0 -1.5239,0.5625 -1.9487,1.25 -0.4249,0.6875 0.1038,1.24999 1.1762,1.24999 1.0717,0 1.9488,-0.56249 1.9488,-1.24999 0,-0.6875 -0.5293,-1.25 -1.1763,-1.25 z m -5.8872,72.03922 c -1.7789,0.045 -6.5176,6.0466 -5.5435,7.0207 0.3517,0.3516 2.0944,-0.3141 3.8725,-1.4798 3.3613,-2.2032 4.3885,-5.6097 1.671,-5.5424 z m -12.2636,3.7517 c -2.5559,1.3672 -3.2962,3.7087 -1.1741,3.7087 0.6875,0 1.25,-0.5625 1.25,-1.25 0,-0.6875 0.877,-1.25 1.9487,-1.25 1.0719,0 1.6003,-0.564 1.1741,-1.2534 -0.5151,-0.8335 -1.5866,-0.8187 -3.1997,0.044 z m -7.3374,12.5745 c -1.4587,0.3814 -4.1428,1.3369 -3.729,2.4152 0.5251,1.3686 1.0868,1.4497 2.4136,0.3488 2.4836,-2.0628 4.1288,-3.4996 1.3155,-2.7633 z m -6.3522,103.17127 c -2.2498,-0.75 0.2229,1.8336 2.4952,2.7059 1.2173,0.4672 1.7887,0.1878 1.4843,-0.7256 -0.2723,-0.8169 -3.1631,-1.7075 -3.9795,-1.9797 z m -0.3081,-92.78647 c -0.647,0 -1.1762,0.8437 -1.1762,1.8751 0,1.9325 1.475,2.484 2.8814,1.0757 0.9987,-0.9987 -0.1301,-2.951 -1.7064,-2.951 z m 3.3238,-81.24994 c -0.6876,0 -1.25,0.24805 -1.25,0.55122 0,0.30318 0.5624,0.89888 1.25,1.32378 0.6875,0.4249 1.25,0.17685 1.25,-0.55123 0,-0.72807 -0.5625,-1.32377 -1.25,-1.32377 z m -9.9609,74.72744 c -2.0404,0.2995 -4.4319,1.4204 -5.312,2.4912 -1.4095,1.7118 -1.1515,1.8336 2.1403,1.0135 3.1394,-0.7827 6.8817,-2.845 6.8817,-3.7933 0,-0.1405 -1.6694,-0.01 -3.7109,0.2891 z m -0.04,15.2725 c -0.6875,0 -1.25,0.5957 -1.25,1.3238 0,0.728 0.5625,0.9761 1.25,0.5512 0.6874,-0.4249 1.2499,-1.0206 1.2499,-1.3238 0,-0.3032 -0.5625,-0.5512 -1.2499,-0.5512 z m -3.125,13.7506 c -1.0313,0 -1.875,0.8437 -1.875,1.8751 0,1.9525 1.4783,2.4797 2.9176,1.0417 1.4384,-1.4383 0.9104,-2.9166 -1.0416,-2.9166 z m -1.1962,-18.3187 c -1.0608,0.4071 -1.9288,1.6889 -1.9288,2.8478 0,1.9238 0.2192,1.9095 2.5077,-0.1614 2.7488,-2.4869 2.4546,-3.8506 -0.5788,-2.6874 z m -1.4061,-93.69005 c -1.0875,0.4173 -3.055,0.75872 -4.374,0.75872 -2.6548,0 -3.1033,2.59569 -1.0976,6.34311 1.2441,2.32495 1.4306,2.28054 4.3354,-1.01967 3.5012,-3.97663 4.1064,-7.22266 1.1371,-6.0824 z m 0.013,-9.24107 c -0.9512,0 -4.2848,3.36924 -4.2848,4.32902 0,0.41705 1.125,0.15616 2.5005,-0.5797 2.2855,-1.22319 3.4891,-3.75029 1.7857,-3.75029 z m -1.5774,26.24999 c -1.6276,0 -2.7102,1.4855 -1.963,2.69454 0.799,1.29276 3.0045,0.17806 3.0045,-1.51845 0,-0.64694 -0.4688,-1.17624 -1.0417,-1.17624 z m -9.3387,71.48433 c -3.5928,0.511 -4.4223,5.5967 -1.2868,7.8887 1.7547,1.2831 2.6934,1.332 4.0533,0.2112 1.3578,-1.1198 1.8917,-1.0958 2.2953,0.1033 0.2891,0.8594 0.9904,1.5629 1.5582,1.5629 0.5678,0 -0.071,-2.2849 -1.4211,-5.0782 -1.9147,-3.9638 -3.0574,-4.9923 -5.1986,-4.6872 z m 5.3795,-72.73433 c -0.6875,0 -1.25,0.5957 -1.25,1.32378 0,0.72807 0.5625,0.97613 1.25,0.55122 0.6875,-0.4249 1.25,-1.0206 1.25,-1.32377 0,-0.30318 -0.5625,-0.55123 -1.25,-0.55123 z m -3.5373,92.35613 c -1.258,-1.6402 -2.7296,-4.1056 -3.2697,-5.4808 -0.5409,-1.375 -1.2246,-1.8608 -1.5196,-1.0795 -0.6601,1.7491 4.6561,14.2047 6.0619,14.2047 1.8297,0 1.0647,-4.5984 -1.2715,-7.6439 z m -3.9617,60.14387 c -0.6875,0 -1.25,0.877 -1.25,1.9482 0,1.0718 0.5625,1.6016 1.25,1.1762 0.6875,-0.4248 1.25,-1.3018 1.25,-1.9482 0,-0.6469 -0.5625,-1.1762 -1.25,-1.1762 z m -1.25,-10.0003 c -0.6875,0 -1.25,0.5625 -1.25,1.25 0,0.6875 0.5625,1.25 1.25,1.25 0.6875,0 1.25,-0.5625 1.25,-1.25 0,-0.6875 -0.5625,-1.25 -1.25,-1.25 z m -2.5005,-6.25 c -0.6875,0 -1.25,0.5625 -1.25,1.25 0,0.6875 0.5625,1.25 1.25,1.25 0.6875,0 1.25,-0.5625 1.25,-1.25 0,-0.6875 -0.5625,-1.25 -1.25,-1.25 z m 0.4848,-49.60097 c -0.4021,-1.4998 -1.4558,-3.0039 -2.3415,-3.3434 -1.0899,-0.4183 -1.4021,0.1782 -0.966,1.845 0.3926,1.5013 -0.2245,3.0985 -1.5809,4.0912 -2.7368,2.0012 -0.5579,3.8119 3.1636,2.6301 2.7078,-0.8596 2.8115,-1.1694 1.7236,-5.2229 z m -1.208,-104.14887 c -0.9078,0 -1.7062,2.27624 -1.9724,5.62543 -0.2964,3.72594 0.048,5.62544 1.02,5.62544 1.8226,0 2.3101,-1.40348 2.4038,-6.91899 0.044,-2.6143 -0.5308,-4.33045 -1.4514,-4.33045 z m -1.2855,159.47714 c -0.9809,-2.5555 -4.2414,-2.5713 -4.2414,-0.02 0,2.9796 2.4739,6.9562 3.8122,6.1297 1.3604,-0.8408 1.5287,-3.2418 0.4285,-6.1096 z m -1.027,-171.44142 c -0.9821,-0.98214 -2.5583,-1.78634 -3.5011,-1.78634 -0.9429,0 -2.3799,-0.66563 -3.1925,-1.47976 -2.39986,-2.39944 -3.17566,-0.21208 -1.37086,3.86487 1.42506,3.21884 2.23296,3.70589 5.44936,3.28186 2.0768,-0.27432 3.9159,-0.5367 4.0895,-0.58312 0.8017,-0.21643 0.1504,-1.67459 -1.4733,-3.29904 z m -10.01626,18.21422 c -0.9907,0 -2.1489,0.5625 -2.5728,1.25 -0.4249,0.6875 -0.5042,1.25 -0.176,1.25 0.3281,0 1.4862,0.34143 2.5728,0.75874 1.2975,0.49789 1.9772,0.0681 1.9772,-1.25 0,-1.10481 -0.8105,-2.00835 -1.8012,-2.00835 z m -1.875,98.74993 c -1.3344,0 -2.773,0.5625 -3.1998,1.25 -0.4381,0.709 0.612,1.25 2.4258,1.25 1.7592,0 3.1997,-0.5625 3.1997,-1.25 0,-0.6875 -1.0918,-1.25 -2.4257,-1.25 z m -2.5728,41.24997 c -0.6875,0 -1.25,0.5625 -1.25,1.25 0,0.6875 0.5625,1.25 1.25,1.25 0.6875,0 1.25,-0.5625 1.25,-1.25 0,-0.6875 -0.5625,-1.25 -1.25,-1.25 z m -1.25,-46.24997 c -2.4354,0 -3.2576,1.3258 -1.7528,2.8306 1.0014,1.0014 4.2535,-0.3092 4.2535,-1.7147 0,-0.6139 -1.1251,-1.1162 -2.5005,-1.1162 z m -0.6763,-151.24995 c -0.6468,0 -1.5239,0.5625 -1.9487,1.25 -0.4249,0.6875 0.10375,1.25 1.1762,1.25 1.0718,0 1.9488,-0.5625 1.9488,-1.25 0,-0.6875 -0.5293,-1.25 -1.1763,-1.25 z m -1.1876,144.56465 c -1.4127,-1.4126 -1.4883,-2.0155 -0.3125,-2.4911 0.8532,-0.3447 0.2857,-0.6711 -1.2612,-0.7254 -1.5468,-0.054 -2.8115,0.3935 -2.8115,0.9951 0,0.6015 -0.3536,2.8621 -0.7857,5.0223 -0.6515,3.2575 -0.4379,3.8176 1.25,3.2819 1.1196,-0.3562 2.879,-0.9111 3.911,-1.2333 2.3825,-0.7443 2.3865,-2.4739 0.0125,-4.849 z m -5.0106,-95.81469 c -1.0313,0 -1.875,0.5293 -1.875,1.17622 0,1.57575 1.952,2.70457 2.9514,1.70612 1.4077,-1.40774 0.8573,-2.88219 -1.0757,-2.88219 z m -6.2427,118.44549 c -2.5536,-0.4882 -2.8863,-0.2788 -1.7404,1.1008 1.535,1.8493 6.6912,2.4066 5.5748,0.603 -0.3741,-0.6054 -2.0998,-1.3721 -3.8339,-1.7033 z m -1.0981,-67.1764 c -0.5998,-0.01 -0.3955,0.8185 0.4542,1.8422 0.8495,1.0237 2.1035,1.5156 2.7874,1.0938 1.2533,-0.7747 -1.0904,-2.8979 -3.2407,-2.9352 z m 1.4843,-37.23888 c -2.3178,0.77259 -2.703,3.46379 -0.4948,3.46379 1.0885,0 1.9791,-0.89063 1.9791,-1.97971 0,-1.08855 -0.6679,-1.75624 -1.4843,-1.48408 z m -2.8911,136.76145 c -1.0312,-0.3957 -1.875,-0.1747 -1.875,0.4912 0,0.666 0.8438,1.2108 1.875,1.2108 1.0312,0 1.875,-0.2211 1.875,-0.4912 0,-0.2702 -0.8438,-0.8151 -1.875,-1.2108 z m 0.625,-14.5481 c -0.6875,0 -1.25,0.877 -1.25,1.9482 0,1.0719 0.5625,1.6016 1.25,1.1763 0.6875,-0.4249 1.25,-1.3019 1.25,-1.9482 0,-0.6469 -0.5625,-1.1763 -1.25,-1.1763 z m -2.4233,-24.91957 c -1.4889,-2.3521 -4.755,0.1496 -5.3144,4.0726 -0.3019,2.113 -1.1571,2.6688 -3.8243,2.4868 -2.2646,-0.1551 -3.436,0.3777 -3.436,1.5629 0,0.9888 -0.5625,1.7978 -1.25,1.7978 -1.5842,0 -1.611,-1.6388 -0.053,-3.1974 1.4389,-1.4396 0.3205,-3.3778 -3.0719,-5.326 -2.4547,-1.4092 -2.4474,-1.4497 0.3125,-2.2261 1.5469,-0.4349 2.8115,-1.3209 2.8115,-1.9683 0,-0.6478 -0.5625,-0.8303 -1.25,-0.4054 -0.6875,0.4249 -1.25,-0.3146 -1.25,-1.6431 0,-2.0513 -0.5994,-2.2934 -3.9689,-1.6044 -2.183,0.4465 -4.227,1.5858 -4.5428,2.5313 -0.4089,1.2266 0.1917,1.5199 2.094,1.0224 1.4671,-0.3837 2.6668,-0.1877 2.6668,0.4354 0,0.6231 -1.9355,1.133 -4.3017,1.133 -4.2124,0 -7.5761,2.4983 -4.6705,3.4681 0.8092,0.2697 1.4713,1.7419 1.4713,3.2718 0,2.9696 3.641,8.8557 3.7109,5.9979 0.021,-0.9 0.6401,-1.2652 1.3739,-0.8117 0.7346,0.454 1.6428,-0.3554 2.0208,-1.8007 0.8631,-3.3005 2.8959,-3.4409 2.8959,-0.1995 0,1.3344 0.6115,2.8048 1.3589,3.2661 0.7473,0.4619 1.0813,1.9009 0.742,3.19867 -0.8099,3.0971 0.9555,2.9982 3.9544,-0.2205 1.3599,-1.45967 4.0871,-2.62717 6.2837,-2.69017 3.817,-0.1085 3.8677,-0.1922 3.0768,-5.1284 -0.6929,-4.3333 -0.5204,-4.9092 1.2656,-4.2244 2.2985,0.882 2.609,-0.088 0.8941,-2.7977 z m -21.3251,5.5452 c -0.6875,0.4249 -1.25,0.1769 -1.25,-0.5512 0,-0.7281 0.5625,-1.3238 1.25,-1.3238 0.6875,0 1.25,0.2481 1.25,0.5513 0,0.3031 -0.5625,0.8988 -1.25,1.3237 z m -3.7495,-1.8751 c -0.6875,0 -1.25,-0.8438 -1.25,-1.8752 0,-1.0312 0.5625,-1.8751 1.25,-1.8751 0.6875,0 1.25,0.8437 1.25,1.8751 0,1.0313 -0.5625,1.8752 -1.25,1.8752 z m 21.0165,-97.21359 c -2.3178,0.7726 -2.7031,3.46379 -0.4948,3.46379 1.0885,0 1.9791,-0.89063 1.9791,-1.97972 0,-1.08856 -0.668,-1.75625 -1.4843,-1.48407 z m -5.0781,113.55136 c -0.5157,-0.048 -0.8932,1.1777 -0.8389,2.7246 0.054,1.5471 0.3836,2.1058 0.7318,1.2422 0.3482,-0.8636 1.1476,-1.2523 1.7763,-0.8637 0.6288,0.3886 1.809,0.2951 2.6235,-0.2079 1.0171,-0.6285 0.7241,-1.2102 -0.9375,-1.8608 -1.3294,-0.5205 -2.8381,-0.986 -3.3541,-1.0343 z m 4.0629,-181.33781 c -0.6875,0 -1.25,0.5625 -1.25,1.25 0,0.6875 0.5625,1.25 1.25,1.25 0.6875,0 1.25,-0.5625 1.25,-1.25 0,-0.6875 -0.5625,-1.25 -1.25,-1.25 z m -3.8242,153.74994 c -0.647,0 -1.1763,0.5625 -1.1763,1.25 0,0.6875 0.877,1.25 1.9488,1.25 1.0719,0 1.6011,-0.5625 1.1762,-1.25 -0.4248,-0.6875 -1.3018,-1.25 -1.9487,-1.25 z m 1.3237,-43.125 c -0.6875,0.4249 -1.25,1.3019 -1.25,1.9482 0,0.647 0.5625,1.1763 1.25,1.1763 0.6875,0 1.25,-0.877 1.25,-1.9482 0,-1.0719 -0.5625,-1.6016 -1.25,-1.1763 z m -1.1762,-45.62492 c -1.688,0 -2.8573,2.27912 -1.9361,3.77034 0.4317,0.69873 1.3087,0.94679 1.9487,0.55124 1.5182,-0.93834 1.5084,-4.32185 -0.013,-4.32185 z m -1.3238,94.37492 c -0.6875,-0.4249 -1.25,0.058 -1.25,1.074 0,1.0156 -0.3866,2.8765 -0.859,4.1356 -0.7562,2.0156 -0.6066,2.0843 1.25,0.5742 2.3567,-1.9167 2.7561,-4.6112 0.859,-5.7844 z m -1.25,28.74997 c -0.6875,0.4249 -1.25,1.6159 -1.25,2.6473 0,1.0312 0.5625,1.527 1.25,1.1024 0.6875,-0.4249 1.25,-1.6158 1.25,-2.6472 0,-1.0313 -0.5625,-1.5271 -1.25,-1.1025 z m -0.013,-97.28964 c -0.013,-2.365 -0.2515,-2.2433 -1.9226,0.9622 -1.9135,3.66997 -1.4583,10.70217 0.6928,10.70217 1.2294,0 2.3491,-4.8376 1.6871,-7.29 -0.2473,-0.9156 -0.453,-2.88507 -0.4573,-4.37487 z m -1.8036,-22.51285 c -1.2106,-0.46457 -1.5807,-0.0944 -1.1162,1.11627 0.7587,1.97685 2.9272,2.49255 2.9272,0.69507 0,-0.61396 -0.8151,-1.42905 -1.8113,-1.81067 z m -6.9347,-2.6974 c -0.6875,-0.42491 -1.25,0.13762 -1.25,1.25 0,1.1124 0.5625,1.67459 1.25,1.25 0.6875,-0.42488 1.25,-0.98738 1.25,-1.25 0,-0.2626 -0.5625,-0.8251 -1.25,-1.25 z m -5.2397,87.00332 c -1.989,1.0644 -2.352,1.7161 -1.1747,2.1086 0.9371,0.3124 2.1926,-0.2038 2.7898,-1.1469 0.5975,-0.9432 1.095,-1.2598 1.1055,-0.7036 0.0125,0.5562 0.6945,0.5938 1.52,0.084 2.7271,-1.686 -1.1463,-1.9983 -4.2414,-0.3415 z m -1.9476,-85.10927 c -0.8594,-0.01 -1.5625,0.54338 -1.5625,1.23087 0,0.6875 1.5469,1.2414 3.4384,1.23086 2.6789,-0.0149 3.0237,-0.28665 1.5625,-1.23086 -1.0312,-0.66645 -2.5776,-1.22034 -3.4384,-1.23087 z m -2.8115,53.73087 c -2.286,2.9223 -3.2866,6.25 -1.8786,6.25 0.5596,0 4.0677,-7.2255 4.2486,-8.7497 0.041,-0.3437 -1.0259,0.7813 -2.3703,2.4997 z m -4.625,80.49997 c -1.0313,0 -1.875,0.5716 -1.875,1.2702 0,0.6986 -1.9688,2.2089 -4.374,3.3564 -4.4343,2.1143 -5.5676,4.4894 -2.9225,6.1239 0.8173,0.5051 2.408,-0.2825 3.6386,-1.8006 1.202,-1.4841 3.0382,-2.6989 4.0798,-2.6989 1.6368,0 2.6138,-1.6316 3.1829,-5.3131 0.08,-0.5156 -0.6987,-0.9375 -1.73,-0.9375 z m 3.375,-49.24997 c -1.4672,0 -1.4672,0.9608 0,4.3749 0.952,2.2146 1.0842,2.1086 1.1621,-0.9375 0.049,-1.8909 -0.4746,-3.438 -1.1621,-3.438 z m 0,-53.75 c -0.6875,0 -1.25,0.5625 -1.25,1.25 0,0.6875 0.5625,1.25 1.25,1.25 0.6875,0 1.25,-0.5625 1.25,-1.25 0,-0.6875 -0.5625,-1.25 -1.25,-1.25 z m 0,-79.99989 c -0.6875,0 -1.25,0.5625 -1.25,1.25 0,0.6875 0.5625,1.25 1.25,1.25 0.6875,0 1.25,-0.5625 1.25,-1.25 0,-0.6875 -0.5625,-1.25 -1.25,-1.25 z m -2.5005,141.24989 c -0.6875,0 -1.25,0.5957 -1.25,1.3238 0,0.7281 0.5625,0.9761 1.25,0.5512 0.6875,-0.4249 1.25,-1.0206 1.25,-1.3238 0,-0.3031 -0.5625,-0.5512 -1.25,-0.5512 z m -3.5976,13.7506 c -1.5695,0 -4.0244,3.21307 -3.1346,4.10267 0.8207,0.8207 4.1064,-1.666 4.1835,-3.16437 0.026,-0.5157 -0.4461,-0.9375 -1.0495,-0.9375 z m -2.58,-13.7506 c -1.4748,0 -3.0527,2.4381 -2.1571,3.3334 0.8953,0.8954 3.3323,-0.6822 3.3323,-2.1573 0,-0.6469 -0.5292,-1.1762 -1.1763,-1.1762 z m -0.074,-151.24997 c -0.6875,0 -1.25,0.5625 -1.25,1.25 0,0.6875 0.5625,1.25 1.25,1.25 0.6875,0 1.25,-0.5625 1.25,-1.25 0,-0.6875 -0.5625,-1.25 -1.25,-1.25 z m -3.1249,161.24997 c -3.3782,0 -3.7857,0.8314 -1.8322,3.7503 1.086,1.623 1.5035,1.5485 3.1057,-0.5514 2.4083,-3.1558 2.3915,-3.1988 -1.2737,-3.1988 z m 1.1225,-91.44732 c -2.0624,2.94379 -1.6882,4.83039 0.6693,3.37354 0.7333,-0.45319 1.3332,-2.04131 1.3332,-3.52825 l 0,-2.70456 z m -2.5029,29.28582 c -0.4154,0.4154 -0.4598,1.4941 -0.099,2.3952 0.399,0.9971 0.6953,0.701 0.7553,-0.7552 0.054,-1.3177 -0.2413,-2.0557 -0.6566,-1.6402 z m -1.1198,-44.5405 c -2.0961,-0.80438 -2.1996,-0.59827 -1.1162,2.22466 0.9371,2.44241 2.9924,2.60429 2.9924,0.23597 0,-0.95768 -0.8438,-2.06566 -1.8751,-2.46102 z m -0.625,101.077 c -0.6875,0.4249 -1.25,1.6159 -1.25,2.6473 0,1.0312 0.5625,1.527 1.25,1.1024 0.6875,-0.4249 1.25,-1.6158 1.25,-2.6472 0,-1.0313 -0.5625,-1.5271 -1.25,-1.1025 z m -1.25,-10.7265 c 0,-0.6313 -0.8437,-1.1478 -1.875,-1.1478 -2.7633,0 -2.2791,2.8965 0.8063,4.8232 2.3744,1.4827 2.5897,1.434 1.875,-0.4265 -0.4435,-1.1556 -0.8063,-2.6172 -0.8063,-3.2489 z m -2.3929,-139.95512 c -2.4523,1.31222 -3.6097,3.80758 -1.7679,3.80758 1.2482,0 5.5097,-4.06686 4.8996,-4.6771 -0.2891,-0.28909 -1.6987,0.10225 -3.1322,0.86964 z m 2.3929,-11.19212 c -0.6874,0 -1.25,1.72044 -1.25,3.82335 0,2.2304 0.5208,3.50245 1.25,3.05121 0.6875,-0.42489 1.25,-2.14587 1.25,-3.82334 0,-1.67746 -0.5625,-3.05122 -1.25,-3.05122 z m -2.1875,160.01914 c -0.5156,0.01 -1.7812,0.5644 -2.8115,1.2308 -1.5162,0.9799 -1.3367,1.2154 0.9375,1.2309 1.5469,0.01 2.8116,-0.5434 2.8116,-1.2309 0,-0.6875 -0.4219,-1.2414 -0.9375,-1.2308 z m -1.8405,-49.7182 c -0.8403,0.2801 -1.9093,1.8737 -2.3753,3.5411 -0.555,1.9854 -0.8904,2.2777 -0.972,0.8448 -0.1554,-2.726 -2.0999,-2.8578 -3.1154,-0.2102 -1.0658,2.7776 -0.9837,3.0225 1.0121,3.0225 0.9739,0 2.0076,0.7032 2.2967,1.5629 0.41,1.2181 0.984,1.1844 2.6041,-0.1531 2.4281,-2.0055 2.9008,-9.3914 0.5503,-8.6079 z m -0.9261,-64.12529 c -0.6274,1.01524 -1.4143,0.79855 -2.6572,-0.7315 -0.9705,-1.19578 -1.1205,-1.78775 -0.3331,-1.31635 0.7874,0.47179 1.7541,0.0172 2.1483,-1.01005 0.8425,-2.19603 -0.6104,-2.46248 -2.597,-0.47674 -1.738,1.73763 -4.1087,0.3879 -4.1087,-2.33927 0,-3.46235 -2.8501,0.36656 -3.2263,4.33475 -0.1821,1.91955 -0.7211,4.7559 -1.1979,6.30156 -0.7341,2.38081 -0.4026,2.812 2.1625,2.812 2.1718,0 3.3806,0.97334 4.2655,3.438 1.2193,3.38786 1.2483,3.39645 2.0121,0.57647 0.5243,-1.9353 0.019,-3.56548 -1.5637,-5.03952 -1.2861,-1.19828 -2.2445,-3.42655 -2.1296,-4.95215 0.2196,-2.91658 2.1769,-3.94798 2.1769,-1.14785 0,0.89375 0.6674,2.292 1.4828,3.10854 1.1441,1.14391 1.9946,1.02 3.7206,-0.54207 1.2306,-1.11375 1.8993,-2.57277 1.4857,-3.24175 -0.4623,-0.74812 -1.095,-0.66105 -1.6433,0.22624 z m -0.9741,-15.6641 c -0.8669,0.86685 0.8944,3.23887 2.4051,3.23887 0.8289,0 0.734,-0.71722 -0.252,-1.90522 -0.8696,-1.04785 -1.8385,-1.64738 -2.1531,-1.33315 z m 0.9282,110.11339 c -0.6875,-0.4249 -1.25,-0.1769 -1.25,0.5512 0,0.7281 0.5625,1.3238 1.25,1.3238 0.6876,0 1.25,-0.2481 1.25,-0.5512 0,-0.3032 -0.5624,-0.8989 -1.25,-1.3238 z m -1.4843,-101.47885 c -0.9972,0.39901 -0.701,0.69521 0.7552,0.7552 1.3176,0.0542 2.056,-0.24117 1.6406,-0.65654 -0.4153,-0.41535 -1.4934,-0.45975 -2.3958,-0.0986 z m 0.2343,39.6039 c -0.6875,0 -1.25,0.5625 -1.25,1.25 0,0.6875 0.5625,1.25 1.25,1.25 0.6875,0 1.25,-0.5625 1.25,-1.25 0,-0.6875 -0.5625,-1.25 -1.25,-1.25 z m -2.8597,-15.14068 c -1.0209,1.02084 -0.881,1.39064 0.526,1.39064 2.486,0 4.1667,-1.68033 2.3021,-2.30204 -0.7906,-0.26354 -2.0632,0.14663 -2.8284,0.91146 z m -1.0322,100.85313 c -2.0404,1.261 -1.137,3.0369 1.5446,3.0369 2.2078,0 2.3939,-0.3124 1.1084,-1.8608 -0.8495,-1.0237 -2.0434,-1.5528 -2.6524,-1.1762 z m -1.3641,-24.8238 c -1.2343,-1.2299 -2.2443,-3.0913 -2.2443,-4.1356 0,-1.0451 -0.5854,-1.5385 -1.3009,-1.0961 -0.7154,0.4422 -0.9588,1.8823 -0.5407,3.1987 0.418,1.3172 0.2066,2.3952 -0.47,2.3952 -0.6765,0 -1.4668,-0.7031 -1.7559,-1.5629 -0.4191,-1.2449 -0.9081,-1.2472 -2.4068,-0.011 -1.0344,0.8534 -2.2266,1.2058 -2.6499,0.7831 -0.4228,-0.4228 -1.7773,-0.38 -3.0093,0.095 -2.1524,0.8292 -2.152,0.9137 0.0113,2.1287 1.5309,0.8594 2.756,0.847 3.8242,-0.039 1.9565,-1.6245 5.7991,2.4309 5.7991,6.1196 0,1.6388 0.8379,2.4854 2.4618,2.4854 1.7526,0 2.2377,0.5815 1.6856,2.0198 -0.6526,1.7004 -0.3667,1.8021 1.8052,0.6394 1.4194,-0.7596 2.826,-2.09 3.125,-2.9581 0.7158,-2.0743 -1.5151,-7.2571 -4.333,-10.0634 z m -0.8758,8.3959 c -1.1038,-1.1038 -1.1674,-4.2846 -0.085,-4.2846 0.584,0 0.9789,1.1008 0.8775,2.4467 -0.10125,1.3455 -0.4578,2.1731 -0.7919,1.8393 z m 2.3815,6.9648 c -0.6875,0 -1.25,0.2481 -1.25,0.5512 0,0.3032 0.5625,0.8989 1.25,1.3238 0.6875,0.4249 1.25,0.1769 1.25,-0.5512 0,-0.7281 -0.5625,-1.3238 -1.25,-1.3238 z m 0.074,-26.25 c -1.8498,0 -2.8718,2.4181 -1.9922,4.7129 0.6911,1.8007 0.9651,1.8365 1.9666,0.2527 1.5091,-2.3866 1.5224,-4.9651 0.025,-4.9651 z m -1.2456,-26.0156 c -0.9375,-0.3125 -1.4063,0.1562 -1.0938,1.0937 0.3008,0.9024 1.2852,1.8866 2.1876,2.1875 0.9374,0.3125 1.4062,-0.1563 1.0937,-1.0938 -0.3007,-0.9023 -1.2851,-1.8866 -2.1875,-2.1874 z m -1.1667,4.2402 c -1.3402,-0.8283 -6.4116,3.4108 -6.4116,5.359 0,1.9052 2.1109,1.8035 3.0213,-0.1467 0.5823,-1.2476 0.8767,-1.246 1.4609,0.01 0.4025,0.8637 1.2463,1.2524 1.875,0.8638 1.4534,-0.8983 1.4919,-5.1957 0.055,-6.0839 z m -0.9202,48.7525 c -0.4172,-1.0874 -1.6828,-1.9682 -2.8115,-1.9582 -1.772,0.017 -1.7979,0.1809 -0.1893,1.198 1.4579,0.9216 1.535,1.5084 0.3535,2.6902 -1.1813,1.1814 -1.6855,1.0564 -2.3107,-0.573 -0.4399,-1.1462 -1.5364,-2.0842 -2.4378,-2.0842 -0.9004,0 -1.8486,-0.6348 -2.1072,-1.4106 -0.2586,-0.7758 -1.107,0.6644 -1.8853,3.2003 -1.2223,3.9823 -1.1299,4.7114 0.6785,5.3503 1.1515,0.4069 3.0792,1.5858 4.28,2.6187 2.0058,1.7232 2.1875,1.6029 2.1875,-1.4397 0,-2.4854 0.6277,-3.3191 2.5005,-3.3191 2.6138,0 3.0092,-0.9691 1.7412,-4.2732 z m -0.3575,-96.97717 c -0.614,0 -1.4234,0.80013 -1.7986,1.77773 -0.3753,0.97794 -1.9383,1.96254 -3.4722,2.18744 -1.5351,0.2252 -3.0478,1.19087 -3.3637,2.14587 -0.3472,1.0529 -0.016,1.39293 0.8396,0.86371 0.7767,-0.48001 1.4122,-0.27707 1.4122,0.45102 0,2.53552 2.5704,1.30162 3.7495,-1.80065 0.6535,-1.719 1.7645,-3.12429 2.4691,-3.12429 0.7046,0 1.281,-0.5625 1.281,-1.25 0,-0.6875 -0.5024,-1.25 -1.1163,-1.25 z m -1.3837,111.24997 c -0.6875,0 -1.25,0.8437 -1.25,1.8751 0,1.0312 0.5625,1.87507 1.25,1.87507 0.6875,0 1.25,-0.84367 1.25,-1.87507 0,-1.0313 -0.5625,-1.8751 -1.25,-1.8751 z m -0.7588,-90.52284 c -0.8216,-2.14159 -6.7418,-2.77905 -6.7418,-0.72724 0,0.6875 0.8437,1.25 1.875,1.25 1.0312,0 1.875,0.5625 1.875,1.25 0,0.6875 0.8437,1.25 1.875,1.25 2.1039,0 2.1883,-0.22892 1.1162,-3.02257 z m -1.7412,-23.22726 c -0.6875,0 -1.25,0.87693 -1.25,1.9482 0,1.07181 0.5625,1.60152 1.25,1.17621 0.6875,-0.4249 1.25,-1.30185 1.25,-1.9482 0,-0.64693 -0.5625,-1.17621 -1.25,-1.17621 z m -1.875,-23.74999 c -1.0313,0 -1.875,0.56249 -1.875,1.24999 0,0.6875 0.8437,1.25 1.875,1.25 1.0312,0 1.875,-0.5625 1.875,-1.25 0,-0.6875 -0.8438,-1.24999 -1.875,-1.24999 z m 0.074,61.24989 c -0.3031,0 -0.8988,0.5625 -1.3237,1.25 -0.4249,0.6875 -0.1769,1.25 0.5512,1.25 0.728,0 1.3238,-0.5625 1.3238,-1.25 0,-0.6875 -0.248,-1.25 -0.5513,-1.25 z m -1.9487,-68.74989 c -0.6875,0 -1.25,0.87695 -1.25,1.9482 0,1.07181 0.5625,1.60152 1.25,1.17621 0.6875,-0.42489 1.25,-1.30185 1.25,-1.9482 0,-0.64692 -0.5625,-1.17621 -1.25,-1.17621 z m -1.8013,143.74999 c -0.3031,0 -0.8988,0.5625 -1.3237,1.25 -0.4249,0.6875 -0.1769,1.25 0.5512,1.25 0.7281,0 1.3238,-0.5625 1.3238,-1.25 0,-0.6875 -0.2481,-1.25 -0.5513,-1.25 z m -3.4697,-38.9792 c -0.897,0.8969 -0.9708,1.4798 -0.1876,1.4798 1.6685,0 3.1467,-1.4784 2.3125,-2.3121 -0.3552,-0.3552 -1.3114,0.02 -2.1249,0.8333 z m 1.5208,-58.52075 c -0.6875,0 -1.25,0.5625 -1.25,1.25 0,0.6875 0.5625,1.25 1.25,1.25 0.6875,0 1.25,-0.5625 1.25,-1.25 0,-0.6875 -0.5625,-1.25 -1.25,-1.25 z m -1.1636,48.17835 c -0.64,-0.3955 -1.517,-0.1475 -1.9488,0.5512 -0.4318,0.6988 0.092,1.2704 1.1636,1.2704 2.1957,0 2.5198,-0.75 0.7852,-1.8221 z m -4.5029,83.64527 c -0.7333,0.4531 -1.3332,1.4221 -1.3332,2.153 0,0.8289 0.7173,0.7341 1.9052,-0.2519 2.0658,-1.7147 1.6048,-3.246 -0.572,-1.9009 z m 2.5418,-51.02567 c -1.0312,-0.3957 -1.875,-1.8622 -1.875,-3.2589 0,-2.961 -1.9062,-3.3893 -2.9513,-0.6643 -0.3958,1.0313 -1.5809,1.8752 -2.6331,1.8752 -3.342,0 -2.0647,3.4924 2.023,5.5309 2.949,1.4711 4.3596,1.613 5.6255,0.5635 2.1986,-1.825 2.137,-3.1544 -0.1873,-4.0469 z m 0.074,-17.0479 c -0.3032,0 -0.8989,0.5625 -1.3238,1.25 -0.4249,0.6875 -0.1768,1.25 0.5513,1.25 0.728,0 1.3237,-0.5625 1.3237,-1.25 0,-0.6875 -0.248,-1.25 -0.5512,-1.25 z m -1.454,-80.9114 c -0.4153,0.41536 -0.4598,1.49408 -0.099,2.39513 0.399,0.99717 0.6952,0.70098 0.7552,-0.75522 0.054,-1.3177 -0.2412,-2.05563 -0.6565,-1.6402 z m -1.7448,44.6614 c -0.6875,0 -1.25,0.5625 -1.25,1.25 0,0.6875 0.5625,1.25 1.25,1.25 0.6875,0 1.25,-0.5625 1.25,-1.25 0,-0.6875 -0.5625,-1.25 -1.25,-1.25 z m -1.875,-45.452 c -1.0312,0.39572 -1.875,1.2907 -1.875,1.98831 0,0.73164 0.7943,0.61014 1.875,-0.2868 1.0313,-0.85585 1.875,-1.7505 1.875,-1.9883 0,-0.238 -0.8437,-0.10888 -1.875,0.28679 z m 0.625,-5.17277 c -0.6875,-0.42488 -1.25,-0.17683 -1.25,0.55123 0,0.72809 0.5625,1.3238 1.25,1.3238 0.6875,0 1.25,-0.24806 1.25,-0.55124 0,-0.30316 -0.5625,-0.89887 -1.25,-1.32379 z m -2.1428,24.37499 c -0.884,0 -1.6072,1.125 -1.6072,2.49973 0,1.37498 0.7232,2.49971 1.6072,2.49971 0.8839,0 1.6071,-1.125 1.6071,-2.49971 0,-1.375 -0.7232,-2.49973 -1.6071,-2.49973 z m -0.4699,68.96028 c -0.062,-1.1469 -0.6566,-0.1955 -1.3213,2.1143 -1.2958,4.5024 -0.8376,5.9549 1.4361,4.5496 0.7801,-0.4821 1.0988,-1.7089 0.7081,-2.7274 -0.3906,-1.018 -0.7609,-2.7891 -0.8229,-3.9365 z m -2.3873,-89.58527 c -0.6875,-0.42491 -1.25,-0.17686 -1.25,0.55123 0,0.72807 0.5625,1.32377 1.25,1.32377 0.6875,0 1.25,-0.24805 1.25,-0.55122 0,-0.30318 -0.5625,-0.89888 -1.25,-1.32378 z m -1.25,102.49997 c -0.6875,-0.4249 -1.25,-0.1769 -1.25,0.5512 0,0.7281 0.5625,1.3238 1.25,1.3238 0.6875,0 1.25,-0.2481 1.25,-0.5513 0,-0.3031 -0.5625,-0.8988 -1.25,-1.3237 z m -0.625,-20.625 c -1.0312,0 -1.875,-0.6563 -1.875,-1.4583 0,-2.4252 -1.3206,-0.3152 -1.9399,3.0999 -0.7209,3.9752 1.0955,5.2745 3.7133,2.6559 2.4884,-2.4883 2.5318,-4.2975 0.10075,-4.2975 z m -3.219,13.9898 c -0.739,0.2463 -1.3437,0.9823 -1.3437,1.6359 0,0.6531 0.6047,1.389 1.3437,1.6359 0.7391,0.2464 1.3438,-0.4896 1.3438,-1.6359 0,-1.1458 -0.6047,-1.8823 -1.3438,-1.6359 z m 0.7925,-38.9897 c -1.3193,0 -1.8736,2.3995 -0.7191,3.1128 0.6987,0.4319 1.2704,-0.092 1.2704,-1.1636 0,-1.0718 -0.2481,-1.9482 -0.5513,-1.9482 z m -9.2206,5.0396 c -1.1345,-0.027 -1.3778,0.8352 -0.7822,2.7733 1.1731,3.8162 1.2178,3.8391 4.2993,2.1888 2.5993,-1.391 2.6162,-1.5213 0.4195,-3.1858 -1.2599,-0.9548 -3.0309,-1.7534 -3.9376,-1.7763 z m 3.8001,30.3678 c -0.6246,-0.9821 -1.4063,-0.4652 -2.3632,1.5629 -1.1071,2.3464 -1.0801,3.0297 0.11913,3.0297 2.9176,0 3.8942,-1.9983 2.2441,-4.5926 z m -1.5283,-47.9075 c -0.6875,0 -1.25,0.5293 -1.25,1.1762 0,0.6469 0.5625,1.5242 1.25,1.9482 0.6875,0.4249 1.25,-0.1043 1.25,-1.1762 0,-1.0718 -0.5625,-1.9482 -1.25,-1.9482 z m 0,-44.99997 c -0.6875,0 -1.25,0.5625 -1.25,1.25 0,0.6875 0.5625,1.25 1.25,1.25 0.6875,0 1.25,-0.5625 1.25,-1.25 0,-0.6875 -0.5625,-1.25 -1.25,-1.25 z m -3.8243,87.49997 c -1.4155,0 -2.2413,0.5379 -1.8349,1.1954 0.4063,0.6574 1.5645,0.8785 2.5728,0.4912 2.5849,-0.9915 2.2794,-1.686 -0.7388,-1.686 z m -0.4173,-7.501 c -2.0522,0 -3.6217,3.4008 -2.4474,5.3017 0.5163,0.8354 1.4434,0.4737 2.5028,-0.9767 2.1544,-2.9466 2.1362,-4.3261 -0.057,-4.3261 z m -2.5342,26.3317 c -1.4579,-1.2099 -1.656,-1.013 -1.1042,1.0969 0.3698,1.4143 1.1693,2.5714 1.7766,2.5714 1.6861,0 1.3161,-2.0184 -0.6724,-3.6687 z m 0.6004,-15.0817 c -0.6469,0 -3.5239,0.5625 -3.9488,1.25 -0.4249,0.6875 2.10438,1.25 3.1762,1.25 1.0719,0 1.9488,-0.5625 1.9488,-1.25 0,-0.6875 -0.5293,-1.25 -1.1762,-1.25 z m -2.5728,-15 c -0.6875,0 -1.25,0.5293 -1.25,1.1763 0,0.6469 0.5625,1.5241 1.25,1.9482 0.6875,0.4249 1.25,-0.1043 1.25,-1.1763 0,-1.0718 -0.5625,-1.9482 -1.25,-1.9482 z m -3.7495,-54.9999 c -1.5661,0 -1.5661,1.32655 0,3.75028 0.9799,1.51558 1.2154,1.33682 1.2309,-0.9375 0.01,-1.5471 -0.5434,-2.812 -1.2309,-2.812 z m -4.6778,24.2616 c -0.8669,0.8669 0.8944,3.2389 2.4051,3.2389 0.8289,0 0.734,-0.7172 -0.2519,-1.9052 -0.8696,-1.0479 -1.8386,-1.6474 -2.1532,-1.3332 z m -3.6809,24.8478 c -1.0209,1.0209 -0.881,1.3906 0.526,1.3906 2.486,0 2.1667,0.3197 0.3021,-0.302 -0.7906,-0.2635 -0.0633,-1.8534 -0.8284,-1.0885 z m -2.6417,8.8901 c -0.6875,0 -1.25,0.5625 -1.25,1.25 0,0.6875 0.5625,1.25 1.25,1.25 0.6875,0 1.25,-0.5625 1.25,-1.25 0,-0.6875 -0.5625,-1.25 -1.25,-1.25 z m -13.0041,-25.9115 c -0.4154,0.4154 -0.4598,1.4941 -0.099,2.3952 0.399,0.9971 0.6952,0.7009 0.7552,-0.7552 0.054,-1.3177 -0.2412,-2.0557 -0.6566,-1.6403 z m -9.25,-49.24993 c -0.4154,0.41538 -0.4598,1.4941 -0.099,2.39514 0.399,0.99716 0.6952,0.70099 0.7552,-0.75521 0.054,-1.31769 -0.2412,-2.05564 -0.6566,-1.64022 z"
       style="fill:#50453c;fill-opacity:1" />
  </g>
</svg>
