<?xml version="1.0" encoding="UTF-8" standalone="no"?>
<svg
   xmlns:dc="http://purl.org/dc/elements/1.1/"
   xmlns:cc="http://creativecommons.org/ns#"
   xmlns:rdf="http://www.w3.org/1999/02/22-rdf-syntax-ns#"
   xmlns:svg="http://www.w3.org/2000/svg"
   xmlns="http://www.w3.org/2000/svg"
   version="1.1"
   id="svg4205"
   viewBox="0 0 350.93871 356.60737"
   height="100.64252mm"
   width="99.042702mm">
  <defs
     id="defs4207" />
  <metadata
     id="metadata4210">
    <rdf:RDF>
      <cc:Work
         rdf:about="">
        <dc:format>image/svg+xml</dc:format>
        <dc:type
           rdf:resource="http://purl.org/dc/dcmitype/StillImage" />
        <dc:title></dc:title>
      </cc:Work>
    </rdf:RDF>
  </metadata>
  <g
     transform="translate(-236.69014,-332.45814)"
     id="layer1">
    <path
       id="path4173"
       d="m 587.07794,464.06227 c 0,1.4325 -0.6235,2.6215 -1.3855,2.6215 -5.87181,10.6445 -7.81035,8.30213 -13.06846,12.27163 -1.2987,1.39412 -3.506,2.89375 -4.9045,3.33775 -1.3982,0.44387 -2.5414,1.77637 -2.5414,2.951 0,2.93662 -10.87,13.15037 -16.2374,15.26475 -2.3988,0.94462 -7.8076,5.24287 -12.0201,9.569 -4.6706,4.78462 -8.6998,7.85012 -10.325,7.85012 -1.467,0 -2.6668,0.76575 -2.6668,1.70475 0,0.93563 -2.5173,4.412 -5.5965,7.70675 -4.6513,4.9995 -14.67389,9.19938 -13.96259,11.89238 0.4703,1.77637 -1.3073,4.02537 -1.5058,4.9995 -0.1986,0.97187 -1.8095,2.93662 -1.1354,4.36912 2.6114,5.55813 5.8604,10.41425 6.6827,18.20138 0.4704,4.455 1.7578,9.46875 2.8621,11.15912 1.4948,2.27763 3.6144,1.1945 2.4697,1.56688 -2.0074,0.66912 -1.9874,2.80775 0.026,2.80775 2.1444,0.0125 5.1879,7.67825 5.1879,10.91562 0,1.46113 2.8437,5.49538 3.875,6.52675 1.0312,1.03125 -2.125,1.56688 -2.125,3.644 0,2.07713 2.5625,2.11125 3.25,2.541 0.6875,0.42488 1.25,2.44963 1.25,4.48375 0,2.14875 0.7902,4.02538 1.875,4.44075 2.4426,0.937 2.3748,2.822 -0.2007,5.67275 -1.1416,1.26138 0.3265,2.69313 0.818,3.1945 0.4915,0.4915 -0.605,0.0825 0.007,-0.90912 1.6612,-2.69313 4.7271,-0.82663 5.3637,5.87325 0.6175,6.5035 -1.4055,9.6605 1.0733,11.25062 -2.01233,8.313 1.10545,3.82938 3.7096,8.06238 0.4487,1.20312 -0.14,2.93662 1.137,3.8535 1.5,1.07875 2.0517,2.52112 1.5606,4.06825 -0.5421,1.70462 2.61424,8.1855 4.10744,8.1855 1.3285,0 1.8352,0.67175 1.3873,1.83362 -0.3881,1.01138 0.1185,2.6645 1.1259,3.66725 1.0073,1.00713 1.3127,2.14875 0.6786,2.54975 -0.634,0.39188 -1.4098,0 -1.7239,-0.85787 -0.957,-2.63575 -3.82839,-3.98525 -4.27689,-0.2345 -0.2175,1.81937 1.0793,3.30912 0.4375,3.30912 -0.6418,0 0.833,1.40613 0.833,3.12288 0,1.719 0.66143,0.1855 -0.0261,0.1855 -1.29655,6.31387 -7.24371,4.901 -10.8118,1.70737 -2.744,-2.50687 -8.82388,-3.707 -8.82388,-4.53787 0,-0.84425 -0.4252,-1.53275 -0.9448,-1.53275 -0.5197,0 -1.7015,-1.70463 -2.6259,-3.79613 -1.234,-2.79337 -2.0901,-3.45237 -3.219,-2.52125 -1.0946,0.90838 -2.7681,0.342 -5.8111,-1.9625 -2.3509,-1.79062 -7.2627,-4.64125 -10.9157,-6.36025 -4.2921,-2.0055 -5.0626,-0.21162 -5.8294,-2.23137 -0.7753,-2.03413 -1.8366,-2.87938 -3.0574,-2.40663 -1.069,0.41013 -2.4957,-0.28462 -3.33,-1.61875 -0.8038,-1.28712 -2.1878,-2.06275 -3.0743,-1.719 -0.8877,0.34063 -3.178,-1.01537 -5.0902,-3.00825 -3.9255,-4.09687 -10.4817,-8.552 -11.9501,-8.12225 -1.5778,0.47 -6.6998,-1.55262 -11.1317,-5.406 -2.2583,-1.9625 -5.1794,-3.58125 -6.4911,-3.58125 -1.3121,0 -3.1201,-0.993 -4.0195,-2.20612 -0.8984,-1.21375 -3.1684,-2.87925 -5.0468,-3.71013 -2.3771,-1.0485 -3.178,-4.12012 -2.6379,-5.524 0.567,-1.47537 0.1401,-1.9195 -1.5871,-1.66162 -3.4433,0.51887 -17.68746,-4.7485 -18.49766,-6.85438 -0.8853,-2.30625 -3.2745,-2.37787 -3.2745,-0.0875 0,2.12013 -7.8438,8.27988 -10.542,8.27988 -1.0771,0 -1.9584,0.74575 -1.9584,1.66162 0,1.805 -5.1166,7.09088 -6.8576,7.09088 -0.589,0 -1.959,0.76025 -3.0454,1.69037 -1.0854,0.92913 -4.5042,3.03688 -7.5978,4.68425 -3.0937,1.64738 -7.0626,4.48375 -8.8204,6.303 -1.7579,1.81938 -5.41322,4.81325 -8.12589,6.64688 -2.71025,1.83362 -9.7101,7.76412 -15.55256,13.179 -20.24486,18.7615 -15.89897,14.1595 -20.87507,16.74237 -2.74883,1.42675 -6.2789,1.968 -7.84139,3.644 -2.64996,2.83638 -3.12725,9.27863 -10.96623,8.505 -11.04593,-1.092 -12.89053,0.9345 -12.01526,-8.86387 0.35125,-3.925 1.44709,-9.54038 2.43536,-12.49138 0.98812,-2.95087 1.79655,-6.13112 1.79655,-7.0765 0,-0.95 0.70313,-2.0485 1.56249,-2.44962 1.25003,-0.58325 1.25003,-0.87513 0,-1.46113 -2.18895,-1.0215 -1.95452,-6.70412 0.3125,-7.56362 1.03128,-0.39575 1.87501,-2.06275 1.87501,-3.71013 0,-1.64737 0.5625,-2.994 1.25,-2.994 0.68749,0 1.24999,-1.12487 1.24999,-2.50687 0,-1.37488 0.56253,-2.50688 1.25001,-2.50688 0.6875,0 1.25,-1.86225 1.25,-4.1255 0,-2.26337 0.675,-4.79887 1.49999,-5.62975 1.10864,-1.10862 1.13414,-1.86225 0.0976,-2.908 -1.74372,-1.74762 -0.68014,-4.84187 1.66106,-4.84187 0.9577,0 1.74126,-0.56238 1.74126,-1.25 0,-0.68738 -0.5625,-1.25 -1.24999,-1.25 -1.7887,0 -1.54872,-3.438 0.28252,-4.054 0.89125,-0.297 1.4006,-2.249 1.21725,-4.65563 -0.17342,-2.27762 0.55196,-5.45775 1.61195,-7.0765 1.51817,-2.32062 1.61831,-3.438 0.47173,-5.27162 -1.12866,-1.80488 -1.0645,-3.20875 0.28564,-6.26 0.95765,-2.16313 2.19956,-3.93938 2.76088,-3.93938 0.56025,0 0.70177,-0.51275 0.3145,-1.13925 -0.38729,-0.62675 0.0674,-2.73612 1.01033,-4.68425 5.05158,-10.45725 7.02157,-15.1645 7.757,-18.548 0.44794,-2.06287 -2.37132,-2.26012 -1.37656,-5.31125 2.11744,-6.51787 -6.67205,-11.3025 -9.86252,-11.3025 -2.05154,0 -10.64567,-6.919 -19.03923,-15.312 -1.88907,-1.89087 -4.61514,-3.438 -6.05706,-3.438 -1.49204,0 -2.62344,-0.804 -2.62344,-1.86225 0,-1.02537 -1.125,-2.56412 -2.50047,-3.42362 -1.37499,-0.85863 -2.50047,-2.20613 -2.50047,-2.97963 0,-1.34887 -3.51801,-3.1085 -9.63295,-4.8275 -1.51667,-0.42662 -4.15216,-2.43525 -5.85692,-4.45512 -1.70451,-2.01975 -3.69885,-3.6815 -4.42946,-3.6815 -0.73189,0 -1.3307,-0.65625 -1.3307,-1.46113 0,-0.80212 -0.34112,-1.11725 -0.75805,-0.70037 -0.41695,0.417 -1.92927,-0.333 -3.36128,-1.66163 -1.43146,-1.33375 -3.48184,-2.44962 -4.55485,-2.464 -2.3535,-0.05 -7.57615,-4.2115 -7.57615,-6.04512 0,-0.71788 -1.47544,-2.779 -3.2793,-4.584 -2.51494,-2.52113 -4.02679,-3.09413 -6.49832,-2.46388 -3.06257,-5.70137 -0.85535,-0.54737 -4.81165,-7.96237 -1.43364,-8.76975 0.56306,-13.494 8.39871,-10.54975 1.52834,0.62087 4.9569,-0.50638 4.9569,-1.86888 0,-1.07237 3.87449,3.211 4.66097,1.492 1.15892,-2.54987 2.1576,-3.05125 5.26858,-2.69312 2.11105,0.24587 4.01714,0.98475 4.23657,1.64737 0.21973,0.65925 3.21902,0.92425 6.6888,0.59075 3.858,-0.37062 5.45077,-3.98375 7.29055,-2.99887 2.14852,1.14987 3.45532,1.2265 4.6079,0.27 0.8849,-0.73438 3.54935,0.79912 5.92203,0.96337 2.37272,0.16438 5.74601,-0.4125 7.49657,-1.28187 16.57077,-3.00063 22.40923,0.29437 33.24728,-2.53888 2.8935,-3.12287 3.38781,-5.26612 5.31199,-3.53275 1.16726,1.04713 6.35321,2.86313 8.93085,3.35013 3.8363,0.71212 8.68746,-1.4955 8.68746,-3.14425 0,-1.10775 0.56252,-2.01988 1.25001,-2.01988 0.6875,0 1.25,-0.82387 1.25,-1.8335 0,-1.00712 3.16945,-4.464 4.59933,-5.22312 1.42931,-0.76513 -0.8292,-1.037 -0.12754,-3.0425 0.70042,-2.0055 1.81419,-3.65288 2.47395,-3.65288 0.66082,0 0.84705,-0.5735 0.41385,-1.2745 -1.25221,-2.01975 -0.22894,-10.54124 1.82572,-10.54124 1.28535,0 1.61965,-0.7645 1.0791,-2.46388 -0.43077,-1.35725 0.0559,-4.31187 1.08149,-6.56087 2.6789,-5.88763 7.78218,-15.68738 7.78218,-18.263 0,-1.21338 0.48987,-2.736 1.0886,-3.395 1.8347,-2.0055 2.75365,-7.86438 1.36617,-8.70963 -2.16569,-1.33837 3.944,-17.735 7.03956,-21.46525 0.6329,-0.76287 0.8293,-2.6215 0.4363,-4.12562 -0.4496,-1.719 -0.068,-2.97963 1.0305,-3.395 1.1709,-0.44925 1.7764,-2.85075 1.8407,-7.2915 0.11313,-7.82138 2.6113,-13.73763 6.0835,-14.3765 3.64828,-7.37988 9.31279,-11.12963 18.6513,-2.23938 0.944,1.81925 1.7163,4.13988 1.7163,5.157 0,1.01275 0.7735,2.47825 1.719,3.26613 0.9454,0.78462 2.0861,3.7245 2.5342,6.53212 0.4487,2.80775 1.8916,7.14825 3.207,9.66938 4.5669,8.70962 7.82063,14.18175 7.20103,16.55537 -0.3426,1.30988 -0.2179,2.378 0.2771,2.378 0.4949,0 2.08707,4.7845 5.13247,10.62913 3.0454,5.84462 6.2452,10.62912 7.1084,10.62912 0.8628,0 1.5688,0.99163 1.5688,2.20613 0,1.212 2.22824,7.6605 3.75444,8.33375 4.959,5.94012 1.9469,7.61237 3.25956,13.22537 0.9974,0 2.1767,0.98438 2.6211,2.19175 0.4439,1.20313 1.2064,2.46388 1.6945,2.80763 1.0031,0.7065 5.365,7.79287 7.6967,12.50574 0.851,1.719 2.0526,3.481 2.6693,3.925 0.6177,0.43888 0.7759,1.35938 0.3517,2.0485 -1.5271,2.46388 2.8694,4.36913 8.6226,3.71025 5.0178,-0.56562 5.5724,-0.38462 4.9383,1.60438 -0.5617,1.77625 -0.1799,2.10575 1.7972,1.59 1.3807,-0.36113 3.1611,-1.4325 3.9544,-2.39225 1.8937,-2.27763 5.8401,-2.22038 8.191,0.13512 2.5994,2.59275 5.4471,4.34925 5.4471,1.51413 0,-1.70475 1.2025,-0.59288 4.2992,-1.16588 4.7719,-0.89512 20.6186,-1.65 22.5741,-0.22375 2.7899,2.03425 8.519,0.63588 9.5317,-0.9855 0.8024,-1.28862 1.5279,-1.319 3.4264,-0.14275 2.3134,1.4325 17.7709,1.239 20.187,-0.25375 0.5821,-0.35975 1.3826,-0.1295 1.779,0.51175 0.3962,0.64125 2.7319,1.00625 5.189,0.81138 2.8935,-0.2295 4.6995,0.24825 5.1239,1.35437 0.7869,2.0485 10.01255,1.63925 10.01255,-0.34662 0,-1.00025 0.4606,-1.02075 1.6043,-0.0713 0.8825,0.7325 2.3252,0.88637 3.207,0.342 4.90248,4.67512 2.8286,2.73662 2.69155,8.37537 z m -89.47845,90.2745 c -3.0454,0 -2.6162,2.92238 0.5202,3.524 1.2335,0.23925 2.0839,-0.39837 2.0839,-1.5615 0,-1.1595 -1.0687,-1.9625 -2.6041,-1.9625 z m -12.1519,-27.911 c -0.4154,0.41538 -0.4598,1.48975 -0.099,2.39225 0.3991,0.99713 0.6953,0.701 0.7552,-0.75525 0.054,-1.31762 -0.2411,-2.06275 -0.6565,-1.64737 z m -8.5455,74.66188 c -2.609,0 -5.8122,0.59287 -3.7964,1.86775 2.6765,1.69037 5.5976,3.34325 5.5976,0.62937 0,-1.37487 -0.8106,-2.50687 -1.8013,-2.50687 z m -6.9492,-33.12513 c -0.6875,-0.42487 -1.25,-0.17675 -1.25,0.55125 0,0.72813 0.5625,1.32375 1.25,1.32375 0.6875,0 1.25,-0.248 1.25,-0.55125 0,-0.30312 -0.5625,-0.89887 -1.25,-1.32375 z m -4.1208,-22.00462 c -1.6044,1.60437 -0.3644,3.23737 1.5574,2.0485 0.7445,-0.46013 0.9997,-1.40925 0.5671,-2.10588 -0.5276,-0.85375 -1.2268,-0.83212 -2.1245,0.065 z m -2.056,72.62912 c -1.4748,0 -3.0526,4.43525 -2.1571,5.33775 0.8954,0.89538 3.3323,-2.68225 3.3323,-4.163 0,-0.647 -0.5293,-1.17625 -1.1762,-1.17625 z m -28.1988,-97.50025 c -1.7188,0 -3.125,0.51663 -3.125,1.14775 0,0.63125 -0.3414,2.03413 -0.7588,3.12288 -0.4978,1.2975 -0.068,1.97687 1.25,1.97687 1.1048,0 2.0088,-0.56262 2.0088,-1.25 0,-0.6875 0.8437,-1.25 1.875,-1.25 1.0312,0 1.875,-0.84375 1.875,-1.87662 0,-1.16663 -1.1806,-1.87663 -3.125,-1.87663 z m -1.738,-69.06225 c -0.075,-0.5155 -0.7698,-0.93737 -1.5433,-0.93737 -1.573,0 -0.5426,7.30575 1.2889,9.13937 0.8881,0.888 1.0096,-3.02262 0.2544,-8.194 z m -12.77,65.312 c -0.6139,0 -1.1162,0.84375 -1.1162,1.87663 0,1.03125 0.8261,1.8765 1.8357,1.8765 1.1183,0 1.5546,-0.73288 1.1163,-1.8765 -0.3957,-1.03125 -1.2218,-1.87663 -1.8358,-1.87663 z m -32.6251,71.50038 c -1.0597,-0.20563 -2.2919,0.578 -2.7392,1.74762 -1.0676,2.77913 -0.2737,3.42375 2.9706,2.39225 2.9393,-0.93312 2.7923,-3.53825 -0.2334,-4.1255 z m -6.7636,-91.50088 c -1.0312,0 -1.5274,0.5625 -1.1024,1.25 0.4248,0.68738 1.6162,1.25 2.6475,1.25 1.0312,0 1.5274,-0.56262 1.1025,-1.25 -0.4249,-0.6875 -1.6163,-1.25 -2.6476,-1.25 z m -8.13073,-23.7495 c -1.29084,0 -2.34697,0.56263 -2.34697,1.25 0,0.6875 0.79689,1.25 1.77084,1.25 0.97396,0 1.99154,0.66213 2.26128,1.4755 0.27432,0.823 1.17321,1.04925 2.03986,0.51375 2.11272,-1.30575 -0.52786,-4.48375 -3.72538,-4.48375 z m -29.39819,8.9995 c -0.30319,0 -0.89889,0.5625 -1.32376,1.25 -0.42492,0.68738 -0.17684,1.25 0.55121,1.25 0.72807,0 1.32377,-0.56262 1.32377,-1.25 0,-0.6875 -0.24805,-1.25 -0.55122,-1.25 z m -7.19758,1 c -1.16666,1.16663 -0.83332,1.50413 1.50003,1.50413 2.33334,0 2.66684,-0.33338 1.49999,-1.50413 -1.16667,-1.16662 -1.83335,-1.16662 -2.9996,0 z m -0.54278,106.2495 c -1.6276,0 -2.71025,1.48975 -1.96299,2.69313 0.799,1.29262 3.00442,0.178 3.00442,-1.5185 0,-0.64688 -0.46875,-1.17625 -1.04166,-1.17625 z m -4.42948,13.752 c -0.25954,0 -1.17217,0.84375 -2.02805,1.8765 -1.27444,1.53288 -1.18904,1.87663 0.47195,1.87663 1.11543,0 2.02806,-0.84375 2.02806,-1.87663 0,-1.03125 -0.21238,-1.8765 -0.47196,-1.8765 z m -14.52777,26.2505 c -0.68749,0 -1.24999,0.56263 -1.24999,1.25 0,0.68763 0.5625,1.25 1.24999,1.25 0.6875,0 1.24998,-0.56237 1.24998,-1.25 0,-0.68737 -0.56248,-1.25 -1.24998,-1.25 z M 300.76658,510.10727 c -0.51561,0.0125 -1.78126,0.5645 -2.81151,1.23088 -1.5162,0.97975 -1.3368,1.21525 0.9375,1.23075 1.54689,0.0125 2.81151,-0.54338 2.81151,-1.23075 0,-0.6875 -0.42187,-1.2415 -0.9375,-1.23088 z"
       style="fill:#50453c;fill-opacity:1" />
  </g>
</svg>
