<?xml version="1.0" encoding="UTF-8" standalone="no"?>
<svg
   xmlns:dc="http://purl.org/dc/elements/1.1/"
   xmlns:cc="http://creativecommons.org/ns#"
   xmlns:rdf="http://www.w3.org/1999/02/22-rdf-syntax-ns#"
   xmlns:svg="http://www.w3.org/2000/svg"
   xmlns="http://www.w3.org/2000/svg"
   xmlns:sodipodi="http://sodipodi.sourceforge.net/DTD/sodipodi-0.dtd"
   xmlns:inkscape="http://www.inkscape.org/namespaces/inkscape"
   width="112.81388mm"
   height="103.67213mm"
   viewBox="0 0 399.73422 367.34218"
   id="svg4778"
   version="1.1"
   inkscape:version="0.91 r13725"
   sodipodi:docname="starOneLight.svg">
  <sodipodi:namedview
     pagecolor="#ffffff"
     bordercolor="#666666"
     borderopacity="1"
     objecttolerance="10"
     gridtolerance="10"
     guidetolerance="10"
     inkscape:pageopacity="0"
     inkscape:pageshadow="2"
     inkscape:window-width="1127"
     inkscape:window-height="729"
     id="namedview4714"
     showgrid="false"
     inkscape:zoom="0.11357068"
     inkscape:cx="-1207.8238"
     inkscape:cy="926.36722"
     inkscape:window-x="0"
     inkscape:window-y="0"
     inkscape:window-maximized="0"
     inkscape:current-layer="svg4778" />
  <defs
     id="defs4780" />
  <metadata
     id="metadata4783">
    <rdf:RDF>
      <cc:Work
         rdf:about="">
        <dc:format>image/svg+xml</dc:format>
        <dc:type
           rdf:resource="http://purl.org/dc/dcmitype/StillImage" />
        <dc:title />
      </cc:Work>
    </rdf:RDF>
  </metadata>
  <g
     id="layer1"
     transform="translate(-201.20929,-528.0465)">
    <path
       style="fill:#ffffff;fill-opacity:1"
       d="m 600.33725,660.69053 c -0.7077,2.70886 -2.1215,2.77619 -4.673,0.22323 -1.0804,-1.08035 -1.9642,-1.72618 -1.9642,-1.4368 0,1.85508 3.1442,9.18518 4.2679,9.94441 0.7467,0.5051 -0.1891,0.92696 -2.0798,0.9375 -1.8906,0.01 -3.4384,0.65775 -3.4384,1.43822 0,1.96253 -5.9823,7.33154 -8.1693,7.33154 -0.9844,0 -4.4705,2.49541 -7.7474,5.54378 -8.531,7.93748 -16.3483,13.34803 -17.2284,11.92412 -1.22,-1.97397 -2.7657,-1.4027 -3.4673,1.2815 -0.3913,1.49554 -1.7052,2.49976 -3.2721,2.49976 -1.4394,0 -2.6162,0.6182 -2.6162,1.3739 0,2.0915 -9.8682,15.25927 -13.1933,16.29777 -1.6118,0.5036 -4.4825,2.527 -6.3778,4.4966 -1.8966,1.9697 -4.5693,3.5813 -5.9365,3.5813 -1.369,0 -2.4884,0.7457 -2.4884,1.6574 0,2.7246 -5.6351,7.2499 -7.9306,6.3689 -1.3117,-0.5034 -2.0693,-0.1605 -2.0693,0.9365 0,0.9518 -0.8613,2.9596 -1.9139,4.4637 -1.5721,2.2447 -2.4643,2.5226 -5.0009,1.5585 -2.4161,-0.919 -3.0864,-0.7735 -3.0864,0.6708 0,1.0142 0.8437,1.8436 1.875,1.8436 1.8457,0 2.7632,2.4739 0.9375,2.5283 -0.5157,0.015 -4.2803,-0.9397 -5.9207,0.3221 l -2.9827,2.2949 0.1685,6.1153 c 1.1926,3.3635 1.301,8.3658 2.685,11.1148 2.9104,5.783 7.1639,17.9151 7.2097,20.5567 0.017,0.9936 1.405,3.24307 3.084,4.99937 2.1531,2.2519 3.4408,5.6197 4.3643,11.4184 0.7211,4.5239 2.1832,9.9731 3.248,12.1104 1.0657,2.1359 4.4305,6.8717 5.0309,10.5246 0.6018,3.6514 1.7151,8.2555 2.474,10.2295 0.9815,2.5527 0.9936,4.0554 0.043,5.2014 -0.9294,1.1199 -0.9377,1.8594 -0.027,2.4223 0.7208,0.4455 1.3107,2.2089 1.3107,3.9179 0,1.709 1.3501,4.458 2.9996,6.1082 2.4016,2.4023 3.125,4.6972 3.6217,11.5058 0.3415,4.6786 3.0044,9.4488 3.4733,10.6005 0.5731,1.4093 -0.4084,3.4151 -2.9972,6.1225 -2.1167,2.2147 -3.8484,4.5697 -3.8484,5.2344 0,1.7405 -11.4534,-4.173 -13.8478,-6.3135 -1.0854,-0.9701 -2.9465,-1.7634 -4.1377,-1.7634 -3.096,0 -14.0696,-5.4605 -15.8395,-8.7667 -0.822,-1.5356 -2.8284,-3.1271 -4.4584,-3.5368 -1.891,-0.4746 -2.9658,0.3454 -2.9658,-1.259 0,-1.3834 -0.9844,-2.8177 -2.1875,-3.1858 -5.6665,-1.7362 -12.9653,-5.6942 -13.6115,-7.3788 -0.395,-1.0294 -1.9237,-1.9124 -3.3975,-1.9626 -3.8363,-0.1308 -9.9705,-3.9737 -11.4004,-7.141 -1.033,-2.2905 -1.9262,-2.5942 -5.8087,-1.9725 -4.3185,0.6906 -4.6368,0.5112 -5.4229,-3.0742 -0.6361,-2.8965 -1.71086,-3.9995 -4.48966,-4.6098 -2.0098,-0.4414 -3.9762,-1.3218 -4.3668,-1.9568 -0.3922,-0.6346 -1.755,-1.1538 -3.0285,-1.1538 -1.2734,0 -3.7833,-1.7462 -5.5797,-3.8792 -2.5342,-3.0125 -3.6409,-3.5669 -4.9527,-2.4782 -2.18,1.8092 -5.3409,0.5782 -6.1149,-2.3823 -0.3741,-1.4304 -1.9752,-2.4739 -4.1859,-2.726 -1.969,-0.2251 -7.4602,-3.0471 -7.3155,-3.8264 0.1943,-1.0425 -1.1069,-1.0694 -4.9189,-0.1016 -3.6097,0.9162 -7.106,3.2833 -11.5138,7.7957 -5.3746,5.5008 -7.2313,6.5981 -12.2998,7.2699 -5.5386,0.7333 -11.6744,8.3847 -16.2534,12.3642 -1.0854,0.9431 -2.8525,1.7147 -3.9279,1.7147 -1.0754,0 -2.2484,0.7638 -2.6066,1.6975 -0.3581,0.9335 -2.3192,2.0313 -4.3571,2.4381 -3.8966,0.7794 -7.9148,2.4009 -11.0084,7.2413 -3.1853,4.9837 -18.3617,16.7635 -26.9197,22.4409 -2.7247,1.8078 -4.2186,4.4293 -5.7618,5.8231 -1.5442,1.3944 -3.1901,2.153 -3.6579,1.6861 -0.4673,-0.4674 -2.1407,0.3632 -3.7181,1.845 -1.7064,1.603 -7.0371,4.908 -10.2176,5.2217 -4.57586,0.7371 -8.15968,0.8605 -10.3495,-4.6439 0.4364,-1.375 0.2587,-2.4998 -0.3949,-2.4998 -2.2493,0 -2.609,-5.4463 -0.611,-9.2826 4.8369,-9.2912 5.3819,-10.6248 5.3819,-13.1804 0,-1.4869 -0.6863,-6.4937 0.92,-8.6826 4.4512,-6.0666 7.4074,-15.3707 7.9885,-25.147 0.2894,-4.8576 3.337,-8.483 4.3279,-10.5 1.1039,-2.2476 1.3537,-4.1155 0.6451,-4.8246 -1.3727,-1.3727 -0.057,-6.1326 4.9093,-17.7571 0.881,-2.0628 1.7886,-7.6453 2.0169,-12.40547 0.3145,-6.558 1.024,-9.3027 2.9297,-11.3311 1.8,-1.9167 0.5149,-4.3849 0.5149,-8.6967 l 0,-6.0208 -4.2775,0.6942 c -3.0382,0.4931 -0.4753,-1.8214 -0.96,-3.0865 -0.3758,-0.9793 -1.5447,-1.7806 -2.5969,-1.7806 -1.0528,0 0.0857,-0.5625 0.0857,-1.25 0,-0.6875 -1.3981,-1.25 -3.1057,-1.25 -4.0919,0 -14.1423,-7.4089 -14.1423,-9.5662 0,-0.9262 -1.0648,-1.6846 -2.3662,-1.6846 -1.3015,0 -2.691,-0.8438 -3.0864,-1.8752 -0.3957,-1.0312 -1.5184,-1.8751 -2.4957,-1.8751 -0.9764,0 -1.6972,-0.9844 -1.6017,-2.1875 0.1215,-1.5299 -0.6305,-2.1057 -2.5029,-1.9138 -1.7528,0.1793 -2.8983,-0.5759 -3.3203,-2.1874 -0.3903,-1.4927 -1.7091,-2.461 -3.3516,-2.461 -3.8074,0 -13.5102,-5.9406 -14.4289,-8.8357 -0.4216,-1.3281 -1.8406,-2.4152 -3.1539,-2.4152 -1.3129,0 -3.3083,-1.4062 -4.4343,-3.1257 -1.3939,-2.1273 -3.1877,-3.1243 -5.6207,-3.1243 -2.6716,0 -6.0436,-0.9066 -7.4301,-3.5913 -1.0214,-1.97539 -3.0044,-3.89059 -4.4078,-4.25739 -1.4999,-0.3922 -4.5511,0.2982 -4.5511,-1.1801 0,-1.3821 -0.5874,-2.7089 -1.3055,-2.9481 -0.718,-0.2394 -1.3917,-1.57861 -1.497,-2.97673 -0.1538,-2.04275 -0.8794,-2.43955 -3.694,-2.027 -2.5149,0.3691 -3.5035,-0.0171 -3.5035,-1.369 0,-1.03571 -4.8438,-2.20747 -5.8751,-2.60285 -1.0312,-0.3957 -1.8749,-1.7763 -1.8749,-3.06697 0,-3.50963 3.6916,-10.23093 5.6206,-10.23093 0.9281,0 3.3589,-1.40625 5.4012,-3.1257 4.2221,-3.5526 4.9647,-3.6801 9.8331,-1.68032 4.726,1.94102 7.2096,1.50555 15.907,-2.79338 8.1331,-4.0196 10.3442,-4.3462 15.0172,-2.21751 2.4306,1.10786 3.5832,1.07135 5.0685,-0.16061 1.4085,-1.16899 4.5548,-1.36466 11.791,-0.73338 5.7074,0.4979 10.1707,0.37437 10.583,-0.29292 0.3922,-0.63468 3.3998,-1.84793 6.684,-2.6974 3.2841,-0.84898 6.8142,0.14205 7.8438,-0.24186 1.0312,-0.38384 3.5614,-0.87527 5.6254,-1.09204 2.0625,-0.21678 6.2813,-0.67873 9.3749,-1.02654 3.0937,-0.34784 8.7191,-0.90867 12.5,-1.24631 10.5492,-0.94205 15.1354,-4.09145 15.8588,-5.97375 0.3627,-0.94523 1.443,-1.719 2.4007,-1.719 1.2232,0 1.7413,-1.62875 1.7413,-5.47215 0,-3.33916 0.7308,-6.0781 1.875,-7.02785 1.0312,-0.85586 1.875,-2.33068 1.875,-3.27756 0,-0.94708 1.1316,-1.72187 2.5149,-1.72187 2.2381,0 2.4257,-0.55575 1.707,-5.05242 -0.633,-3.958 -0.3465,-5.38906 1.3235,-6.60955 1.1721,-0.85714 1.9891,-2.10005 1.8155,-2.76043 -0.1736,-0.66123 0.3349,-3.42368 1.1299,-6.1397 1.1854,-4.04825 1.1182,-5.29881 -0.3732,-6.9462 -1.6041,-1.772 -1.4956,-2.4109 0.9197,-5.41341 1.9942,-2.47822 2.6403,-4.75017 2.3804,-8.36007 -0.3136,-4.3419 0.045,-5.11117 2.891,-6.19269 2.6283,-0.9993 3.1057,-1.81068 2.4933,-4.2445 -0.4153,-1.65454 -0.1455,-3.385 0.5995,-3.84626 2.2175,-1.37049 6.7925,-12.31664 6.5513,-15.67213 -0.1355,-1.87944 0.7995,-3.8835 2.3617,-5.06245 2.4377,-1.8379 3.7205,-5.32031 6.1197,-16.61442 0.5596,-2.63294 1.6473,-5.41772 2.4161,-6.18697 0.7697,-0.76971 1.20735,-2.15625 2.29705,-3.71385 1.38712,-1.98275 1.33768,-1.83223 3.02418,-2.7347 3.518,-1.88231 6.7761,-2.42936 8.59177,-0.87451 2.06459,1.48969 1.93793,2.88089 2.47472,3.43226 1.5469,0.68602 1.26118,2.07582 1.26118,3.28772 0,1.34463 0.9416,2.20318 2.4161,2.20318 1.4275,0 2.7536,1.15059 3.2407,2.812 0.4536,1.5471 1.8738,5.06245 3.1563,7.81285 1.282,2.7504 2.7054,7.38024 3.166,10.28965 0.459,2.9094 1.3268,4.9851 1.9284,4.61408 0.6016,-0.37183 1.0939,0.2009 1.0939,1.27272 0,1.07183 0.5625,1.9482 1.25,1.9482 0.6875,0 1.25,0.64112 1.25,1.4247 0,0.78357 0.885,2.07139 1.9667,2.86213 1.5423,1.12772 6.3922,15.62342 8.4611,25.29065 0.1711,0.79922 2.1135,3.29617 4.3161,5.5495 2.2029,2.25332 2.0051,5.39622 2.0051,6.98487 0,1.62015 0.7562,2.88792 1.722,2.88792 2.5029,0 5.2179,3.74742 4.7429,6.54938 -0.2251,1.32834 0.4089,3.35063 1.4088,4.4952 1,1.14418 2.5559,4.16857 3.4553,6.71985 0.90076,2.55272 2.93926,6.04372 4.52836,7.75842 1.59,1.71471 2.8911,4.22873 2.8911,5.58675 0,3.36065 8.3537,7.63953 13.3449,7.63953 2.246,0 5.1722,0.98437 6.5008,2.18742 1.6108,1.45828 4.5886,2.22038 8.9312,2.28341 3.5832,0.0531 7.106,0.46174 7.827,0.90802 0.7221,0.44628 2.2084,-0.17805 3.3034,-1.38741 1.6224,-1.79206 3.6723,-2.12869 11.1038,-1.82071 14.7592,0.61175 16.2349,0.49452 18.3978,-1.46258 1.2058,-1.0912 3.207,-1.5643 4.8273,-1.1409 2.7537,0.72015 3.8966,2.93233 1.5164,2.93233 -0.6875,0 -1.25,1.42604 -1.25,3.16869 0,2.78191 0.3056,3.00538 2.5005,1.83073 1.375,-0.73587 2.5004,-2.16165 2.5004,-3.1687 0,-1.98543 1.7298,-2.20031 5.5821,-0.6946 1.5875,0.62064 3.8001,0.17328 6.2499,-1.2638 2.7778,-1.62875 6.8046,-2.28055 15.0414,-2.43382 17.9952,-0.33439 25.4746,0.0561 26.2882,1.37257 0.4177,0.67605 1.3133,0.88702 1.9899,0.46884 0.6766,-0.41819 3.5059,-1.02175 6.2861,-1.34122 6.9396,-0.79717 9.5968,2.61145 7.6991,9.87278 z m -84.0646,-2.81199 c -0.6469,0 -1.5239,0.5625 -1.9487,1.25 -0.4249,0.6875 0.1038,1.24999 1.1762,1.24999 1.0717,0 1.9488,-0.56249 1.9488,-1.24999 0,-0.6875 -0.5293,-1.25 -1.1763,-1.25 z m -5.8872,72.03922 c -1.7789,0.045 -6.5176,6.0466 -5.5435,7.0207 0.3517,0.3516 2.0944,-0.3141 3.8725,-1.4798 3.3613,-2.2032 4.3885,-5.6097 1.671,-5.5424 z m -12.2636,3.7517 c -2.5559,1.3672 -3.2962,3.7087 -1.1741,3.7087 0.6875,0 1.25,-0.5625 1.25,-1.25 0,-0.6875 0.877,-1.25 1.9487,-1.25 1.0719,0 1.6003,-0.564 1.1741,-1.2534 -0.5151,-0.8335 -1.5866,-0.8187 -3.1997,0.044 z m -7.3374,12.5745 c -1.4587,0.3814 -4.1428,1.3369 -3.729,2.4152 0.5251,1.3686 1.0868,1.4497 2.4136,0.3488 2.4836,-2.0628 4.1288,-3.4996 1.3155,-2.7633 z m -6.3522,103.17127 c -2.2498,-0.75 0.2229,1.8336 2.4952,2.7059 1.2173,0.4672 1.7887,0.1878 1.4843,-0.7256 -0.2723,-0.8169 -3.1631,-1.7075 -3.9795,-1.9797 z m -0.3081,-92.78647 c -0.647,0 -1.1762,0.8437 -1.1762,1.8751 0,1.9325 1.475,2.484 2.8814,1.0757 0.9987,-0.9987 -0.1301,-2.951 -1.7064,-2.951 z m 3.3238,-81.24994 c -0.6876,0 -1.25,0.24805 -1.25,0.55122 0,0.30318 0.5624,0.89888 1.25,1.32378 0.6875,0.4249 1.25,0.17685 1.25,-0.55123 0,-0.72807 -0.5625,-1.32377 -1.25,-1.32377 z m -9.9609,74.72744 c -2.0404,0.2995 -4.4319,1.4204 -5.312,2.4912 -1.4095,1.7118 -1.1515,1.8336 2.1403,1.0135 3.1394,-0.7827 6.8817,-2.845 6.8817,-3.7933 0,-0.1405 -1.6694,-0.01 -3.7109,0.2891 z m -0.04,15.2725 c -0.6875,0 -1.25,0.5957 -1.25,1.3238 0,0.728 0.5625,0.9761 1.25,0.5512 0.6874,-0.4249 1.2499,-1.0206 1.2499,-1.3238 0,-0.3032 -0.5625,-0.5512 -1.2499,-0.5512 z m -3.125,13.7506 c -1.0313,0 -1.875,0.8437 -1.875,1.8751 0,1.9525 1.4783,2.4797 2.9176,1.0417 1.4384,-1.4383 0.9104,-2.9166 -1.0416,-2.9166 z m -1.1962,-18.3187 c -1.0608,0.4071 -1.9288,1.6889 -1.9288,2.8478 0,1.9238 0.2192,1.9095 2.5077,-0.1614 2.7488,-2.4869 2.4546,-3.8506 -0.5788,-2.6874 z m -1.4061,-93.69005 c -1.0875,0.4173 -3.055,0.75872 -4.374,0.75872 -2.6548,0 -3.1033,2.59569 -1.0976,6.34311 1.2441,2.32495 1.4306,2.28054 4.3354,-1.01967 3.5012,-3.97663 4.1064,-7.22266 1.1371,-6.0824 z m 0.013,-9.24107 c -0.9512,0 -4.2848,3.36924 -4.2848,4.32902 0,0.41705 1.125,0.15616 2.5005,-0.5797 2.2855,-1.22319 3.4891,-3.75029 1.7857,-3.75029 z m -1.5774,26.24999 c -1.6276,0 -2.7102,1.4855 -1.963,2.69454 0.799,1.29276 3.0045,0.17806 3.0045,-1.51845 0,-0.64694 -0.4688,-1.17624 -1.0417,-1.17624 z m -9.3387,71.48433 c -3.5928,0.511 -4.4223,5.5967 -1.2868,7.8887 1.7547,1.2831 2.6934,1.332 4.0533,0.2112 1.3578,-1.1198 1.8917,-1.0958 2.2953,0.1033 0.2891,0.8594 0.9904,1.5629 1.5582,1.5629 0.5678,0 -0.071,-2.2849 -1.4211,-5.0782 -1.9147,-3.9638 -3.0574,-4.9923 -5.1986,-4.6872 z m 5.3795,-72.73433 c -0.6875,0 -1.25,0.5957 -1.25,1.32378 0,0.72807 0.5625,0.97613 1.25,0.55122 0.6875,-0.4249 1.25,-1.0206 1.25,-1.32377 0,-0.30318 -0.5625,-0.55123 -1.25,-0.55123 z m -3.5373,92.35613 c -1.258,-1.6402 -2.7296,-4.1056 -3.2697,-5.4808 -0.5409,-1.375 -1.2246,-1.8608 -1.5196,-1.0795 -0.6601,1.7491 4.6561,14.2047 6.0619,14.2047 1.8297,0 1.0647,-4.5984 -1.2715,-7.6439 z m -3.9617,60.14387 c -0.6875,0 -1.25,0.877 -1.25,1.9482 0,1.0718 0.5625,1.6016 1.25,1.1762 0.6875,-0.4248 1.25,-1.3018 1.25,-1.9482 0,-0.6469 -0.5625,-1.1762 -1.25,-1.1762 z m -1.25,-10.0003 c -0.6875,0 -1.25,0.5625 -1.25,1.25 0,0.6875 0.5625,1.25 1.25,1.25 0.6875,0 1.25,-0.5625 1.25,-1.25 0,-0.6875 -0.5625,-1.25 -1.25,-1.25 z m -2.5005,-6.25 c -0.6875,0 -1.25,0.5625 -1.25,1.25 0,0.6875 0.5625,1.25 1.25,1.25 0.6875,0 1.25,-0.5625 1.25,-1.25 0,-0.6875 -0.5625,-1.25 -1.25,-1.25 z m 0.4848,-49.60097 c -0.4021,-1.4998 -1.4558,-3.0039 -2.3415,-3.3434 -1.0899,-0.4183 -1.4021,0.1782 -0.966,1.845 0.3926,1.5013 -0.2245,3.0985 -1.5809,4.0912 -2.7368,2.0012 -0.5579,3.8119 3.1636,2.6301 2.7078,-0.8596 2.8115,-1.1694 1.7236,-5.2229 z m -1.208,-104.14887 c -0.9078,0 -1.7062,2.27624 -1.9724,5.62543 -0.2964,3.72594 0.048,5.62544 1.02,5.62544 1.8226,0 2.3101,-1.40348 2.4038,-6.91899 0.044,-2.6143 -0.5308,-4.33045 -1.4514,-4.33045 z m -1.2855,159.47714 c -0.9809,-2.5555 -4.2414,-2.5713 -4.2414,-0.02 0,2.9796 2.4739,6.9562 3.8122,6.1297 1.3604,-0.8408 1.5287,-3.2418 0.4285,-6.1096 z m -1.027,-171.44142 c -0.9821,-0.98214 -2.5583,-1.78634 -3.5011,-1.78634 -0.9429,0 -2.3799,-0.66563 -3.1925,-1.47976 -2.39986,-2.39944 -3.17566,-0.21208 -1.37086,3.86487 1.42506,3.21884 2.23296,3.70589 5.44936,3.28186 2.0768,-0.27432 3.9159,-0.5367 4.0895,-0.58312 0.8017,-0.21643 0.1504,-1.67459 -1.4733,-3.29904 z m -10.01626,18.21422 c -0.9907,0 -2.1489,0.5625 -2.5728,1.25 -0.4249,0.6875 -0.5042,1.25 -0.176,1.25 0.3281,0 1.4862,0.34143 2.5728,0.75874 1.2975,0.49789 1.9772,0.0681 1.9772,-1.25 0,-1.10481 -0.8105,-2.00835 -1.8012,-2.00835 z m -1.875,98.74993 c -1.3344,0 -2.773,0.5625 -3.1998,1.25 -0.4381,0.709 0.612,1.25 2.4258,1.25 1.7592,0 3.1997,-0.5625 3.1997,-1.25 0,-0.6875 -1.0918,-1.25 -2.4257,-1.25 z m -2.5728,41.24997 c -0.6875,0 -1.25,0.5625 -1.25,1.25 0,0.6875 0.5625,1.25 1.25,1.25 0.6875,0 1.25,-0.5625 1.25,-1.25 0,-0.6875 -0.5625,-1.25 -1.25,-1.25 z m -1.25,-46.24997 c -2.4354,0 -3.2576,1.3258 -1.7528,2.8306 1.0014,1.0014 4.2535,-0.3092 4.2535,-1.7147 0,-0.6139 -1.1251,-1.1162 -2.5005,-1.1162 z m -0.6763,-151.24995 c -0.6468,0 -1.5239,0.5625 -1.9487,1.25 -0.4249,0.6875 0.10375,1.25 1.1762,1.25 1.0718,0 1.9488,-0.5625 1.9488,-1.25 0,-0.6875 -0.5293,-1.25 -1.1763,-1.25 z m -1.1876,144.56465 c -1.4127,-1.4126 -1.4883,-2.0155 -0.3125,-2.4911 0.8532,-0.3447 0.2857,-0.6711 -1.2612,-0.7254 -1.5468,-0.054 -2.8115,0.3935 -2.8115,0.9951 0,0.6015 -0.3536,2.8621 -0.7857,5.0223 -0.6515,3.2575 -0.4379,3.8176 1.25,3.2819 1.1196,-0.3562 2.879,-0.9111 3.911,-1.2333 2.3825,-0.7443 2.3865,-2.4739 0.0125,-4.849 z m -5.0106,-95.81469 c -1.0313,0 -1.875,0.5293 -1.875,1.17622 0,1.57575 1.952,2.70457 2.9514,1.70612 1.4077,-1.40774 0.8573,-2.88219 -1.0757,-2.88219 z m -6.2427,118.44549 c -2.5536,-0.4882 -2.8863,-0.2788 -1.7404,1.1008 1.535,1.8493 6.6912,2.4066 5.5748,0.603 -0.3741,-0.6054 -2.0998,-1.3721 -3.8339,-1.7033 z m -1.0981,-67.1764 c -0.5998,-0.01 -0.3955,0.8185 0.4542,1.8422 0.8495,1.0237 2.1035,1.5156 2.7874,1.0938 1.2533,-0.7747 -1.0904,-2.8979 -3.2407,-2.9352 z m 1.4843,-37.23888 c -2.3178,0.77259 -2.703,3.46379 -0.4948,3.46379 1.0885,0 1.9791,-0.89063 1.9791,-1.97971 0,-1.08855 -0.6679,-1.75624 -1.4843,-1.48408 z m -2.8911,136.76145 c -1.0312,-0.3957 -1.875,-0.1747 -1.875,0.4912 0,0.666 0.8438,1.2108 1.875,1.2108 1.0312,0 1.875,-0.2211 1.875,-0.4912 0,-0.2702 -0.8438,-0.8151 -1.875,-1.2108 z m 0.625,-14.5481 c -0.6875,0 -1.25,0.877 -1.25,1.9482 0,1.0719 0.5625,1.6016 1.25,1.1763 0.6875,-0.4249 1.25,-1.3019 1.25,-1.9482 0,-0.6469 -0.5625,-1.1763 -1.25,-1.1763 z m -2.4233,-24.91957 c -1.4889,-2.3521 -4.755,0.1496 -5.3144,4.0726 -0.3019,2.113 -1.1571,2.6688 -3.8243,2.4868 -2.2646,-0.1551 -3.436,0.3777 -3.436,1.5629 0,0.9888 -0.5625,1.7978 -1.25,1.7978 -1.5842,0 -1.611,-1.6388 -0.053,-3.1974 1.4389,-1.4396 0.3205,-3.3778 -3.0719,-5.326 -2.4547,-1.4092 -2.4474,-1.4497 0.3125,-2.2261 1.5469,-0.4349 2.8115,-1.3209 2.8115,-1.9683 0,-0.6478 -0.5625,-0.8303 -1.25,-0.4054 -0.6875,0.4249 -1.25,-0.3146 -1.25,-1.6431 0,-2.0513 -0.5994,-2.2934 -3.9689,-1.6044 -2.183,0.4465 -4.227,1.5858 -4.5428,2.5313 -0.4089,1.2266 0.1917,1.5199 2.094,1.0224 1.4671,-0.3837 2.6668,-0.1877 2.6668,0.4354 0,0.6231 -1.9355,1.133 -4.3017,1.133 -4.2124,0 -7.5761,2.4983 -4.6705,3.4681 0.8092,0.2697 1.4713,1.7419 1.4713,3.2718 0,2.9696 3.641,8.8557 3.7109,5.9979 0.021,-0.9 0.6401,-1.2652 1.3739,-0.8117 0.7346,0.454 1.6428,-0.3554 2.0208,-1.8007 0.8631,-3.3005 2.8959,-3.4409 2.8959,-0.1995 0,1.3344 0.6115,2.8048 1.3589,3.2661 0.7473,0.4619 1.0813,1.9009 0.742,3.19867 -0.8099,3.0971 0.9555,2.9982 3.9544,-0.2205 1.3599,-1.45967 4.0871,-2.62717 6.2837,-2.69017 3.817,-0.1085 3.8677,-0.1922 3.0768,-5.1284 -0.6929,-4.3333 -0.5204,-4.9092 1.2656,-4.2244 2.2985,0.882 2.609,-0.088 0.8941,-2.7977 z m -21.3251,5.5452 c -0.6875,0.4249 -1.25,0.1769 -1.25,-0.5512 0,-0.7281 0.5625,-1.3238 1.25,-1.3238 0.6875,0 1.25,0.2481 1.25,0.5513 0,0.3031 -0.5625,0.8988 -1.25,1.3237 z m -3.7495,-1.8751 c -0.6875,0 -1.25,-0.8438 -1.25,-1.8752 0,-1.0312 0.5625,-1.8751 1.25,-1.8751 0.6875,0 1.25,0.8437 1.25,1.8751 0,1.0313 -0.5625,1.8752 -1.25,1.8752 z m 21.0165,-97.21359 c -2.3178,0.7726 -2.7031,3.46379 -0.4948,3.46379 1.0885,0 1.9791,-0.89063 1.9791,-1.97972 0,-1.08856 -0.668,-1.75625 -1.4843,-1.48407 z m -5.0781,113.55136 c -0.5157,-0.048 -0.8932,1.1777 -0.8389,2.7246 0.054,1.5471 0.3836,2.1058 0.7318,1.2422 0.3482,-0.8636 1.1476,-1.2523 1.7763,-0.8637 0.6288,0.3886 1.809,0.2951 2.6235,-0.2079 1.0171,-0.6285 0.7241,-1.2102 -0.9375,-1.8608 -1.3294,-0.5205 -2.8381,-0.986 -3.3541,-1.0343 z m 4.0629,-181.33781 c -0.6875,0 -1.25,0.5625 -1.25,1.25 0,0.6875 0.5625,1.25 1.25,1.25 0.6875,0 1.25,-0.5625 1.25,-1.25 0,-0.6875 -0.5625,-1.25 -1.25,-1.25 z m -3.8242,153.74994 c -0.647,0 -1.1763,0.5625 -1.1763,1.25 0,0.6875 0.877,1.25 1.9488,1.25 1.0719,0 1.6011,-0.5625 1.1762,-1.25 -0.4248,-0.6875 -1.3018,-1.25 -1.9487,-1.25 z m 1.3237,-43.125 c -0.6875,0.4249 -1.25,1.3019 -1.25,1.9482 0,0.647 0.5625,1.1763 1.25,1.1763 0.6875,0 1.25,-0.877 1.25,-1.9482 0,-1.0719 -0.5625,-1.6016 -1.25,-1.1763 z m -1.1762,-45.62492 c -1.688,0 -2.8573,2.27912 -1.9361,3.77034 0.4317,0.69873 1.3087,0.94679 1.9487,0.55124 1.5182,-0.93834 1.5084,-4.32185 -0.013,-4.32185 z m -1.3238,94.37492 c -0.6875,-0.4249 -1.25,0.058 -1.25,1.074 0,1.0156 -0.3866,2.8765 -0.859,4.1356 -0.7562,2.0156 -0.6066,2.0843 1.25,0.5742 2.3567,-1.9167 2.7561,-4.6112 0.859,-5.7844 z m -1.25,28.74997 c -0.6875,0.4249 -1.25,1.6159 -1.25,2.6473 0,1.0312 0.5625,1.527 1.25,1.1024 0.6875,-0.4249 1.25,-1.6158 1.25,-2.6472 0,-1.0313 -0.5625,-1.5271 -1.25,-1.1025 z m -0.013,-97.28964 c -0.013,-2.365 -0.2515,-2.2433 -1.9226,0.9622 -1.9135,3.66997 -1.4583,10.70217 0.6928,10.70217 1.2294,0 2.3491,-4.8376 1.6871,-7.29 -0.2473,-0.9156 -0.453,-2.88507 -0.4573,-4.37487 z m -1.8036,-22.51285 c -1.2106,-0.46457 -1.5807,-0.0944 -1.1162,1.11627 0.7587,1.97685 2.9272,2.49255 2.9272,0.69507 0,-0.61396 -0.8151,-1.42905 -1.8113,-1.81067 z m 26.5106,7.57881 c -1.14735,-0.59638 -2.0861,0.19316 -2.0861,1.75445 0,1.56131 0.93875,2.35038 2.0861,1.75444 1.14736,-0.59634 2.08611,-1.38584 2.08611,-1.75444 0,-0.36858 -0.93875,-1.15808 -2.08611,-1.75445 z m -38.685,76.72711 c -1.989,1.0644 -2.352,1.7161 -1.1747,2.1086 0.9371,0.3124 2.1926,-0.2038 2.7898,-1.1469 0.5975,-0.9432 1.095,-1.2598 1.1055,-0.7036 0.0125,0.5562 0.6945,0.5938 1.52,0.084 2.7271,-1.686 -1.1463,-1.9983 -4.2414,-0.3415 z m 26.69023,-74.0687 c -1.43424,-0.014 -2.60763,0.76266 -2.60763,1.72759 0,0.96495 2.58159,1.74237 5.73829,1.72758 4.47078,-0.0209 5.04621,-0.40233 2.60763,-1.72758 -1.72095,-0.9354 -4.30171,-1.71281 -5.73829,-1.72759 z m -2.22087,33.59596 c -3.16083,4.01135 -4.54435,8.57918 -2.59752,8.57918 0.77375,0 -24.44184,-0.46034 -24.26094,-1.98454 0.041,-0.3437 28.71694,-8.95344 26.85805,-6.59464 z m -33.85346,89.59431 c -1.0313,0 -1.875,0.5716 -1.875,1.2702 0,0.6986 -1.9688,2.2089 -4.374,3.3564 -4.4343,2.1143 -5.5676,4.4894 -2.9225,6.1239 0.8173,0.5051 2.408,-0.2825 3.6386,-1.8006 1.202,-1.4841 3.0382,-2.6989 4.0798,-2.6989 1.6368,0 2.6138,-1.6316 3.1829,-5.3131 0.08,-0.5156 -0.6987,-0.9375 -1.73,-0.9375 z m 32.1251,-46.69837 c -2.02868,0 -2.02868,1.31886 0,6.00529 1.31632,3.03991 1.49911,2.89441 1.60683,-1.28688 0.0677,-2.59558 -0.65623,-4.71924 -1.60683,-4.71924 z m 0,-73.78102 c -0.9506,0 -1.72836,0.77213 -1.72836,1.71584 0,0.94371 0.77776,1.71584 1.72836,1.71584 0.9506,0 1.72836,-0.77213 1.72836,-1.71584 0,-0.94371 -0.77776,-1.71584 -1.72836,-1.71584 z m -28.7501,-62.52047 c -0.6875,0 -1.25,0.5625 -1.25,1.25 0,0.6875 0.5625,1.25 1.25,1.25 0.6875,0 1.25,-0.5625 1.25,-1.25 0,-0.6875 -0.5625,-1.25 -1.25,-1.25 z m 25.29268,146.59651 c -0.9506,0 -1.72836,0.8177 -1.72836,1.81714 0,0.99944 0.77776,1.33986 1.72836,0.75662 0.9506,-0.58325 1.72836,-1.40095 1.72836,-1.81714 0,-0.41606 -0.77776,-0.75662 -1.72836,-0.75662 z m -4.97437,18.87504 c -2.17013,0 -5.5645,4.41048 -4.33418,5.63161 1.13477,1.12655 5.67788,-2.28687 5.78449,-4.34364 0.036,-0.70788 -0.61682,-1.28687 -1.45114,-1.28687 z m -3.56734,-18.87504 c -2.0392,0 -4.22094,3.34671 -2.98261,4.57566 1.23793,1.22909 4.60755,-0.93644 4.60755,-2.96126 0,-0.88798 -0.73172,-1.61454 -1.62646,-1.61454 z M 378.70049,621.62329 c -0.6875,0 -1.25,0.5625 -1.25,1.25 0,0.6875 0.5625,1.25 1.25,1.25 0.6875,0 1.25,-0.5625 1.25,-1.25 0,-0.6875 -0.5625,-1.25 -1.25,-1.25 z m 21.07998,170.32329 c -4.67101,0 -5.23446,1.14124 -2.53337,5.14793 1.5016,2.22784 2.07888,2.12558 4.29422,-0.75689 3.32994,-4.33188 3.30671,-4.3909 -1.76113,-4.3909 z m -4.35475,-85.02743 c -3.4419,4.13177 -2.81741,6.77972 1.11699,4.73495 1.22379,-0.63608 2.22496,-2.86509 2.22496,-4.95209 l 0,-3.796 z m 35.33648,21.32479 c -0.95855,0.80032 -33.52616,-19.57368 -33.02729,-18.33677 0.5517,1.36869 0.96139,0.96224 1.04435,-1.03664 0.0747,-1.80877 32.94058,18.57251 31.98224,19.37303 z m -41.38234,-42.73557 c -3.49815,-1.12899 -3.67088,-0.83971 -1.86281,3.12243 1.56391,3.42806 4.99397,3.65527 4.99397,0.3312 0,-1.34416 -1.40821,-2.89927 -3.12933,-3.45418 z m 6.07942,98.71694 c -0.9506,0.58325 -1.72836,2.2181 -1.72836,3.63387 0,1.4155 0.77776,2.09607 1.72836,1.51323 0.9506,-0.58324 1.72836,-2.21796 1.72836,-3.63373 0,-1.41563 -0.77776,-2.0962 -1.72836,-1.51337 z m -1.72836,-14.72394 c 0,-0.86657 -1.16658,-1.57555 -2.59255,-1.57555 -3.82079,0 -3.15129,3.97594 1.11486,6.62066 3.28307,2.03526 3.58076,1.96841 2.59255,-0.58545 -0.61322,-1.58625 -1.11486,-3.59255 -1.11486,-4.45966 z M 368.80749,626.56664 c -2.4523,1.31222 -3.6097,3.80758 -1.7679,3.80758 1.2482,0 5.5097,-4.06686 4.8996,-4.6771 -0.2891,-0.28909 -1.6987,0.10225 -3.1322,0.86964 z m 2.3929,-11.19212 c -0.6874,0 -1.25,1.72044 -1.25,3.82335 0,2.2304 0.5208,3.50245 1.25,3.05121 0.6875,-0.42489 1.25,-2.14587 1.25,-3.82334 0,-1.67746 -0.5625,-3.05122 -1.25,-3.05122 z m 19.50589,166.30504 c -0.71292,0.0137 -2.46285,0.77473 -3.88744,1.68948 -2.09643,1.34508 -1.84824,1.66834 1.29628,1.68962 2.13888,0.0137 3.88757,-0.74591 3.88757,-1.68962 0,-0.94371 -0.58336,-1.70403 -1.29627,-1.68948 z m -2.54484,-68.24669 c -1.16188,0.38449 -2.63998,2.57198 -3.28431,4.86077 -0.76739,2.7253 -1.23115,3.12653 -1.34398,1.15963 -0.21487,-3.7419 -2.90351,-3.92282 -4.30763,-0.28854 -1.47368,3.81273 -1.36016,4.1489 1.39942,4.1489 1.3466,0 2.77589,0.96526 3.17563,2.14534 0.5669,1.67205 1.36056,1.62579 3.60066,-0.21015 3.35731,-2.75289 4.01091,-12.8913 0.7609,-11.81581 z m -10.17857,-48.446 c -1.04705,1.42494 -2.3603,1.1208 -4.43456,-1.02671 -1.61965,-1.67834 -1.86998,-2.5092 -0.5559,-1.84757 1.31408,0.66219 2.92739,0.0242 3.58526,-1.41766 1.40604,-3.08224 -1.01868,-3.45622 -4.33409,-0.66913 -2.90052,2.43886 -6.85695,0.54444 -6.85695,-3.28329 0,-4.8596 -4.75648,0.51449 -5.38432,6.08406 -0.3039,2.69419 -1.20343,6.67517 -1.99916,8.84459 -1.22512,3.34159 -0.67189,3.94679 3.60897,3.94679 3.62448,0 5.64183,1.36614 7.11863,4.82542 2.03487,4.75505 2.08326,4.76711 3.35796,0.80911 0.87499,-2.7163 0.0317,-5.00435 -2.60964,-7.07324 -2.14635,-1.68185 -3.74581,-4.80935 -3.55405,-6.95062 0.36648,-4.09358 3.63299,-5.5412 3.63299,-1.61107 0,1.25443 1.11381,3.21695 2.47462,4.36301 1.90937,1.60554 3.32876,1.43163 6.20926,-0.76083 2.05373,-1.56321 3.16971,-3.61102 2.47946,-4.54997 -0.77153,-1.05003 -1.82743,-0.92782 -2.74248,0.31754 z m -1.62566,-21.98543 c -1.44675,1.21667 1.49265,4.54593 4.01384,4.54593 1.38334,0 1.22496,-1.00666 -0.42056,-2.67408 -1.45126,-1.47072 -3.06824,-2.31219 -3.59328,-1.87115 z m 10.46025,112.05628 c -0.9506,-0.58325 -1.72836,-0.24282 -1.72836,0.75662 0,0.99944 0.77776,1.81714 1.72836,1.81714 0.95074,0 1.72836,-0.34056 1.72836,-0.75662 0,-0.41619 -0.77762,-1.23389 -1.72836,-1.81714 z m -11.38831,-99.93723 c -1.66421,0.56003 -1.16989,0.97577 1.26034,1.05997 2.19892,0.0761 3.43123,-0.3385 2.73797,-0.92149 -0.69309,-0.58297 -2.49231,-0.64529 -3.99831,-0.13839 z m 0.39102,55.58625 c -1.14736,0 -2.08611,0.7895 -2.08611,1.75445 0,0.96494 0.93875,1.75444 2.08611,1.75444 1.14736,0 2.0861,-0.7895 2.0861,-1.75444 0,-0.96495 -0.93874,-1.75445 -2.0861,-1.75445 z m -4.77251,-21.25077 c -1.70377,1.4328 -1.47029,1.95184 0.87783,1.95184 4.14885,0 6.95374,-2.35844 3.84194,-3.23104 -1.31942,-0.3699 -3.44324,0.2058 -4.72027,1.27928 z m 8.66014,98.32277 c -2.82124,1.73094 -1.57212,4.16867 2.1357,4.16867 3.05271,0 3.31003,-0.42883 1.53258,-2.55427 -1.1746,-1.4052 -2.82539,-2.13148 -3.66745,-1.61453 z m -1.88613,-34.07488 c -1.70666,-1.68825 -3.10317,-4.24334 -3.10317,-5.67682 0,-1.43458 -0.80943,-2.11185 -1.79875,-1.50458 -0.98917,0.60699 -1.32572,2.58378 -0.74762,4.39076 0.57797,1.80808 0.28567,3.28782 -0.64986,3.28782 -0.93539,0 -2.02813,-0.96513 -2.42787,-2.14535 -0.57949,-1.70884 -1.25562,-1.71199 -3.32786,-0.0151 -1.43026,1.17144 -3.0787,1.65517 -3.664,1.07494 -0.5846,-0.58036 -2.45745,-0.52161 -4.16093,0.1304 -2.9761,1.13822 -2.97555,1.25421 0.0156,2.92201 2.11676,1.17967 3.81069,1.16265 5.28768,-0.0535 2.70524,-2.2299 8.01837,3.33683 8.01837,8.40019 0,2.24954 1.15856,3.41164 3.40391,3.41164 2.4233,0 3.09405,0.79821 2.33066,2.77252 -0.90234,2.33409 -0.50703,2.47369 2.49604,0.87768 1.96259,-1.04268 3.90748,-2.86888 4.32091,-4.06049 0.98973,-2.84733 -2.09492,-9.96161 -5.9912,-13.81373 z m -1.21096,11.5248 c -1.52622,-1.51516 -1.61415,-5.88135 -0.11753,-5.88135 0.80749,0 1.35352,1.51104 1.21331,3.35852 -0.14,1.84692 -0.63299,2.98295 -1.09495,2.52475 z m 3.29288,9.56037 c -0.9506,0 -1.72837,0.34056 -1.72837,0.75662 0,0.41619 0.77777,1.23389 1.72837,1.81714 0.9506,0.58324 1.72836,0.24282 1.72836,-0.75662 0,-0.99944 -0.77776,-1.81714 -1.72836,-1.81714 z m 0.10232,-36.03259 c -2.5577,0 -3.97082,3.31925 -2.7546,6.46926 0.95558,2.47176 1.33444,2.52091 2.7192,0.34687 2.08662,-3.27601 2.10501,-6.81544 0.0346,-6.81544 z m 18.0659,-15.52844 c -2.16334,-0.60207 -3.24512,0.30093 -2.52401,2.10713 0.69411,1.73858 2.96566,3.63476 5.048,4.21448 2.1631,0.60207 3.24489,-0.30113 2.52377,-2.10734 -0.69388,-1.73839 -2.96543,-3.63476 -5.04776,-4.21427 z m -21.40137,-14.362 c -1.85308,-1.13698 -8.86526,4.6819 -8.86526,7.35614 0,2.61521 2.91872,2.47561 4.17752,-0.20137 0.80514,-1.71254 1.21221,-1.71035 2.01998,0.0137 0.55653,1.18557 1.72325,1.71913 2.59254,1.18571 2.00961,-1.23307 2.06284,-7.13198 0.0761,-8.35119 z m -1.27235,66.9211 c -0.57686,-1.49264 -2.32679,-2.70169 -3.88744,-2.68796 -2.45013,0.0233 -2.48594,0.24831 -0.26174,1.64445 2.01582,1.26506 2.12243,2.07054 0.48878,3.69276 -1.63337,1.62167 -2.33053,1.45009 -3.19498,-0.78654 -0.60825,-1.57335 -2.12437,-2.86092 -3.37073,-2.86092 -1.24497,0 -2.55604,-0.87137 -2.91361,-1.93629 -0.35756,-1.06491 -1.53064,0.91201 -2.60678,4.39296 -1.69007,5.46638 -1.56231,6.4672 0.93815,7.3442 1.59217,0.55854 4.25759,2.17678 5.91792,3.59461 2.7734,2.36538 3.02464,2.20025 3.02464,-1.97624 0,-3.41163 0.86791,-4.55602 3.45742,-4.55602 3.61408,0 4.16079,-1.33026 2.40754,-5.8657 z m -11.87143,-93.15247 c -1.02469,0 -2.37549,1.12303 -3.00165,2.49514 -0.62634,1.3726 -3.2348,2.75454 -5.79471,3.0702 -2.5619,0.31608 -5.08642,1.67145 -5.61362,3.01184 -0.57944,1.47781 -0.0267,1.95506 1.40119,1.21227 1.29623,-0.67372 2.3568,-0.38889 2.3568,0.63303 0,3.55874 4.2897,1.82689 6.25748,-2.52731 1.09062,-2.41271 2.94475,-4.38511 4.12065,-4.38511 1.17589,0 2.13784,-0.7895 2.13784,-1.75445 0,-0.96494 -0.83845,-1.75444 -1.86298,-1.75444 z m 9.46389,112.74431 c -0.9506,0 -1.72837,1.15812 -1.72837,2.5739 0,1.41549 0.77777,2.57385 1.72837,2.57385 0.9506,0 1.72836,-1.15808 1.72836,-2.57385 0,-1.41564 -0.77776,-2.5739 -1.72836,-2.5739 z M 359.95108,711.7263 c -1.37116,-3.00584 -11.25129,-3.90055 -11.25129,-1.02072 0,0.96494 1.40804,1.75444 3.12916,1.75444 1.72095,0 3.12916,0.7895 3.12916,1.75445 0,0.96494 27.57233,-29.97079 29.9521,-29.97079 4.85487,0 -23.17092,31.40393 -24.96013,27.48289 z m -2.90587,-32.60074 c -1.14735,0 -2.0861,1.23082 -2.0861,2.73441 0,1.50434 0.93875,2.24782 2.0861,1.65087 1.14736,-0.59637 2.08611,-1.82721 2.08611,-2.7344 0,-0.908 -0.93875,-1.65088 -2.08611,-1.65088 z m -3.12915,-33.33442 c -1.72112,0 -3.12916,0.78949 -3.12916,1.75443 0,0.96495 1.40804,1.75445 3.12916,1.75445 1.72095,0 3.12915,-0.7895 3.12915,-1.75445 0,-0.96494 -1.4082,-1.75443 -3.12915,-1.75443 z m 25.39742,60.12677 c -0.69942,0 -2.07403,1.08371 -3.05451,2.40826 -0.98047,1.32455 -0.4082,2.40828 1.27192,2.40828 1.6799,0 3.05474,-1.08373 3.05474,-2.40828 0,-1.32455 -0.57227,-2.40826 -1.27215,-2.40826 z M 350.7874,635.26448 c -1.14736,0 -2.08611,1.23085 -2.08611,2.73441 0,1.50434 0.93875,2.24782 2.08611,1.65087 1.14736,-0.59635 2.0861,-1.82721 2.0861,-2.7344 0,-0.90799 -0.93874,-1.65088 -2.0861,-1.65088 z m 11.0711,158.39849 c -0.41909,0 -1.24276,0.77212 -1.83027,1.71584 -0.5875,0.94371 -0.2446,1.71583 0.76214,1.71583 1.00674,0 1.83041,-0.77212 1.83041,-1.71583 0,-0.94372 -0.34305,-1.71584 -0.76228,-1.71584 z m -4.79752,-53.50558 c -1.24028,1.23115 -1.34232,2.03127 -0.2594,2.03127 2.30702,0 4.35092,-2.02935 3.19748,-3.17375 -0.49114,-0.48757 -1.81326,0.0275 -2.93808,1.14385 z m -10.86049,-53.53368 c -0.6875,0 -1.25,0.5625 -1.25,1.25 0,0.6875 0.5625,1.25 1.25,1.25 0.6875,0 1.25,-0.5625 1.25,-1.25 0,-0.6875 -0.5625,-1.25 -1.25,-1.25 z m 11.35438,39.33697 c -0.88492,-0.54289 -2.09754,-0.20246 -2.69459,0.75662 -0.59704,0.95922 0.12721,1.74384 1.6089,1.74384 3.03598,0 3.48411,-1.0295 1.08569,-2.50114 z m -17.02088,92.48665 c -0.7333,0.4531 -1.3332,1.4221 -1.3332,2.153 0,0.8289 0.7173,0.7341 1.9052,-0.2519 2.0658,-1.7147 1.6048,-3.246 -0.572,-1.9009 z m 14.30929,-47.7107 c -1.42583,-0.54316 -2.59255,-2.55618 -2.59255,-4.47339 0,-4.06448 -2.63568,-4.65239 -4.08074,-0.91187 -0.54726,1.41564 -2.18589,2.57403 -3.64076,2.57403 -4.62095,0 -2.85484,4.79392 2.79718,7.59211 4.07756,2.01933 6.02799,2.21411 7.77833,0.77349 3.03999,-2.50512 2.95482,-4.32995 -0.25897,-5.55505 z m 0.10232,-23.40114 c -0.41924,0 -1.2429,0.77213 -1.83041,1.71584 -0.58751,0.94371 -0.24446,1.71584 0.76228,1.71584 1.0066,0 1.83027,-0.77213 1.83027,-1.71584 0,-0.94371 -0.34291,-1.71584 -0.76214,-1.71584 z m -13.24981,-77.87313 c -0.4153,0.41536 -0.4598,1.49408 -0.099,2.39513 0.399,0.99717 0.6952,0.70098 0.7552,-0.75522 0.054,-1.3177 -0.2412,-2.05563 -0.6565,-1.6402 z m 10.04613,46.08902 c -1.58645,0 -2.88444,1.08373 -2.88444,2.40828 0,1.32455 1.29799,2.40827 2.88444,2.40827 1.58644,0 2.88445,-1.08372 2.88445,-2.40827 0,-1.32455 -1.29801,-2.40828 -2.88445,-2.40828 z m -13.66593,-46.87962 c -1.0312,0.39572 -1.875,1.2907 -1.875,1.98831 0,0.73164 0.7943,0.61014 1.875,-0.2868 1.0313,-0.85585 1.875,-1.7505 1.875,-1.9883 0,-0.238 -0.8437,-0.10888 -1.875,0.28679 z m 0.625,-5.17277 c -0.6875,-0.42488 -1.25,-0.17683 -1.25,0.55123 0,0.72809 0.5625,1.3238 1.25,1.3238 0.6875,0 1.25,-0.24806 1.25,-0.55124 0,-0.30316 -0.5625,-0.89887 -1.25,-1.32379 z m -2.1428,24.37499 c -0.884,0 -1.6072,1.125 -1.6072,2.49973 0,1.37498 0.7232,2.49971 1.6072,2.49971 0.8839,0 1.6071,-1.125 1.6071,-2.49971 0,-1.375 -0.7232,-2.49973 -1.6071,-2.49973 z m 8.62353,68.32965 c -0.0857,-1.57432 -0.90787,-0.26836 -1.82695,2.90223 -1.79169,6.18031 -1.15814,8.17412 1.98569,6.2451 1.07863,-0.66176 1.5193,-2.34575 0.97908,-3.74382 -0.54008,-1.39738 -1.05209,-3.82851 -1.13782,-5.40351 z m -11.48073,-88.95464 c -0.6875,-0.42491 -1.25,-0.17686 -1.25,0.55123 0,0.72807 0.5625,1.32377 1.25,1.32377 0.6875,0 1.25,-0.24805 1.25,-0.55122 0,-0.30318 -0.5625,-0.89888 -1.25,-1.32378 z m 6.45147,106.68226 c -0.9506,-0.58325 -1.72836,-0.24283 -1.72836,0.75661 0,0.99944 0.77776,1.81714 1.72836,1.81714 0.9506,0 1.72836,-0.34056 1.72836,-0.75675 0,-0.41606 -0.77776,-1.23375 -1.72836,-1.817 z m -0.86418,-28.31132 c -1.42583,0 -2.59255,-0.90089 -2.59255,-2.00177 0,-3.329 -1.82598,-0.43266 -2.68228,4.25514 -0.99678,5.45664 1.51474,7.24015 5.13435,3.64568 3.44069,-3.41562 3.50069,-5.89905 0.1393,-5.89905 z m -4.45089,19.20338 c -1.0218,0.33809 -1.85792,1.34837 -1.85792,2.24555 0,0.89649 0.83612,1.90664 1.85792,2.24555 1.02195,0.33823 1.85807,-0.67206 1.85807,-2.24555 0,-1.57281 -0.83612,-2.58378 -1.85807,-2.24555 z m 1.09579,-53.52 c -1.82419,0 -2.59061,3.29373 -0.9943,4.27285 0.96609,0.59286 1.75658,-0.12628 1.75658,-1.59724 0,-1.47123 -0.34305,-2.67423 -0.76228,-2.67423 z m -12.74925,6.91771 c -1.56866,-0.0371 -1.90507,1.14646 -1.08154,3.80683 1.62204,5.23838 1.68384,5.26982 5.94461,3.0045 3.59403,-1.90939 3.61739,-2.08825 0.58004,-4.37305 -1.74206,-1.31063 -4.1908,-2.40684 -5.44449,-2.43828 z m 5.25437,41.68497 c -0.86363,-1.3481 -1.94448,-0.63856 -3.26758,2.14535 -1.53077,3.22083 -1.49344,4.15878 0.16472,4.15878 4.03414,0 5.38448,-2.74301 3.1029,-6.30413 z m -2.11317,-65.76119 c -0.9506,0 -1.72836,0.72656 -1.72836,1.61454 0,0.88798 0.77776,2.09222 1.72836,2.67423 0.9506,0.58325 1.72837,-0.14317 1.72837,-1.61453 0,-1.47123 -0.77777,-2.67424 -1.72837,-2.67424 z m -3.87444,-27.52081 c -0.6875,0 -1.25,0.5625 -1.25,1.25 0,0.6875 0.5625,1.25 1.25,1.25 0.6875,0 1.25,-0.5625 1.25,-1.25 0,-0.6875 -0.5625,-1.25 -1.25,-1.25 z m -1.41338,85.85929 c -1.9572,0 -3.09903,0.73836 -2.5371,1.64089 0.56178,0.90239 2.16322,1.20589 3.55738,0.67425 3.57412,-1.361 3.15171,-2.31432 -1.02153,-2.31432 z m -0.577,-10.2964 c -2.83756,0 -5.00769,4.66818 -3.384,7.27748 0.71388,1.14673 1.99578,0.65024 3.4606,-1.34068 2.97887,-4.04471 2.95371,-5.93831 -0.0788,-5.93831 z m -3.50402,36.14474 c -2.01582,-1.6608 -2.28973,-1.39052 -1.52676,1.50568 0.51131,1.94137 1.61678,3.52968 2.45648,3.52968 2.33136,0 1.81976,-2.7706 -0.92972,-5.03591 z m 0.83017,-20.7022 c -0.89446,0 -4.87246,0.77213 -5.45997,1.71584 -0.58751,0.94371 2.90971,1.71583 4.3917,1.71583 1.48211,0 2.69459,-0.77212 2.69459,-1.71583 0,-0.94371 -0.73186,-1.71584 -1.62632,-1.71584 z m -3.55739,-20.59005 c -0.9506,0 -1.72836,0.72655 -1.72836,1.61467 0,0.88798 0.77776,2.09209 1.72836,2.67424 0.9506,0.58324 1.72837,-0.14317 1.72837,-1.61468 0,-1.47122 -0.77777,-2.67423 -1.72837,-2.67423 z m -4.27608,-49.16631 c -1.5661,0 -1.5661,1.32655 0,3.75028 0.9799,1.51558 1.2154,1.33682 1.2309,-0.9375 0.01,-1.5471 -0.5434,-2.812 -1.2309,-2.812 z m -4.6778,24.2616 c -0.8669,0.8669 0.8944,3.2389 2.4051,3.2389 0.8289,0 0.734,-0.7172 -0.2519,-1.9052 -0.8696,-1.0479 -1.8386,-1.6474 -2.1532,-1.3332 z m -3.6809,24.8478 c -1.0209,1.0209 -0.881,1.3906 0.526,1.3906 2.486,0 2.1667,0.3197 0.3021,-0.302 -0.7906,-0.2635 -0.0633,-1.8534 -0.8284,-1.0885 z m -2.6417,8.8901 c -0.6875,0 -1.25,0.5625 -1.25,1.25 0,0.6875 0.5625,1.25 1.25,1.25 0.6875,0 1.25,-0.5625 1.25,-1.25 0,-0.6875 -0.5625,-1.25 -1.25,-1.25 z m -13.0041,-25.9115 c -0.4154,0.4154 -0.4598,1.4941 -0.099,2.3952 0.399,0.9971 0.6952,0.7009 0.7552,-0.7552 0.054,-1.3177 -0.2412,-2.0557 -0.6566,-1.6403 z m -9.25,-49.24993 c -0.4154,0.41538 -0.4598,1.4941 -0.099,2.39514 0.399,0.99716 0.6952,0.70099 0.7552,-0.75521 0.054,-1.31769 -0.2412,-2.05564 -0.6566,-1.64022 z"
       id="path4173"
       inkscape:connector-curvature="0"
       sodipodi:nodetypes="ccsccsscccssccsscsccsscccccccccccccsccccscsccsccccccscscscccccccsccccccsccscscccccscscscssssscscccscscsccscccscsscccccsccccsscsscssccccccccccccccscccssscccssscccssccccssccccsccssssccccscccscsssccccccsssccccccccccccccscccsscsscccsccsscsscsccccsccccscccccscccccsccccccscccssssscccsccsscsssssssssssscccccccccsccccsccccsccccccccscsccscsssssssscssccscssscccsccccccsccccccccccccccsscssssssscsscccsscccsssccssscscscsccccccccsssssssssscsscccscccccsssssssscscssscccscccscccccscscccscccccsccsscssccccccccsccccsccccscccsccccccccssssssssssssssscccccccsccssssscccccccscccccccccscccscscssscscscccsscsscccsccccccscccccccccsccsccccscsccccsccccsssccccccssssscsccccsccccsccsccccccssccccccscccssssscccccssccscsccccccccccsscccsscccccccscssccssssscssssccsscsssssssssssssscssssssscscccsssssccscccsscccscsccccssssscccccssssscscsccssscssssscccccsssssssssscssccccscscccscccccccccssccsscsssssssccccccccccccsccssssssscssccccccsccccscccssssscccccccccc" />
  </g>
</svg>
