<?xml version="1.0" encoding="UTF-8" standalone="no"?>
<svg
   xmlns:dc="http://purl.org/dc/elements/1.1/"
   xmlns:cc="http://creativecommons.org/ns#"
   xmlns:rdf="http://www.w3.org/1999/02/22-rdf-syntax-ns#"
   xmlns:svg="http://www.w3.org/2000/svg"
   xmlns="http://www.w3.org/2000/svg"
   xmlns:sodipodi="http://sodipodi.sourceforge.net/DTD/sodipodi-0.dtd"
   xmlns:inkscape="http://www.inkscape.org/namespaces/inkscape"
   width="110.86675mm"
   height="101.95284mm"
   viewBox="0 0 392.83495 361.2502"
   id="svg5379"
   version="1.1"
   inkscape:version="0.91 r13725"
   sodipodi:docname="starTwoLight.svg">
  <sodipodi:namedview
     pagecolor="#ffffff"
     bordercolor="#666666"
     borderopacity="1"
     objecttolerance="10"
     gridtolerance="10"
     guidetolerance="10"
     inkscape:pageopacity="0"
     inkscape:pageshadow="2"
     inkscape:window-width="1127"
     inkscape:window-height="702"
     id="namedview4167"
     showgrid="false"
     inkscape:zoom="0.65328678"
     inkscape:cx="-343.92714"
     inkscape:cy="180.62512"
     inkscape:window-x="0"
     inkscape:window-y="0"
     inkscape:window-maximized="0"
     inkscape:current-layer="svg5379" />
  <defs
     id="defs5381" />
  <metadata
     id="metadata5384">
    <rdf:RDF>
      <cc:Work
         rdf:about="">
        <dc:format>image/svg+xml</dc:format>
        <dc:type
           rdf:resource="http://purl.org/dc/dcmitype/StillImage" />
        <dc:title />
      </cc:Work>
    </rdf:RDF>
  </metadata>
  <g
     id="layer1"
     transform="translate(-212.04824,-350.07219)">
    <path
       style="fill:#ffffff;fill-opacity:1"
       d="m 602.99871,496.25609 c 1.85011,-0.99754 -0.64656,3.60902 -0.69744,4.45269 -0.0509,0.84316 -1.55642,2.09611 -3.34691,2.78457 -1.78928,0.68844 -3.96664,1.76562 -4.84039,2.39466 -7.6189,5.48761 -8.16636,9.05543 -9.62983,9.00884 -0.93186,-0.0301 -3.81169,2.36043 -6.40046,5.31137 -5.40329,6.16081 -16.69034,16.11921 -19.40364,14.88644 -1.02338,-0.46515 -1.57367,-0.31199 -1.22293,0.3403 0.35079,0.6524 -1.69856,2.32006 -4.55465,3.70484 -5.24565,2.54524 -5.67278,6.10298 -0.44522,3.69871 3.51318,-1.61645 4.06348,-1.48859 3.91881,0.91035 -0.0978,1.62146 0.75675,1.94569 4.20833,1.59733 4.90703,-0.4956 9.93645,0.002 7.29502,2.3441 -2.15737,1.9121 -3.57407,1.62429 -3.43408,-0.69699 0.082,-1.35913 -0.62502,-1.76843 -2.31825,-1.34109 -1.33994,0.33795 -2.76158,0.008 -3.16136,-0.73243 -0.95166,-1.7694 -4.53873,-1.92692 -9.00591,-0.39325 -1.97992,0.67984 -4.29484,1.07901 -5.14324,0.8872 -0.84937,-0.19178 -1.57694,0.19242 -1.61683,0.85391 -0.12935,2.14481 -19.13934,18.78663 -21.3065,18.65593 -1.15575,-0.0697 -2.13685,0.4616 -2.18022,1.1808 -0.12237,2.02901 -9.27241,10.81734 -11.84804,10.70649 -1.26794,-0.0544 -2.02436,0.90007 -4.1231,1.97438 -3.17562,1.62668 -4.23418,49.83961 -3.11181,54.11817 0.74133,2.825 0.8221,-48.45033 0.67518,-46.8088 -0.14706,1.64293 -0.51667,5.70064 1.61797,9.16312 2.1352,3.46392 3.93651,5.38343 3.85674,6.70613 -0.0797,1.3223 0.40761,2.6264 1.08304,2.89815 0.67543,0.27135 1.22738,2.79926 1.22662,5.61633 -9.7e-4,3.49588 0.55945,5.11976 1.76453,5.11349 0.99217,-0.005 1.49554,3.90331 3.71035,9.07551 2.16826,5.06321 4.43758,10.2932 5.04825,11.62308 0.60853,1.33014 2.236,5.14192 3.61751,8.47002 1.38121,3.32809 3.12103,6.08792 3.86476,6.13278 0.84435,0.0509 0.99382,1.67726 0.39774,4.32929 -0.66395,2.95359 1.58798,4.88034 2.8352,6.04914 1.19922,1.12383 3.35891,4.97743 2.73216,7.35632 -0.98855,3.75199 4.27249,9.7638 5.56269,6.55525 0.69358,-1.72628 4.17944,-1.88914 4.07697,-0.19002 -0.037,0.61278 -0.92888,1.38619 -1.98215,1.72019 -1.0532,0.33301 -1.95183,1.21762 -1.99698,1.96626 -0.0451,0.74824 0.64122,1.0474 1.52527,0.66452 0.88401,-0.38278 0.53763,0.0745 -0.76982,1.0171 -2.06467,1.48861 -2.18444,2.10993 -0.91163,4.73401 0.80602,1.66163 1.79314,3.32277 2.19302,3.69131 1.38745,1.27674 3.8519,14.47713 2.93938,15.74931 -0.50371,0.70315 -0.82422,2.17182 -0.71215,3.26204 0.32139,3.13213 -6.92378,4.15754 -15.36188,2.80053 -6.44997,-1.03736 -10.17672,-4.02893 -13.12854,-7.4351 -2.59939,-3.00112 -5.09845,-4.38166 -9.46304,-5.23044 -5.99292,-1.16577 -10.02466,-4.56975 -9.80123,-8.27462 0.0616,-1.02154 -0.73019,-1.90821 -1.75959,-1.97029 -1.02937,-0.0621 -1.82079,-0.95514 -1.75871,-1.98457 0.0621,-1.02943 -0.96327,-1.9367 -2.27861,-2.01603 -1.31532,-0.0793 -2.60283,-0.86134 -2.86157,-1.73821 -0.37286,-1.26233 -1.06686,-1.28776 -3.33828,-0.12218 -2.63238,1.35099 -2.78665,1.26535 -1.8941,-1.05343 0.69989,-1.81766 0.42433,-2.55759 -0.98346,-2.64249 -1.07564,-0.0649 0.20797,-2.77071 0.26521,-3.71978 0.1785,-2.95993 -6.36329,-3.87679 -8.89167,-1.24602 -2.79653,2.91103 -3.00836,-1.08887 -5.56035,-4.27548 -1.0995,-1.37267 -4.41949,-3.26296 -7.38006,-4.20068 -2.96056,-0.93802 -5.69336,-2.28798 -6.07798,-3.00002 -0.38298,-0.71215 -2.00136,-1.37357 -3.59761,-1.46983 -1.89713,-0.11442 -3.08148,-1.09569 -3.42818,-2.83732 -0.2918,-1.47284 -1.1468,-2.32946 -1.91415,-1.9165 -1.89866,1.02085 -10.65145,-4.79129 -12.75817,-8.47158 -1.16305,-2.032 -2.9238,-3.06947 -5.46788,-3.2229 -2.10598,-0.12701 -4.00829,-1.02876 -4.33057,-2.05362 -0.3178,-1.00535 -1.51316,-1.91526 -2.65588,-2.02445 -1.14316,-0.10801 -6.18865,1.22047 -8.62594,0.65854 -3.17589,-0.73201 -7.26577,3.37934 -8.77399,4.71557 -1.15732,1.02559 -2.64691,1.83229 -3.3064,1.79251 -0.66187,-0.0399 -1.59454,0.78795 -2.07265,1.83967 -0.5621,1.23661 -1.69989,1.59226 -3.22038,1.00707 -1.29289,-0.49783 -2.74766,-0.34263 -3.23117,0.34491 -0.48445,0.68759 -1.8656,1.19076 -3.07007,1.11812 -1.20363,-0.0726 -3.94116,1.50308 -6.08601,3.50199 -2.14364,1.99898 -5.52914,4.36217 -7.51535,5.25272 -1.98888,0.89068 -5.9857,3.52095 -8.90383,5.8449 -4.28872,3.42104 -5.47541,3.87182 -6.30259,2.36679 -0.79979,-1.45037 -1.06511,-1.26871 -1.20641,0.82588 -0.29668,4.39791 -18.22998,18.69299 -21.54491,17.1822 -1.24895,-0.56771 -3.98319,1.15862 -8.08645,5.10928 -3.41071,3.28163 -7.28483,6.23678 -8.58515,6.56881 -1.31306,0.33115 -2.42757,1.27147 -2.4769,2.08938 -0.10926,1.81171 -3.23573,3.58492 -14.78247,8.39215 -8.57366,3.57446 -9.10868,3.63406 -16.85747,1.94254 -4.41101,-0.96048 -8.09743,-1.91883 -8.20541,-2.13082 -1.55312,-2.9825 -2.27342,-7.16484 -1.47486,-8.60198 0.55331,-0.9997 2.13273,-3.84088 3.52112,-6.31449 2.4207,-4.34586 2.71464,-9.44431 0.86998,-15.08538 -0.56067,-1.71436 0.83469,-3.64657 5.48231,-7.59115 4.5068,-3.83265 6.08606,-5.98619 5.73688,-7.80691 -0.29747,-1.50043 0.23437,-2.74837 1.31739,-3.0907 0.99881,-0.31565 1.87322,-1.5245 1.94333,-2.68699 0.0701,-1.16179 0.72054,-2.63871 1.44531,-3.28104 0.72502,-0.64242 2.13436,-4.46071 3.12053,-8.48414 0.99757,-4.02405 2.96724,-8.74594 4.37715,-10.49494 2.09407,-2.59465 6.39165,-17.86303 5.83691,-20.68083 -0.28628,-1.41761 4.96525,-9.83244 6.09649,-9.76422 0.62098,0.0375 0.88372,-1.23925 0.58349,-2.83782 -0.37029,-1.97126 0.30011,-3.58263 2.08628,-5.0133 2.15751,-1.72836 2.39445,-2.54498 1.31482,-4.53027 -1.0129,-1.86215 -0.94288,-2.75485 0.30328,-3.85934 0.89142,-0.78997 1.73231,-3.28958 1.86882,-5.55307 0.19816,-3.28593 -0.25566,-4.14851 -2.2548,-4.26908 -1.37241,-0.0828 -2.46929,-0.71244 -2.42791,-1.39869 0.0414,-0.68625 -1.25961,-1.32823 -2.88521,-1.42627 -1.63164,-0.0984 -3.60766,-1.0629 -4.41205,-2.14468 -0.79236,-1.08086 -2.02057,-2.00037 -2.72723,-2.04298 -0.70883,-0.0428 -3.04428,-1.59245 -5.17926,-3.44233 -2.14599,-1.85154 -4.36032,-3.40295 -4.91321,-3.44781 -0.55965,-0.0448 -4.7186,-4.2715 -9.36419,-6.94971 -4.66965,-2.67966 -9.17289,-4.9145 -10.03936,-4.96676 -0.85777,-0.0523 -1.5294,-0.59584 -1.4925,-1.20773 0.0369,-0.61179 -1.3154,-1.54879 -3.01459,-2.08475 -1.68966,-0.53399 -3.04851,-1.52238 -3.00787,-2.19625 0.0406,-0.67318 -0.76209,-1.27439 -1.78357,-1.33599 -1.02149,-0.0616 -2.94934,-1.16406 -4.27291,-2.44907 -1.3303,-1.28551 -3.09354,-2.37793 -3.91188,-2.42728 -0.8152,-0.0492 -1.99354,-1.29115 -2.61156,-2.75942 -5.98753,-10.52823 -10.34691,-3.64938 -16.41027,-9.16679 -1.57324,-1.39884 -3.41972,-2.57703 -4.09364,-2.61767 -0.67512,-0.0407 -1.61562,0.49734 -1.94278,-1.24351 -0.38396,-2.04522 -1.47066,-3.22007 -3.06112,-3.31598 -1.67688,-0.10113 -2.42843,-0.98979 -2.32155,-2.76197 0.14521,-2.40792 -0.32176,-2.57534 -5.95814,-2.14315 -5.07211,0.38888 -6.23841,0.10114 -6.80709,-1.68473 -0.48345,-1.52877 -0.17628,-1.9236 1.06067,-1.36152 0.95764,0.43534 2.12005,-0.0414 2.57618,-1.05984 1.22854,-2.70284 1.14093,-2.88034 -1.50207,-3.03973 -3.92321,-0.2366 -5.94404,-3.57881 -5.16162,-8.54161 0.84048,-5.45292 7.31804,-6.24372 11.38566,-5.99842 13.00788,-2.60007 8.72414,-3.41672 24.53941,-4.1495 8.46301,1.75063 12.41345,4.11382 15.7623,-2.18801 1.65763,-3.12468 7.60452,-0.13648 7.60452,-0.13648 0.80764,0.0297 5.05004,-0.078 6.66168,0.0192 1.61791,0.0976 2.55982,-0.81719 2.79994,0.008 0.26415,0.98739 1.03781,1.14074 2.26869,0.44989 1.02735,-0.5766 3.82852,-0.99714 6.24032,-0.93374 2.40676,0.063 6.88816,-0.46058 9.9501,-1.16364 4.80098,-1.10008 5.76142,-1.00369 6.84308,0.68759 0.82196,1.279 2.15446,1.70709 3.81521,1.22629 1.41574,-0.41142 2.88282,-0.13641 3.32033,0.62 0.53145,0.94901 1.28553,0.99439 2.50317,0.15066 0.95347,-0.66531 5.7807,-1.32331 10.71703,-1.46331 4.9363,-0.1395 10.33143,-0.6773 11.95712,-1.19758 2.38936,-0.75393 3.73621,-2.27041 6.25668,0.39736 l 3.15645,3.33756 3.4195,-3.02714 c 1.95281,-1.73058 4.1954,-2.6746 5.22985,-2.20317 2.46882,1.12075 2.58462,-1.60041 0.19871,-4.29162 -1.62213,-1.83007 -1.55193,-2.7457 0.70162,-9.12662 1.37759,-3.90074 3.07535,-7.73479 3.79903,-8.51925 0.70995,-0.78509 0.98819,-2.62688 0.61851,-4.09149 -0.45754,-1.81433 0.37015,-3.88256 2.59228,-6.4781 2.50827,-2.92992 3.19464,-4.90629 2.97818,-8.52718 -0.1679,-2.83155 0.9387,-7.76618 2.77066,-12.35562 6.20385,-15.55004 7.49944,-19.40885 6.99209,-21.01 -0.28501,-0.90169 0.66862,-4.06121 2.11925,-7.02186 1.45086,-2.96073 2.48251,-6.38433 2.29279,-7.60847 -0.18975,-1.22374 0.87851,-3.97673 2.37443,-6.11816 1.60561,-2.29832 2.71786,-5.68841 2.71568,-8.27603 -0.002,-2.41108 1.46961,-7.26912 3.25998,-10.79634 1.80023,-3.52653 3.35555,-7.57444 3.44127,-8.99576 0.17229,-2.85691 7.33408,-9.41688 10.09959,-9.2501 0.96611,0.0583 2.87092,-0.49978 4.23208,-1.24009 3.73385,-2.03081 8.64228,1.01539 9.29995,5.77171 0.28653,2.07521 1.25675,4.46285 2.15601,5.30641 0.8993,0.84276 1.55575,2.84782 1.45882,4.455 -0.0969,1.60718 0.83875,3.54792 2.07944,4.31019 1.59086,0.97894 2.02122,2.30896 1.4601,4.51528 -0.60484,2.37741 -0.2755,3.15785 1.37435,3.25734 1.55487,0.0938 1.79732,0.5521 0.85547,1.61734 -2.36132,2.67039 -2.93349,6.58385 -1.42516,9.74157 0.81409,1.7038 1.40695,4.64282 1.31744,6.53175 -0.13587,2.86772 0.38036,3.46719 3.13138,3.63309 3.55013,0.2141 6.40377,3.40557 6.25034,6.99134 -0.0519,1.2238 0.72841,2.59836 1.7339,3.05652 1.00555,0.45716 1.73682,2.34781 1.62497,4.20244 -0.11184,1.85453 0.55531,4.51101 1.4826,5.90296 0.92721,1.39294 1.6303,3.75064 1.56253,5.23766 -0.0678,1.48841 0.3379,2.92214 0.90175,3.18435 1.62767,0.76097 6.69594,13.50197 7.31039,18.374 0.30683,2.43809 1.19629,4.48795 1.97643,4.55654 0.78017,0.0681 0.40142,0.63672 -0.8417,1.26372 -2.83028,1.42811 -3.05503,3.47249 -0.39817,3.63272 1.32145,0.0797 1.70425,0.78271 1.1227,2.06242 -0.58859,1.29492 -0.063,2.20912 1.57884,2.74592 1.59443,0.52133 2.39812,1.85233 2.28196,3.77843 -0.0986,1.63582 0.37547,3.00765 1.05364,3.04855 0.67815,0.0409 1.45666,2.34244 1.73012,5.11282 0.27337,2.77189 1.07388,5.07335 1.77878,5.11586 0.70488,0.0425 0.17433,1.1618 -1.17908,2.48763 -2.37907,2.33062 -2.38278,2.38499 -0.11361,1.66789 1.57769,-0.49873 2.90136,0.0768 4.03698,1.7547 1.18161,1.746 1.89469,2.03865 2.36907,0.97248 0.85251,-1.91476 3.87547,-1.8157 4.39981,0.14432 0.27015,1.00929 1.45295,0.86132 3.78486,-0.47362 2.8598,-1.63712 3.78415,-1.66322 5.88494,-0.16785 1.49836,1.06624 2.18314,2.5771 1.71694,3.78743 -0.45481,1.18116 0.0517,2.38974 1.22473,2.92393 1.43786,0.65364 1.82998,0.37043 1.39455,-1.00708 -0.41132,-1.30102 0.42632,-2.10966 2.6087,-2.52053 2.28925,-0.43007 2.85353,-1.01246 1.95623,-2.02321 -2.02652,-2.28634 -1.35588,-3.42984 1.89732,-3.23365 1.92079,0.11584 3.26724,1.09997 3.6647,2.68077 0.50818,2.01534 1.37296,2.39469 4.47596,1.96621 2.59423,-0.35819 4.1852,0.0579 4.88697,1.2792 0.85431,1.48432 1.462,1.36829 3.37726,-0.64446 3.46132,-3.64024 9.23649,-5.38856 25.18484,-4.74544 13.03444,0.5258 14.24198,0.77074 14.68112,2.98208 0.53145,2.68276 3.87445,3.52874 4.02589,1.0176 0.053,-0.8797 1.50719,-1.63123 3.23132,-1.66931 1.72421,-0.0386 3.09616,0.57212 3.04882,1.35709 -0.0506,0.83848 0.90643,0.63212 2.32025,-0.50023 1.6505,-1.32204 4.65428,-1.79167 9.56431,-1.49556 3.93764,0.23747 4.1729,1.66802 5.55428,1.03343 1.49437,-0.68749 3.26749,-0.66671 4.38609,0.0514 1.79797,1.15352 14.73388,0.0644 19.71743,-1.65957 1.72343,-0.59643 2.20119,-0.16098 2.0773,1.89329 -0.0885,1.46703 -1.09263,2.96219 -2.23144,3.32259 -1.81238,0.57294 2.22839,1.16296 4.37813,3.04237 2.43693,2.13027 2.55743,0.17227 -0.0253,2.95023 z m -52.81865,-4.2633 c -0.30262,-0.0183 -0.9311,0.50737 -1.39663,1.16804 -0.46552,0.66067 -0.25177,1.23709 0.47499,1.28092 0.72673,0.0438 1.35521,-0.4818 1.3966,-1.16805 0.0414,-0.68625 -0.17235,-1.26267 -0.47496,-1.28091 z m -11.96007,-4.08088 c 0.0646,-1.07205 -0.74158,0.65184 0.70837,0.7993 1.31206,0.13322 2.06678,-0.1169 1.67718,-0.55655 -0.38962,-0.43955 -1.46312,-0.54877 -2.38554,-0.24305 z m -2.61552,6.95898 c 0.64574,0.0389 -1.55495,0.46974 -2.02049,1.13042 -0.46553,0.66067 2.02531,1.37441 3.09523,1.43893 1.06987,0.0645 -0.0172,-0.56456 0.0241,-1.25081 0.0414,-0.68626 -0.45308,-1.2796 -1.09886,-1.31854 z m -47.12583,72.34026 c -1.02072,1.16236 -3.51103,2.54931 -5.5348,3.0816 -2.23703,0.58878 -1.25636,1.15333 2.50288,1.44092 7.44,0.56923 10.52487,-1.28868 7.27037,-4.3745 -1.67677,-1.59007 -2.93423,-1.6339 -4.23964,-0.14692 z m -22.35933,-28.64766 c -1.24061,-0.0628 -2.98731,0.75844 -3.88168,1.82513 -0.89427,1.06671 0.0555,2.02469 2.11105,2.12886 2.05538,0.10414 3.80212,-0.71714 3.88163,-1.82513 0.0795,-1.10799 -0.87043,-2.06598 -2.111,-2.12886 z m -7.95956,75.4167 c -1.36756,0.61796 -2.54764,1.97653 -2.62241,3.01828 -0.0747,1.04257 0.94267,1.95028 2.26108,2.01711 1.31838,0.0668 2.49848,-1.29175 2.62238,-3.0183 0.12391,-1.72735 -0.89347,-2.63571 -2.26105,-2.01709 z m -8.56646,-21.02362 c -1.95833,0.54613 -1.42462,1.05229 1.36093,1.29052 2.52065,0.21509 3.97055,-0.1889 3.22203,-0.89858 -0.74847,-0.70984 -2.81083,-0.88619 -4.58293,-0.39241 z m -0.8176,-15.84614 c -1.36751,0.61796 -2.54762,1.9767 -2.62235,3.0183 -0.0747,1.04256 0.94264,1.95028 2.26102,2.01709 1.31838,0.0668 2.49848,-1.29175 2.62237,-3.0183 0.12392,-1.72735 -0.89348,-2.6357 -2.26104,-2.01709 z m -5.53297,-15.11659 c -2.33003,0.20201 -5.60142,-0.45244 -7.27441,-1.455 -3.90552,-2.34371 -6.20709,-0.61302 -4.65779,3.50375 1.51566,4.02964 15.6836,4.29822 15.97025,0.30347 0.1074,-1.49592 -1.71129,-2.55438 -4.04132,-2.35255 z m 25.85829,-71.13389 c -0.30263,-0.0183 -0.93111,0.50737 -1.39663,1.16804 -0.4655,0.66068 -0.25177,1.23709 0.47499,1.28092 0.72676,0.0438 1.35524,-0.48179 1.39662,-1.16805 0.0414,-0.68625 -0.17235,-1.26266 -0.47498,-1.28091 z m -52.17724,100.57637 c -3.55431,2.64659 -3.61869,3.08362 -0.47757,3.24281 4.92449,0.2496 10.87162,-4.18032 7.25131,-5.40192 -1.46723,-0.49539 -4.51602,0.47602 -6.77731,2.15893 z m 7.10477,-55.00662 c -1.97758,-0.10027 -3.66063,0.72431 -3.74014,1.83231 -0.0795,1.108 1.47345,2.09655 3.45103,2.19678 1.97758,0.10026 3.66067,-0.72431 3.74017,-1.8323 0.0795,-1.108 -1.47348,-2.09656 -3.45106,-2.19679 z m -27.28956,16.25906 c 0.0496,-1.98005 -1.2657,-3.22473 -2.93901,-2.77884 -1.92412,0.51114 -2.42081,-0.31857 -1.36205,-2.27611 1.42975,-2.64316 0.86328,-2.76908 -3.9922,-0.893 -4.38791,1.69643 -4.95751,2.60345 -2.52871,4.04028 1.72132,1.01924 2.30246,2.46854 1.29152,3.22136 -2.44079,1.81793 4.63267,9.10206 9.05778,9.32634 2.40305,0.12174 3.00116,-0.94326 1.93203,-3.44018 -0.85174,-1.98919 -1.50829,-5.22963 -1.45909,-7.20129 z m -11.8254,-24.30617 c -1.31844,-0.0668 -2.46215,0.78505 -2.54165,1.89304 -0.0795,1.10801 0.9341,2.06922 2.25252,2.13603 1.31839,0.0669 2.46212,-0.78504 2.54162,-1.89304 0.0795,-1.10801 -0.93411,-2.06922 -2.25249,-2.13603 z m 45.54865,-57.32142 c -0.91782,0.94326 -2.52025,2.36798 -3.56076,3.16629 -1.58544,1.21597 -1.34785,1.48446 1.46559,1.65413 2.81605,0.16982 3.39038,-0.34093 3.56077,-3.1664 0.17057,-2.82836 -0.0647,-3.0937 -1.4656,-1.65402 z M 354.78561,579.4242 c -1.3184,-0.0668 -2.49463,1.23826 -2.6139,2.9005 -0.1193,1.66207 0.86179,3.0768 2.18019,3.14361 1.31838,0.0669 2.49463,-1.2384 2.61392,-2.90064 0.1193,-1.66192 -0.86183,-3.07664 -2.18021,-3.14347 z m 74.21785,-99.74772 c -0.68625,-0.0414 -1.28358,0.51937 -1.32741,1.24615 -0.0438,0.72678 0.50271,1.00819 1.21454,0.62545 0.71183,-0.38274 1.30917,-0.9435 1.32743,-1.24615 0.0182,-0.30255 -0.5283,-0.58407 -1.21456,-0.62545 z m -2.91494,-13.95138 c -0.68624,-0.0414 -1.28158,0.48624 -1.32297,1.17249 -0.0414,0.68625 0.48623,1.28159 1.17248,1.32298 0.68625,0.0414 1.28159,-0.48623 1.32298,-1.17249 0.0414,-0.68625 -0.48624,-1.28159 -1.17249,-1.32298 z m -7.59132,-3.90205 c -2.37802,0.6356 -2.84179,4.10237 -0.6812,5.08511 1.40093,0.63689 1.93765,0.0367 2.08013,-2.3257 0.12012,-1.99188 -0.40341,-3.02507 -1.39893,-2.75941 z m -90.52031,80.53085 c -1.68808,0.47539 -0.37254,1.00094 2.9234,1.16799 3.29598,0.16706 4.67526,-0.22192 3.06926,-0.86426 -1.60785,-0.64229 -4.30459,-0.77896 -5.99262,-0.30373 z m 3.18308,-19.21384 c -3.33392,0.36237 -6.08664,1.00653 -6.11713,1.43135 -0.0306,0.42483 2.64129,0.90913 5.9372,1.07617 3.29599,0.16706 6.04866,-0.4771 6.11715,-1.43151 0.0684,-0.95424 -2.60326,-1.43855 -5.93722,-1.07601 z m -0.72811,-18.58042 c -4.10906,1.09156 -5.84725,4.59027 -2.37042,4.76648 2.33198,0.11819 8.23874,-4.09379 7.16538,-5.1098 -0.42147,-0.39968 -2.57966,-0.24557 -4.79538,0.34395 z m 47.40309,-69.29434 c -0.6862,-0.0414 -1.28159,0.48624 -1.32297,1.17249 -0.0414,0.68625 0.48628,1.2816 1.17247,1.32298 0.68644,0.0414 1.28184,-0.48622 1.32322,-1.17247 0.0414,-0.68626 -0.48628,-1.2816 -1.17272,-1.323 z m -21.17174,96.71293 c -0.87503,0.23385 -1.85984,1.47071 -2.18867,2.74964 -0.51697,2.01102 -0.31235,2.11513 1.51867,0.77372 2.50407,-1.83519 2.93051,-4.13148 0.67007,-3.52446 z m -24.16653,68.66405 c -0.87485,0.23086 -1.82954,1.76968 -2.12158,3.41969 -0.51411,2.90522 -0.46596,2.92816 1.5235,0.69367 2.48772,-2.79341 2.77064,-4.68501 0.59814,-4.11425 z m -12.83351,-31.13521 c -0.6862,-0.0414 -1.27958,0.45309 -1.31852,1.09882 -0.0389,0.64573 0.46976,1.5553 1.13044,2.01991 0.66063,0.46552 1.254,-0.0289 1.31853,-1.09882 0.0645,-1.06985 -0.44424,-1.97853 -1.13045,-2.01991 z m -19.27582,-12.43231 c -0.68643,-0.0414 -1.28157,0.48623 -1.32296,1.17249 -0.0414,0.68625 0.48604,1.28158 1.17247,1.32298 0.6862,0.0414 1.28158,-0.48624 1.32297,-1.17249 0.0414,-0.68625 -0.48627,-1.2816 -1.17248,-1.32298 z m -7.25199,-66.80774 c -0.68621,-0.0414 -1.28159,0.48623 -1.32298,1.17248 -0.0414,0.68626 0.48628,1.2816 1.17248,1.32298 0.68643,0.0414 1.28157,-0.48623 1.32296,-1.17248 0.0414,-0.68626 -0.48603,-1.28159 -1.17246,-1.32298 z m 213.14077,-4.05795 c -0.70617,0.37978 -2.23634,0.0561 -3.4013,-0.71925 -1.81543,-1.20918 -1.62815,-1.38552 1.31717,-1.24056 3.59106,0.17649 4.24942,0.79565 2.08321,1.95966 z M 430.54001,376.30391 c -4.82713,-1.47055 -4.96034,-2.02558 -0.41619,-1.75153 2.17315,0.13105 3.9176,0.8105 3.87542,1.50983 -0.0455,0.75482 -1.45081,0.85291 -3.45925,0.24139 z m -32.65547,-24.35797 c -0.71177,0.38275 -1.25837,0.10134 -1.21454,-0.62544 0.0438,-0.72678 0.64122,-1.28754 1.32741,-1.24616 0.68621,0.0414 1.23281,0.3228 1.21456,0.62545 -0.0183,0.30265 -0.61565,0.86341 -1.32743,1.24615 z"
       id="path4173"
       inkscape:connector-curvature="0"
       sodipodi:nodetypes="cccccccsccccccccccssscccscccsccccccsscccccccccccccscccccccsccccscccsccccccccsccccscccscccccccccccccccccccsccsccccccscssccccccssscccscccccccccccccccccccccscccccccccccscsccccccccssccsccccccscccsccsccccsccccccsccccccccccscccccccccscccccccccsccccccscccccccccccccccccccccccccccccccccccscccccccccccccccscccccccccssccccccccscccccccccsccscccccscccscccccscccccccccccccccccscccsccsccccccccscccccccc" />
  </g>
</svg>
