<?xml version="1.0" encoding="UTF-8" standalone="no"?>
<svg
   xmlns:dc="http://purl.org/dc/elements/1.1/"
   xmlns:cc="http://creativecommons.org/ns#"
   xmlns:rdf="http://www.w3.org/1999/02/22-rdf-syntax-ns#"
   xmlns:svg="http://www.w3.org/2000/svg"
   xmlns="http://www.w3.org/2000/svg"
   xmlns:xlink="http://www.w3.org/1999/xlink"
   xmlns:sodipodi="http://sodipodi.sourceforge.net/DTD/sodipodi-0.dtd"
   xmlns:inkscape="http://www.inkscape.org/namespaces/inkscape"
   width="146.74481mm"
   height="133.33591mm"
   viewBox="0 0 146.74481 133.33591"
   version="1.1"
   id="svg8"
   inkscape:version="1.0.1 (c497b03c, 2020-09-10)"
   sodipodi:docname="stripes.svg">
  <style
     id="style833"></style>
  <defs
     id="defs2">
    <linearGradient
       inkscape:collect="always"
       id="linearGradient1060">
      <stop
         style="stop-color:#d56350;stop-opacity:1"
         offset="0"
         id="stop1056" />
      <stop
         style="stop-color:#fff1ed;stop-opacity:1"
         offset="1"
         id="stop1058" />
    </linearGradient>
    <linearGradient
       inkscape:collect="always"
       id="linearGradient1001">
      <stop
         style="stop-color:#ebe2d9;stop-opacity:0.99415207"
         offset="0"
         id="stop997" />
      <stop
         style="stop-color:#fcfcfc;stop-opacity:1"
         offset="1"
         id="stop999" />
    </linearGradient>
    <radialGradient
       inkscape:collect="always"
       xlink:href="#linearGradient1001"
       id="radialGradient1003"
       cx="140.21648"
       cy="237.35149"
       fx="140.21648"
       fy="237.35149"
       r="73.685089"
       gradientTransform="matrix(-0.60991511,-1.0868359,0.78033577,-0.43790617,35.058374,485.85352)"
       gradientUnits="userSpaceOnUse" />
    <linearGradient
       inkscape:collect="always"
       xlink:href="#linearGradient1060"
       id="linearGradient1062"
       x1="143.63579"
       y1="261.70084"
       x2="78.537781"
       y2="120.72173"
       gradientUnits="userSpaceOnUse" />
  </defs>
  <sodipodi:namedview
     id="base"
     pagecolor="#ffffff"
     bordercolor="#666666"
     borderopacity="1.0"
     inkscape:pageopacity="0.0"
     inkscape:pageshadow="2"
     inkscape:zoom="0.66249473"
     inkscape:cx="205.99479"
     inkscape:cy="223.19067"
     inkscape:document-units="mm"
     inkscape:current-layer="layer1"
     inkscape:document-rotation="0"
     showgrid="false"
     fit-margin-top="0"
     fit-margin-left="0"
     fit-margin-right="0"
     fit-margin-bottom="0"
     inkscape:window-width="1252"
     inkscape:window-height="819"
     inkscape:window-x="0"
     inkscape:window-y="25"
     inkscape:window-maximized="0" />
  <metadata
     id="metadata5">
    <rdf:RDF>
      <cc:Work
         rdf:about="">
        <dc:format>image/svg+xml</dc:format>
        <dc:type
           rdf:resource="http://purl.org/dc/dcmitype/StillImage" />
        <dc:title></dc:title>
      </cc:Work>
    </rdf:RDF>
  </metadata>
  <g
     inkscape:label="Layer 1"
     inkscape:groupmode="layer"
     id="layer1"
     transform="translate(-39.399106,-123.91673)">
    <path
       id="Shape-1"
       d="m 42.967133,162.03316 c -0.8484,0.6566 -1.151737,1.80017 -0.740307,2.79094 l 29.308754,84.1637 c 0.230368,0.71227 0.78287,1.27438 1.491065,1.51698 0.708198,0.24261 1.489307,0.13736 2.108038,-0.28404 32.279427,-22.62429 76.616797,-9.55425 106.974777,-33.02903 0.84841,-0.6566 1.15174,-1.80018 0.74031,-2.79094 l -29.30875,-84.1637 c -0.25797,-0.7037 -0.8332,-1.24419 -1.55138,-1.45856 -0.71819,-0.21436 -1.49541,-0.0773 -2.09704,0.36958 -32.24618,22.43561 -76.655226,9.51755 -106.925467,32.88507 z"
       style="fill:url(#radialGradient1003);fill-opacity:1;stroke-width:2.37661"
       sodipodi:nodetypes="cccsccccscc" />
    <g
       id="g1054"
       style="fill-opacity:1;fill:url(#linearGradient1062)">
      <path
         id="path885-9-3"
         d="m 181.71479,217.99796 c -32.28745,22.60193 -76.69824,9.60876 -106.982816,33.00667 -0.848403,0.6566 -1.151744,1.80015 -0.740311,2.79094 l 0.650507,1.81181 c 0.230364,0.71227 0.782865,1.27437 1.49106,1.51698 0.708195,0.2426 1.489312,0.13736 2.108041,-0.28402 32.279429,-22.62431 76.675869,-9.60073 106.982809,-33.00669 0.81224,-0.63022 1.12716,-1.71125 0.78047,-2.67909 l -0.70672,-1.96839 c -0.24157,-0.69947 -0.79565,-1.24619 -1.49803,-1.47911 -0.70239,-0.23293 -1.4732,-0.12535 -2.08501,0.2909 z"
         style="fill:url(#linearGradient1062);fill-opacity:1.0;stroke-width:2.37661" />
      <path
         id="Shape"
         d="m 42.683763,161.66041 c -0.8484,0.6566 -1.151737,1.80017 -0.740307,2.79095 l 0.650502,1.81181 c 0.230369,0.71227 0.78287,1.27438 1.491065,1.51698 0.708198,0.24261 1.489308,0.13736 2.108037,-0.28404 32.279433,-22.62429 76.61681,-9.55425 106.97479,-33.02902 0.84841,-0.65661 1.15174,-1.80018 0.74031,-2.79095 l -0.6505,-1.81181 c -0.25798,-0.7037 -0.8332,-1.2442 -1.55138,-1.45856 -0.71819,-0.21437 -1.49541,-0.0773 -2.09704,0.36957 -32.24618,22.43561 -76.655238,9.51756 -106.925477,32.88507 z"
         style="fill:url(#linearGradient1062);fill-opacity:1.0;stroke-width:2.37661" />
      <path
         id="path879"
         d="m 153.60059,139.89228 c -32.30351,22.55719 -76.557724,9.5078 -106.856636,32.93613 -0.848403,0.65658 -1.15174,1.80016 -0.740309,2.79092 l 0.650505,1.81183 c 0.230367,0.71226 0.782866,1.27437 1.491061,1.51697 0.708199,0.24261 1.489313,0.13736 2.108037,-0.28403 32.279433,-22.62429 76.616802,-9.55426 106.974792,-33.02904 0.8484,-0.6566 1.15173,-1.80017 0.74031,-2.79094 l -0.6505,-1.81182 c -0.23988,-0.7356 -0.82291,-1.30832 -1.56262,-1.53517 -0.73972,-0.22687 -1.54355,-0.0795 -2.15464,0.39515 z"
         style="fill:url(#linearGradient1062);fill-opacity:1.0;stroke-width:2.37661" />
      <path
         id="path885"
         d="m 157.69749,151.02183 c -32.28746,22.60194 -76.698243,9.60876 -106.982818,33.00667 -0.848404,0.6566 -1.151742,1.80017 -0.740311,2.79094 l 0.650505,1.81182 c 0.230365,0.71226 0.782866,1.27437 1.491061,1.51697 0.708198,0.24261 1.489312,0.13736 2.108042,-0.28402 32.279429,-22.62431 76.675871,-9.60073 106.982811,-33.00667 0.81223,-0.63023 1.12716,-1.71127 0.78046,-2.6791 l -0.70672,-1.9684 c -0.24157,-0.69947 -0.79563,-1.24617 -1.49802,-1.4791 -0.70239,-0.23293 -1.4732,-0.12535 -2.08501,0.29089 z"
         style="fill:url(#linearGradient1062);fill-opacity:1.0;stroke-width:2.37661" />
      <path
         id="Shape-8"
         d="m 54.487184,194.94107 c -0.8484,0.6566 -1.151737,1.80017 -0.740307,2.79095 l 0.650502,1.81181 c 0.230369,0.71227 0.78287,1.27438 1.491065,1.51698 0.708198,0.24261 1.489308,0.13736 2.108038,-0.28404 32.279432,-22.62429 76.616798,-9.55426 106.974778,-33.02903 0.84841,-0.6566 1.15174,-1.80016 0.74031,-2.79094 l -0.6505,-1.81181 c -0.25797,-0.7037 -0.8332,-1.2442 -1.55138,-1.45856 -0.71818,-0.21436 -1.49541,-0.0773 -2.09704,0.36957 -32.24617,22.43561 -76.655227,9.51756 -106.925466,32.88507 z"
         style="fill:url(#linearGradient1062);fill-opacity:1.0;stroke-width:2.37661" />
      <path
         id="path879-3"
         d="m 165.40401,173.17294 c -32.30351,22.55718 -76.557722,9.5078 -106.856634,32.93612 -0.848404,0.65659 -1.151741,1.80017 -0.74031,2.79093 l 0.650505,1.81183 c 0.230367,0.71226 0.782866,1.27437 1.491062,1.51697 0.708198,0.24261 1.489312,0.13736 2.108037,-0.28404 32.279433,-22.62429 76.6168,-9.55425 106.97479,-33.02903 0.84839,-0.6566 1.15173,-1.80017 0.7403,-2.79095 l -0.6505,-1.8118 c -0.23988,-0.73561 -0.82291,-1.30833 -1.56262,-1.53518 -0.73972,-0.22687 -1.54355,-0.0795 -2.15463,0.39515 z"
         style="fill:url(#linearGradient1062);fill-opacity:1.0;stroke-width:2.37661" />
      <path
         id="path885-9"
         d="m 169.5009,184.3025 c -32.28745,22.60193 -76.698233,9.60874 -106.982808,33.00666 -0.848403,0.65659 -1.151744,1.80016 -0.74031,2.79094 l 0.650505,1.81182 c 0.230366,0.71226 0.782866,1.27437 1.491061,1.51697 0.708195,0.2426 1.489312,0.13736 2.108042,-0.28403 32.279429,-22.6243 76.67588,-9.60072 106.9828,-33.00667 0.81224,-0.63023 1.12716,-1.71126 0.78047,-2.67909 l -0.70672,-1.9684 c -0.24158,-0.69947 -0.79565,-1.24618 -1.49804,-1.47911 -0.70237,-0.23293 -1.47318,-0.12535 -2.085,0.29091 z"
         style="fill:url(#linearGradient1062);fill-opacity:1.0;stroke-width:2.37661" />
      <path
         id="Shape-8-0"
         d="m 66.701066,228.63654 c -0.848401,0.6566 -1.151737,1.80017 -0.740307,2.79094 l 0.650502,1.81181 c 0.230369,0.71228 0.78287,1.27438 1.491065,1.51698 0.708198,0.24262 1.489309,0.13736 2.108038,-0.28403 32.279436,-22.6243 76.616806,-9.55426 106.974786,-33.02904 0.84841,-0.6566 1.15174,-1.80016 0.7403,-2.79093 l -0.65049,-1.81182 c -0.25797,-0.7037 -0.8332,-1.2442 -1.55138,-1.45856 -0.71818,-0.21436 -1.49541,-0.0773 -2.09704,0.36958 -32.24617,22.4356 -76.65523,9.51755 -106.925474,32.88507 z"
         style="fill:url(#linearGradient1062);fill-opacity:1.0;stroke-width:2.37661" />
      <path
         id="path879-3-2"
         d="m 177.61789,206.8684 c -32.30351,22.55719 -76.55772,9.50781 -106.856632,32.93613 -0.848404,0.65659 -1.15174,1.80016 -0.74031,2.79093 l 0.650506,1.81182 c 0.230365,0.71227 0.782865,1.27438 1.49106,1.51698 0.708198,0.24261 1.489312,0.13736 2.108038,-0.28404 32.279438,-22.62429 76.616808,-9.55426 106.974788,-33.02904 0.84841,-0.65659 1.15174,-1.80017 0.74031,-2.79093 l -0.6505,-1.81182 c -0.23988,-0.7356 -0.82291,-1.30833 -1.56262,-1.53518 -0.73972,-0.22687 -1.54355,-0.0795 -2.15464,0.39515 z"
         style="fill:url(#linearGradient1062);fill-opacity:1.0;stroke-width:2.37661" />
    </g>
  </g>
</svg>
