<?xml version="1.0" encoding="UTF-8" standalone="no"?>
<svg
   xmlns:dc="http://purl.org/dc/elements/1.1/"
   xmlns:cc="http://creativecommons.org/ns#"
   xmlns:rdf="http://www.w3.org/1999/02/22-rdf-syntax-ns#"
   xmlns:svg="http://www.w3.org/2000/svg"
   xmlns="http://www.w3.org/2000/svg"
   height="787.38727"
   width="787.35156"
   xml:space="preserve"
   viewBox="0 0 787.35156 787.38727"
   y="0px"
   x="0px"
   id="Layer_1"
   version="1.1"><metadata
     id="metadata43"><rdf:RDF><cc:Work
         rdf:about=""><dc:format>image/svg+xml</dc:format><dc:type
           rdf:resource="http://purl.org/dc/dcmitype/StillImage" /><dc:title></dc:title></cc:Work></rdf:RDF></metadata><defs
     id="defs41" /><g
     style="fill:#ffffff;fill-opacity:1"
     transform="rotate(7.5954751,-795.67327,1333.0202)"
     id="g6"><g
       style="fill:#ffffff;fill-opacity:1"
       id="g4"><path
         style="fill:#ffffff;fill-opacity:1"
         id="path2"
         d="M 505.22,95.544 C 498.951,83.014 486.354,75.23 472.343,75.23 c -14.011,0 -26.608,7.784 -32.876,20.318 -1.317,2.634 -2.495,5.03 -3.58,7.239 -5.087,10.35 -7.628,15.522 -13.141,22.103 -10.145,-4.241 -21.546,-3.738 -31.16,1.516 -19.75,10.793 -19.727,26.953 -19.691,51.414 0.006,4.247 0.013,9.06 -0.052,14.425 -0.034,2.791 -2.309,5.133 -5.07,5.221 l -1.993,0.063 c -2.082,0.069 -4.138,-1.582 -4.161,-3.666 l -0.048,-33.826 c -0.15,-13.331 -8.032,-25.631 -20.082,-31.34 -16.761,-7.941 -34.708,-0.243 -40.306,7.892 -3.424,2.351 -7.727,4.52 -9.826,4.581 -0.216,-0.102 -0.387,-0.191 -0.519,-0.266 -0.466,-1.749 -0.835,-5.66 -1.355,-9.318 -3.481,-24.484 -38.395,-27.321 -53.305,-28.533 -16.61,-1.35 -36.324,-1.422 -61.005,-0.209 -4.772,0.234 -8.87,-1.634 -12.216,-5.127 L 142.382,77.292 C 134.357,68.92 122.1,65.974 111.153,69.787 100.199,73.602 92.424,83.532 91.345,95.081 c -0.291,3.113 -0.177,4.353 -1.72,5.375 -0.946,0.628 -1.398,0.448 -2.388,0.121 -17.919,-5.9 -37.74,0.013 -49.324,14.719 -57.329,72.764 -43.327,164.847 0.134,218.201 35.125,43.12 83.877,56.161 128.132,34.036 5.686,-2.846 12.575,1.287 12.362,7.969 -0.685,21.491 12.316,42.099 33.118,52.502 l 24.371,12.8 c 8.943,4.472 19.371,4.012 27.891,-1.254 15.112,-9.337 13.597,-24.483 13.597,-31.485 0,-6.138 6.417,-10.107 11.909,-7.361 l 16.83,8.414 c 16.95,8.476 37.028,-3.226 38.022,-22.137 0.145,-2.752 0.963,-9.395 5.426,-11.626 28.111,-14.055 29.503,-19.406 52.765,8.315 9.685,11.542 20.662,24.624 37.057,25.212 25.749,0.906 52.295,-32.796 33.905,-62.255 -1.856,-3.588 -5.926,-7.706 -8.459,-9.306 -4.186,-4.988 -9.328,-12.921 -9.328,-18.476 0,-7.309 3.058,-14.368 8.392,-19.369 17.223,-16.151 21.195,-42.731 9.884,-66.142 -8.074,-16.712 1.044,-28.253 13.804,-41.605 5.436,-5.69 15.306,-15.093 10.798,-27.615 1.939,-2.849 3.807,-5.943 5.5,-9.249 10.214,-19.946 10.628,-40.457 1.197,-59.321 z m -39.854,56.62 c -1.78,0.818 -3.419,1.952 -4.832,3.364 -9,8.999 -6.884,17.243 -4.646,21.555 -12.334,14.571 -27.323,39.156 -12.043,70.782 4.098,8.481 4.865,20.195 -2.657,27.249 -12.039,11.29 -18.945,27.229 -18.945,43.733 0,10.896 4.199,22.304 12.482,33.909 3.87,5.422 7.524,9.649 10.938,12.657 0.874,2.238 0.433,4.888 -1.332,6.709 -1.806,1.863 -3.05,2.749 -3.726,3.151 -3.064,-1.76 -8.938,-8.761 -12.554,-13.07 -7.49,-8.926 -15.979,-19.043 -27.518,-25.499 -25.806,-14.437 -45.771,-1.219 -65.767,8.779 -11.371,5.686 -19.21,16.111 -22.371,29.367 l -8.037,-4.018 c -27.5,-13.747 -59.842,6.029 -60.238,36.678 l -17.526,-9.376 c -9.044,-4.523 -14.942,-13.19 -14.675,-21.568 1.018,-31.923 -31.794,-53.068 -60.123,-38.904 -29.938,14.97 -62.782,5.527 -87.858,-25.257 -35.063,-43.043 -46.252,-117.47 0.206,-176.436 2.975,-3.776 7.936,-5.216 12.646,-3.664 11.363,3.746 22.369,1.9 31.281,-4.006 7.932,-5.257 13.42,-13.257 15.482,-22.378 l 14.288,14.908 c 10.044,10.481 23.526,16.094 37.966,15.376 50.16,-2.459 72.571,1.23 80.141,4.208 1.231,9.751 3.518,23.852 21.661,31.643 7.12,3.056 18.967,4.853 34.988,-3.937 4.256,-2.335 9.383,-5.81 13.266,-9.353 1.908,0.456 1.288,-0.306 1.692,35.475 0.114,10.055 4.175,19.424 11.437,26.38 8.514,8.155 18.026,10.571 28.839,10.229 20.722,-0.659 37.153,-17.436 37.408,-38.195 0.208,-17.032 -0.364,-32.6 1.084,-36.132 1.295,-1.031 2.477,-1.418 3.925,-0.635 l 8.071,4.373 c 6.498,3.521 14.539,2.35 19.764,-2.876 16.094,-16.096 19.998,-24.041 27.778,-39.869 1.055,-2.148 2.2,-4.475 3.479,-7.033 1.238,-2.476 4.772,-2.468 6.005,-0.002 9.13,18.264 -3.639,34.984 -9.979,41.683 z" /></g></g><g
     transform="translate(-229.88386,416.32084)"
     id="g8" /><g
     transform="translate(-229.88386,416.32084)"
     id="g10" /><g
     transform="translate(-229.88386,416.32084)"
     id="g12" /><g
     transform="translate(-229.88386,416.32084)"
     id="g14" /><g
     transform="translate(-229.88386,416.32084)"
     id="g16" /><g
     transform="translate(-229.88386,416.32084)"
     id="g18" /><g
     transform="translate(-229.88386,416.32084)"
     id="g20" /><g
     transform="translate(-229.88386,416.32084)"
     id="g22" /><g
     transform="translate(-229.88386,416.32084)"
     id="g24" /><g
     transform="translate(-229.88386,416.32084)"
     id="g26" /><g
     transform="translate(-229.88386,416.32084)"
     id="g28" /><g
     transform="translate(-229.88386,416.32084)"
     id="g30" /><g
     transform="translate(-229.88386,416.32084)"
     id="g32" /><g
     transform="translate(-229.88386,416.32084)"
     id="g34" /><g
     transform="translate(-229.88386,416.32084)"
     id="g36" /><circle
     transform="rotate(7.5954751)"
     r="376.67477"
     cy="338.22177"
     cx="442.26169"
     id="path4539"
     style="opacity:1;fill:none;fill-opacity:1;stroke:#ffffff;stroke-width:32;stroke-linecap:round;stroke-miterlimit:4;stroke-dasharray:none;stroke-dashoffset:0;stroke-opacity:1" /><ellipse
     transform="rotate(7.5954751)"
     ry="253.83099"
     rx="260.33948"
     cy="343.37344"
     cx="441.68631"
     id="path4549"
     style="opacity:0.95999995;fill:none;fill-opacity:1;stroke:#000000;stroke-width:0;stroke-linecap:round;stroke-miterlimit:4;stroke-dasharray:none;stroke-dashoffset:0;stroke-opacity:1" /><g
     transform="translate(-229.88386,-571.67818)"
     id="text4572"
     style="font-style:normal;font-variant:normal;font-weight:bold;font-stretch:normal;font-size:42.66666794px;line-height:125%;font-family:'.SF Compact Rounded';-inkscape-font-specification:'.SF Compact Rounded Bold';letter-spacing:0px;word-spacing:0px;fill:#ffffff;fill-opacity:1;stroke:none;stroke-width:1px;stroke-linecap:butt;stroke-linejoin:miter;stroke-opacity:1"
     aria-label="for U.S."><path
       id="path4619"
       style="font-style:normal;font-variant:normal;font-weight:bold;font-stretch:normal;font-size:113.33333588px;font-family:'.SF NS Rounded';-inkscape-font-specification:'.SF NS Rounded Bold';fill:#ffffff;fill-opacity:1"
       d="m 499.85769,746.90096 q 3.20266,-1.63749 4.21623,-4.5175 1.03766,-2.95448 -0.87695,-6.69914 l -18.16353,-35.52497 5.71553,-2.92229 q 2.2665,-1.15883 3.06447,-3.24494 0.82205,-2.16056 -0.48794,-4.7227 -1.31,-2.56213 -3.5428,-3.16079 -2.18354,-0.62384 -4.45004,0.535 l -6.06043,3.09863 -1.71307,-3.35048 q -1.48633,-2.90704 -0.76283,-5.01722 0.69831,-2.15946 3.99841,-3.97107 0.81243,-0.47753 1.42777,-0.8543 0.63942,-0.45124 1.12991,-0.95063 2.47877,-2.32396 0.96725,-5.28026 -1.2848,-2.51287 -4.67828,-2.82884 -3.36939,-0.39045 -9.13419,2.55703 -7.41485,3.85329 -9.39384,9.46439 -1.92971,5.58591 2.07584,13.42012 l 2.04057,3.99102 -2.75922,1.41076 q -2.26651,1.15884 -3.08855,3.3194 -0.77278,2.13538 0.53721,4.69751 1.30999,2.56213 3.49353,3.18598 2.20761,0.54938 4.47411,-0.60945 l 2.75923,-1.41076 18.16353,35.52497 q 1.9146,3.74465 4.86796,4.65857 2.97745,0.83945 6.18012,-0.79804 z" /><path
       id="path4621"
       style="font-style:normal;font-variant:normal;font-weight:bold;font-stretch:normal;font-size:113.33333588px;font-family:'.SF NS Rounded';-inkscape-font-specification:'.SF NS Rounded Bold';fill:#ffffff;fill-opacity:1"
       d="m 548.76096,727.61275 q 8.62537,-2.44368 13.9657,-7.75277 5.32526,-5.36233 6.90049,-12.99819 1.6134,-7.70419 -1.04147,-17.07495 -2.62469,-9.26427 -8.02428,-14.92407 -5.3996,-5.6598 -12.74617,-7.43203 -7.34657,-1.77222 -15.91869,0.65637 -8.57211,2.4286 -13.89737,7.79093 -5.32525,5.36233 -7.00698,13.02836 -1.62847,7.65094 0.99622,16.91522 2.65487,9.37076 8.0163,15.09888 5.39959,5.6598 12.74616,7.43203 7.38473,1.7039 16.01009,-0.73978 z m -3.36383,-11.87318 q -3.83349,1.08608 -7.24366,-0.19092 -3.35693,-1.29208 -6.03231,-4.84786 -2.69047,-3.60901 -4.3045,-9.30601 -1.59896,-5.64376 -1.18624,-10.07443 0.39762,-4.48391 2.63121,-7.35986 2.2185,-2.9292 5.99875,-4.0002 3.78025,-1.07099 7.15226,0.27433 3.41017,1.277 6.10064,4.88602 2.67538,3.55577 4.27433,9.19953 1.61403,5.697 1.21641,10.18091 -0.41271,4.43067 -2.6463,7.30662 -2.18034,2.86087 -5.96059,3.93187 z" /><path
       id="path4623"
       style="font-style:normal;font-variant:normal;font-weight:bold;font-stretch:normal;font-size:113.33333588px;font-family:'.SF NS Rounded';-inkscape-font-specification:'.SF NS Rounded Bold';fill:#ffffff;fill-opacity:1"
       d="m 593.33727,718.9351 q 3.69735,-0.27652 5.68446,-2.64485 2.04229,-2.37247 1.741,-6.40093 l -1.96454,-26.26779 q -0.39208,-5.24252 1.59656,-8.33238 1.9845,-3.14505 7.49882,-3.61295 2.3688,-0.23265 4.03825,-0.91244 1.72463,-0.68391 2.80921,-1.7639 2.16917,-2.15999 1.88852,-5.91253 -0.15683,-2.097 -0.8753,-3.54159 -0.6674,-1.50389 -1.89231,-2.30017 -0.9366,-0.65136 -2.23474,-0.94273 -1.24294,-0.29549 -2.89848,-0.17167 -4.41475,0.33017 -7.54988,3.67226 -3.07994,3.33796 -3.88128,8.9472 l -0.33111,0.0248 -0.28477,-3.80772 q -0.29303,-3.9181 -2.60206,-5.85415 -2.25797,-1.99536 -5.62422,-1.7436 -3.47661,0.26002 -5.46785,2.57317 -1.99536,2.25797 -1.70645,6.12088 l 3.36778,45.03049 q 0.30129,4.02846 2.67375,6.07075 2.37246,2.04229 6.01464,1.76989 z" /><path
       id="path4625"
       style="font-style:normal;font-variant:normal;font-weight:bold;font-stretch:normal;font-size:113.33333588px;font-family:'.SF NS Rounded';-inkscape-font-specification:'.SF NS Rounded Bold';fill:#ffffff;fill-opacity:1"
       d="m 682.65503,725.1475 q 9.99919,2.19666 18.09144,0.1783 8.15818,-2.06054 13.58271,-7.66784 5.43641,-5.66135 7.32435,-14.25525 l 9.43968,-42.96948 q 0.89054,-4.05373 -0.78462,-6.74472 -1.66329,-2.74504 -5.50082,-3.58808 -3.83752,-0.84304 -6.49821,0.9521 -2.64881,1.74108 -3.53935,5.7948 l -9.08347,41.348 q -1.65046,7.51291 -6.91778,11.11505 -5.20141,3.55996 -13.03861,1.83826 -7.8372,-1.72171 -11.1216,-7.14586 -3.27252,-5.4782 -1.62206,-12.99111 l 9.08347,-41.34799 q 0.89054,-4.05373 -0.78462,-6.74472 -1.66329,-2.74504 -5.50082,-3.58808 -3.83752,-0.84304 -6.49821,0.95209 -2.64881,1.74109 -3.53935,5.79481 l -9.43968,42.96949 q -1.88794,8.5939 0.675,16.01257 2.57482,7.36462 9.11816,12.65484 6.55521,5.23617 16.55439,7.43282 z" /><path
       id="path4627"
       style="font-style:normal;font-variant:normal;font-weight:bold;font-stretch:normal;font-size:113.33333588px;font-family:'.SF NS Rounded';-inkscape-font-specification:'.SF NS Rounded Bold';fill:#ffffff;fill-opacity:1"
       d="m 726.10776,738.87935 q 3.40448,1.46848 6.82283,0.11039 3.41834,-1.35809 4.88682,-4.76257 1.46848,-3.40447 0.11039,-6.82282 -1.35809,-3.41834 -4.76256,-4.88682 -3.40448,-1.46848 -6.87364,-0.13231 -3.41834,1.35809 -4.88682,4.76256 -1.46848,3.40448 -0.1104,6.82283 1.40891,3.44026 4.81338,4.90874 z" /><path
       id="path4629"
       style="font-style:normal;font-variant:normal;font-weight:bold;font-stretch:normal;font-size:113.33333588px;font-family:'.SF NS Rounded';-inkscape-font-specification:'.SF NS Rounded Bold';fill:#ffffff;fill-opacity:1"
       d="m 770.59198,764.31424 q 8.20273,5.65115 15.88506,7.18058 7.75929,1.51526 14.18296,-0.98086 6.45506,-2.54168 10.8818,-8.96715 5.14883,-7.47359 3.45482,-15.15906 -1.69401,-7.68547 -10.76249,-16.95707 l -5.95349,-6.18478 q -5.01677,-5.20344 -6.25013,-8.87555 -1.20196,-3.71767 0.90153,-6.77091 1.66395,-2.41525 4.30106,-3.21925 2.6685,-0.84958 5.91116,-0.094 3.24265,0.75558 6.61489,3.07883 2.82538,1.94651 4.64716,4.2768 1.82178,2.33029 2.48603,5.07272 0.70981,2.77382 0.0768,6.0337 -0.30492,2.88113 0.55379,4.95113 0.93567,2.05582 3.21421,3.62558 2.6745,1.77536 5.30552,1.37036 2.67659,-0.3736 4.40333,-2.87999 1.16162,-1.68612 1.60221,-3.39859 1.49289,-5.28829 0.22414,-10.66478 -1.26874,-5.37649 -5.09154,-10.36216 -3.74584,-4.99984 -9.76117,-9.14402 -7.29131,-5.02325 -14.71439,-6.44128 -7.37751,-1.38662 -13.72117,0.89581 -6.34365,2.28243 -10.48783,8.29777 -5.05465,7.33688 -3.45787,15.35856 1.64235,8.05308 10.16702,16.74844 l 5.95349,6.18478 q 5.34995,5.50017 6.52051,9.26342 1.24753,3.74907 -0.98153,6.98459 -1.66395,2.41525 -4.53196,3.26178 -2.83661,0.80095 -6.36991,-0.0205 -3.5333,-0.82142 -7.22453,-3.36444 -3.14438,-2.16628 -5.29933,-4.7933 -2.15495,-2.62703 -3.06123,-5.60339 -0.87488,-3.02194 -0.19626,-6.25042 0.27656,-3.03507 -0.59936,-4.98253 -0.83036,-1.91606 -2.97218,-3.39164 -2.68867,-1.85233 -5.53642,-1.32784 -2.81634,0.47892 -4.70006,3.21317 -0.6593,0.95698 -1.13632,2.03955 -0.40005,1.06839 -0.70897,2.19957 -1.12728,4.46498 0.17591,9.59639 1.34875,5.16282 5.29105,10.36521 3.97369,5.15682 10.76372,9.83472 z" /><path
       id="path4631"
       style="font-style:normal;font-variant:normal;font-weight:bold;font-stretch:normal;font-size:113.33333588px;font-family:'.SF NS Rounded';-inkscape-font-specification:'.SF NS Rounded Bold';fill:#ffffff;fill-opacity:1"
       d="m 810.09531,796.77667 q 2.58285,2.66005 6.26069,2.7142 3.67785,0.0542 6.33789,-2.52868 2.66005,-2.58285 2.7142,-6.26069 0.0542,-3.67785 -2.52868,-6.33789 -2.58285,-2.66004 -6.29924,-2.7539 -3.67785,-0.0542 -6.33789,2.52868 -2.66005,2.58285 -2.7142,6.26069 -0.0156,3.71755 2.56723,6.37759 z" /></g><g
     transform="translate(-229.88386,-571.67818)"
     id="text4591"
     style="font-style:normal;font-variant:normal;font-weight:bold;font-stretch:normal;font-size:113.33333588px;line-height:125%;font-family:'.SF NS Rounded';-inkscape-font-specification:'.SF NS Rounded Bold';letter-spacing:0.08px;word-spacing:0px;opacity:0.95999995;fill:#ffffff;fill-opacity:1;stroke:none;stroke-width:1px;stroke-linecap:butt;stroke-linejoin:miter;stroke-opacity:1"
     aria-label="voters"><path
       id="path4634"
       style="letter-spacing:20px;fill:#ffffff;fill-opacity:1"
       d="m 420.13348,1209.24 q 3.19932,3.06 6.49589,3.4563 3.37482,0.3945 7.39982,-1.6521 l 39.99784,-19.4819 q 0.96844,-0.4521 1.96989,-1.179 1.04145,-0.6885 1.7682,-1.4484 2.14198,-2.2395 1.91756,-5.2874 -0.14617,-3.0497 -2.58566,-5.3829 -2.03956,-1.9507 -4.55025,-2.2079 -2.47069,-0.219 -5.36728,1.5285 l -36.21615,20.5719 -0.23994,-0.2295 18.78507,-37.014 q 3.23373,-5.943 -1.08536,-10.074 -2.47947,-2.3714 -5.57609,-2.5765 -3.05663,-0.1668 -5.35161,2.2327 -0.84149,0.8798 -1.52127,1.9909 -0.64154,1.071 -1.08834,2.0986 l -17.45309,40.5853 q -1.82372,4.2286 -1.24112,7.5425 0.5826,3.3139 3.94189,6.5269 z" /><path
       id="path4636"
       style="letter-spacing:20px;fill:#ffffff;fill-opacity:1"
       d="m 487.06441,1256.8989 q 7.97371,4.0973 15.50024,3.8586 7.55182,-0.288 13.91269,-4.7965 6.43539,-4.5325 10.88685,-13.1953 4.40088,-8.5644 4.31388,-16.3862 -0.087,-7.8219 -4.24964,-14.1294 -4.16264,-6.3076 -12.08713,-10.3797 -7.92448,-4.072 -15.4763,-3.7841 -7.55182,0.288 -14.01114,4.746 -6.4101,4.4832 -10.81097,13.0476 -4.45146,8.6628 -4.43898,16.5086 0.087,7.8218 4.24964,14.1294 4.23716,6.2836 12.21086,10.381 z m 5.64021,-10.9762 q -3.54387,-1.821 -5.16615,-5.0811 -1.57306,-3.2348 -1.10352,-7.6598 0.49482,-4.4743 3.20111,-9.7409 2.68099,-5.2173 6.00531,-8.1754 3.34962,-3.0072 6.9447,-3.5863 3.62038,-0.6284 7.11503,1.1674 3.49465,1.7958 5.04242,5.0798 1.62228,3.2601 1.12745,7.7343 -0.46954,4.425 -3.15053,9.6424 -2.70629,5.2666 -6.0559,8.2738 -3.32432,2.9581 -6.91941,3.5372 -3.54586,0.6044 -7.04051,-1.1914 z" /><path
       id="path4638"
       style="letter-spacing:20px;fill:#ffffff;fill-opacity:1"
       d="m 548.70865,1263.3123 q -1.75323,7.66 1.34963,12.4576 3.10287,4.7976 10.97863,6.6003 l 0.53944,0.1234 q 3.3445,0.7655 5.99876,0.5783 2.72055,-0.2289 4.48114,-1.4723 1.76059,-1.2433 2.2915,-3.5629 0.62968,-2.7511 -0.63836,-4.4038 -1.20175,-1.6943 -4.04063,-2.6847 l -1.00023,-0.3425 q -2.48597,-0.796 -3.29777,-2.4578 -0.8118,-1.6619 -0.10804,-4.7366 l 6.32153,-27.6192 5.55619,1.2717 q 2.80506,0.6421 4.79377,-0.6058 1.98871,-1.2479 2.6184,-3.9991 0.62968,-2.7511 -0.63057,-4.6859 -1.24791,-1.9887 -4.05298,-2.6307 l -5.55619,-1.2717 1.45691,-6.3654 q 0.88897,-3.8839 -0.72096,-6.5232 -1.59759,-2.6932 -5.26576,-3.5328 -3.66816,-0.8395 -6.27818,0.8906 -2.59767,1.6763 -3.48663,5.5602 l -1.45691,6.3653 -3.02085,-0.6914 q -2.80506,-0.642 -4.84772,0.5936 -1.97636,1.1939 -2.60604,3.945 -0.62968,2.7512 0.61822,4.7399 1.30185,2.001 4.10692,2.6431 l 3.02084,0.6914 z" /><path
       id="path4640"
       style="letter-spacing:20px;fill:#ffffff;fill-opacity:1"
       d="m 626.68364,1288.9531 q 8.63154,-0.1485 15.05285,-3.303 6.4757,-3.2107 9.31401,-8.7389 1.0714,-2.0662 1.03904,-3.9475 -0.0476,-2.7665 -1.95545,-4.2834 -1.8535,-1.5732 -4.45402,-1.5284 -1.54925,0.027 -2.75701,0.6008 -1.2087,0.5189 -2.45846,1.8688 -3.19789,3.9292 -6.43383,5.6453 -3.18157,1.6597 -7.60799,1.7359 -6.08634,0.1046 -9.86199,-3.8154 -3.77565,-3.92 -3.88888,-10.5043 -0.003,-0.166 -0.006,-0.332 -0.003,-0.166 -0.007,-0.3873 l 33.86218,-0.5824 q 3.37515,-0.058 5.16965,-1.9153 1.79355,-1.9127 1.73646,-5.2325 -0.13893,-8.0782 -3.78664,-14.2143 -3.64867,-6.1914 -10.01723,-9.6241 -6.36856,-3.4327 -14.77878,-3.288 -8.74219,0.1503 -15.15019,4.0794 -6.408,3.9292 -9.82829,11.017 -3.36592,7.0316 -3.2013,16.6037 0.2474,14.3859 8.18886,22.3853 7.94146,7.9994 21.82938,7.7606 z m -14.02844,-36.8964 q 0.211,-3.8226 1.87771,-6.6739 1.66576,-2.9067 4.40468,-4.5589 2.73893,-1.6521 6.28007,-1.713 3.54114,-0.061 6.27993,1.497 2.79316,1.5017 4.44722,4.3513 1.65311,2.7943 1.83038,6.6655 z" /><path
       id="path4642"
       style="letter-spacing:20px;fill:#ffffff;fill-opacity:1"
       d="m 689.98633,1280.6104 q 3.57753,-0.9737 5.07864,-3.6764 1.5545,-2.7172 0.49356,-6.6151 l -6.9179,-25.4165 q -1.38068,-5.0726 -0.0151,-8.4839 1.35104,-3.4647 6.6761,-4.9715 2.2815,-0.6783 3.79144,-1.6628 1.56334,-0.999 2.42305,-2.2654 1.71943,-2.5326 0.73116,-6.1636 -0.55227,-2.029 -1.53203,-3.3108 -0.94089,-1.3498 -2.29474,-1.8989 -1.04327,-0.4616 -2.37312,-0.5011 -1.27644,-0.054 -2.87832,0.3819 -4.27168,1.1627 -6.71497,5.0394 -2.38989,3.8622 -2.11126,9.5215 l -0.32038,0.087 -1.0028,-3.6843 q -1.03187,-3.7911 -3.66659,-5.2534 -2.59585,-1.5301 -5.85301,-0.6436 -3.36395,0.9156 -4.87959,3.5649 -1.53017,2.5958 -0.51283,6.3335 l 11.85927,43.5712 q 1.06094,3.8979 3.77812,5.4524 2.71717,1.5545 6.24131,0.5953 z" /><path
       id="path4644"
       style="letter-spacing:20px;fill:#ffffff;fill-opacity:1"
       d="m 760.91202,1252.6057 q 6.86319,-3.827 10.82754,-8.7621 3.98573,-5.0103 4.73519,-10.3703 0.77084,-5.4353 -2.11288,-10.6069 -3.23409,-5.7999 -8.73999,-7.0382 -5.45757,-1.2653 -14.69263,1.6033 l -9.57895,2.9336 q -4.32475,1.3344 -6.771,0.9244 -2.42487,-0.4853 -3.55679,-2.5153 -1.40144,-2.5133 0.0347,-5.2783 1.4092,-2.8133 4.98579,-4.8076 3.81826,-2.1291 7.02758,-1.8278 3.25766,0.2744 6.41487,1.6186 1.58651,0.5726 3.28461,0.3227 1.69809,-0.2499 3.0514,-1.0046 2.70661,-1.5092 3.3053,-3.6171 0.57173,-2.1563 -0.61409,-4.2829 -0.53902,-0.9667 -1.49721,-1.8896 -2.46564,-2.4902 -6.61645,-3.3436 -4.12943,-0.9288 -9.1912,-0.01 -5.06176,0.9217 -10.47498,3.9402 -10.05313,5.6057 -13.56688,13.3942 -3.49237,7.7131 0.65803,15.1563 3.20713,5.7516 9.15449,7.4407 5.94736,1.6892 14.50019,-0.9257 l 9.7509,-2.9662 q 4.27642,-1.3074 6.47544,-0.8863 2.2204,0.3459 3.37928,2.4242 0.94327,1.6916 0.58068,3.5412 -0.31426,1.8226 -1.87025,3.5773 -1.50765,1.7277 -4.06926,3.1561 -4.05992,2.2638 -7.37058,2.4625 -3.28929,0.1235 -6.87681,-1.4243 -4.58202,-1.6268 -7.91696,0.2328 -2.51328,1.4015 -3.27278,3.7891 -0.75949,2.3877 0.58804,4.8043 0.70072,1.2567 1.98699,2.3135 4.39695,3.5675 11.76554,3.2603 7.34164,-0.3556 16.28312,-5.3414 z" /></g><ellipse
     transform="matrix(0.99122598,0.13217811,0.13217811,-0.99122598,0,0)"
     ry="276.56592"
     rx="283.65735"
     cy="-384.13138"
     cx="443.17117"
     id="path4549-9"
     style="opacity:0.95999995;fill:none;fill-opacity:1;stroke:#a19a00;stroke-width:0;stroke-linecap:round;stroke-miterlimit:4;stroke-dasharray:none;stroke-dashoffset:0;stroke-opacity:1" /></svg>