<?xml version="1.0" encoding="UTF-8" standalone="no"?>
<!-- Generator: Adobe Illustrator 19.0.0, SVG Export Plug-In . SVG Version: 6.00 Build 0)  -->

<svg
   xmlns:dc="http://purl.org/dc/elements/1.1/"
   xmlns:cc="http://creativecommons.org/ns#"
   xmlns:rdf="http://www.w3.org/1999/02/22-rdf-syntax-ns#"
   xmlns:svg="http://www.w3.org/2000/svg"
   xmlns="http://www.w3.org/2000/svg"
   xmlns:sodipodi="http://sodipodi.sourceforge.net/DTD/sodipodi-0.dtd"
   xmlns:inkscape="http://www.inkscape.org/namespaces/inkscape"
   version="1.1"
   id="Layer_1"
   x="0px"
   y="0px"
   viewBox="0 0 600 500"
   xml:space="preserve"
   sodipodi:docname="united-states2.svg"
   width="600"
   height="500"
   inkscape:version="0.92.2 5c3e80d, 2017-08-06"><metadata
     id="metadata3023"><rdf:RDF><cc:Work
         rdf:about=""><dc:format>image/svg+xml</dc:format><dc:type
           rdf:resource="http://purl.org/dc/dcmitype/StillImage" /><dc:title></dc:title></cc:Work></rdf:RDF></metadata><defs
     id="defs3021" /><sodipodi:namedview
     pagecolor="#ffffff"
     bordercolor="#666666"
     borderopacity="1"
     objecttolerance="10"
     gridtolerance="10"
     guidetolerance="10"
     inkscape:pageopacity="0"
     inkscape:pageshadow="2"
     inkscape:window-width="1108"
     inkscape:window-height="703"
     id="namedview3019"
     showgrid="false"
     inkscape:measure-start="271.898,625.966"
     inkscape:measure-end="271.932,617.017"
     showguides="false"
     inkscape:zoom="0.35355339"
     inkscape:cx="45.181451"
     inkscape:cy="432.4749"
     inkscape:window-x="271"
     inkscape:window-y="53"
     inkscape:window-maximized="0"
     inkscape:current-layer="Layer_1" /><g
     id="g2988"
     transform="translate(0,-12)" /><g
     id="g2990"
     transform="translate(0,-12)" /><g
     id="g2992"
     transform="translate(0,-12)" /><g
     id="g2994"
     transform="translate(0,-12)" /><g
     id="g2996"
     transform="translate(0,-12)" /><g
     id="g2998"
     transform="translate(0,-12)" /><g
     id="g3000"
     transform="translate(0,-12)" /><g
     id="g3002"
     transform="translate(0,-12)" /><g
     id="g3004"
     transform="translate(0,-12)" /><g
     id="g3006"
     transform="translate(0,-12)" /><g
     id="g3008"
     transform="translate(0,-12)" /><g
     id="g3010"
     transform="translate(0,-12)" /><g
     id="g3012"
     transform="translate(0,-12)" /><g
     id="g3014"
     transform="translate(0,-12)" /><g
     id="g3016"
     transform="translate(0,-12)" /><path
     style="fill:#fff7ee"
     d="m 556,408.22386 c 0,5.929 -4.851,10.779 -10.778,10.779 H 54.779 C 48.85,419.00186 44,414.15186 44,408.22386 v -316.432 c 0,-5.928 4.85,-10.779 10.779,-10.779 h 490.443 c 5.928,0 10.778,4.851 10.778,10.779 z"
     id="path2858"
     inkscape:connector-curvature="0" /><g
     id="g2866"
     transform="translate(44,-5.99214)"><path
       style="fill:#e02424"
       d="m 505.222,87.006 h -295.85 v 32.508 H 512 v -25.73 c 0,-5.928 -0.852,-6.778 -6.778,-6.778 z"
       id="path2860"
       inkscape:connector-curvature="0"
       sodipodi:nodetypes="scccss" /><path
       style="fill:#e02424"
       d="m 209.371,209.198 v 20.283 c 0,6.724 -5.467,12.225 -12.15,12.225 H 512 V 209.199 H 209.371 Z"
       id="path2862"
       inkscape:connector-curvature="0" /><rect
       y="270.29401"
       style="fill:#e02424"
       width="512"
       height="32.507"
       id="rect2864"
       x="0" /></g><g
     id="g2876"
     transform="translate(44,-5.99214)"><rect
       y="331.38901"
       style="fill:#e02424"
       width="512"
       height="32.507"
       id="rect2870"
       x="0" /><path
       style="fill:#e02424"
       d="M 512,418.216 V 392.487 H 0 v 25.729 c 0,5.929 0.85,6.779 6.779,6.779 h 498.443 c 5.926,-10e-4 6.778,-0.851 6.778,-6.779 z"
       id="path2872"
       inkscape:connector-curvature="0"
       sodipodi:nodetypes="sccsscs" /><rect
       x="209.366"
       y="148.104"
       style="fill:#e02424"
       width="302.62299"
       height="32.507"
       id="rect2874" /></g><path
     style="fill:#0853a4"
     d="m 50.779,81.01386 c -5.929,0 -6.779,0.85 -6.779,6.778 v 147.921 h 212.716 c 6.683,0 8.15,-1.501 8.15,-8.225 v -146.474 z"
     id="path2878"
     inkscape:connector-curvature="0"
     sodipodi:nodetypes="sscsscs" /><path
     style="fill:#fff7ee;fill-opacity:1;stroke-width:0.99984896"
     inkscape:connector-curvature="0"
     d="m 95.47675,167.16638 21.21,21.21 -21.21,21.21 -21.21,-21.21 z"
     id="path5807" /><path
     style="fill:#fff7ee;fill-opacity:1;stroke-width:0.99984896"
     inkscape:connector-curvature="0"
     d="m 95.46975,107.17238 21.21,21.21 -21.21,21.21 -21.21,-21.21 z"
     id="path5809" /><path
     style="fill:#fff7ee;fill-opacity:1;stroke-width:0.99984896"
     inkscape:connector-curvature="0"
     d="m 155.46975,167.15938 21.21,21.21 -21.21,21.21 -21.21,-21.21 z"
     id="path5811" /><path
     style="fill:#fff7ee;fill-opacity:1;stroke-width:0.99984896"
     inkscape:connector-curvature="0"
     d="m 155.46375,107.16638 21.21,21.21 -21.21,21.21 -21.21,-21.21 z"
     id="path5813" /><path
     style="fill:#fff7ee;fill-opacity:1;stroke-width:0.99984896"
     inkscape:connector-curvature="0"
     d="m 215.46375,167.15338 21.21,21.21 -21.21,21.21 -21.21,-21.21 z"
     id="path5815" /><path
     style="fill:#fff7ee;fill-opacity:1;stroke-width:0.99984896"
     inkscape:connector-curvature="0"
     d="m 215.45775,107.15938 21.21,21.21 -21.21,21.21 -21.21,-21.21 z"
     id="path5817" /></svg>