<?xml version="1.0" encoding="iso-8859-1"?>
<!-- Generator: Adobe Illustrator 19.0.0, SVG Export Plug-In . SVG Version: 6.00 Build 0)  -->
<svg xmlns="http://www.w3.org/2000/svg" xmlns:xlink="http://www.w3.org/1999/xlink" version="1.1" id="Layer_1" x="0px" y="0px" viewBox="0 0 512 512" style="enable-background:new 0 0 512 512;" xml:space="preserve" width="512" height="512">
<g>
	<rect x="276" y="400" width="15" height="16"/>
	<path d="M300,249h-17v-89h17v48h15v-63h-47v56h-96v135c0,8.547,7.453,16,16,16h16v17h-16v143h15V384h105v128h15V369h-16v-17h25   c8.547,0,15-7.453,15-16V225h-47V249z M268,249h-17v-33h17V249z M219,249v-33h17v33H219z M204,216v33h-17v-33H204z M315,240h17v96   c0,0.275,0.276,1,0,1h-40v32h-73v-32h-31c-0.276,0-1-0.725-1-1v-72h113v9h-24c-8.547,0-16,6.453-16,15v40h15v-40   c0-0.275,0.724,0,1,0h39V240z"/>
	<polygon points="203,43.106 203,0 188,0 188,36.894 176.894,49 175.106,49 163,36.894 163,0 148,0 148,43.106 168.894,64    183.106,64  "/>
	<path d="M259,1h-47v63h47V1z M244,49h-17V16h17V49z"/>
	<polygon points="364,16 364,1 324,1 324,64 364,64 364,49 339,49 339,40 364,40 364,25 339,25 339,16  "/>
	<polygon points="284,64 299,64 299,16 316,16 316,1 268,1 268,16 284,16  "/>
	<rect x="231.029" y="116.5" transform="matrix(-0.7071 -0.7071 0.7071 -0.7071 335.6812 387.0437)" width="33.941" height="15"/>
	<rect x="328.5" y="107.029" transform="matrix(-0.7071 -0.7071 0.7071 -0.7071 485.8913 449.2762)" width="15" height="33.941"/>
	<rect x="284" y="96" width="15" height="32"/>
</g>















</svg>
