<?xml version="1.0" encoding="UTF-8" standalone="no"?>
<svg
   xmlns:dc="http://purl.org/dc/elements/1.1/"
   xmlns:cc="http://creativecommons.org/ns#"
   xmlns:rdf="http://www.w3.org/1999/02/22-rdf-syntax-ns#"
   xmlns:svg="http://www.w3.org/2000/svg"
   xmlns="http://www.w3.org/2000/svg"
   xmlns:sodipodi="http://sodipodi.sourceforge.net/DTD/sodipodi-0.dtd"
   xmlns:inkscape="http://www.inkscape.org/namespaces/inkscape"
   viewBox="0 0 369.09656 377.35745"
   height="377.35745"
   width="369.09656"
   xml:space="preserve"
   version="1.1"
   id="svg5952"
   sodipodi:docname="yellow_star.svg"
   inkscape:version="0.92.2 5c3e80d, 2017-08-06"><sodipodi:namedview
     pagecolor="#ffffff"
     bordercolor="#666666"
     borderopacity="1"
     objecttolerance="10"
     gridtolerance="10"
     guidetolerance="10"
     inkscape:pageopacity="0"
     inkscape:pageshadow="2"
     inkscape:window-width="925"
     inkscape:window-height="646"
     id="namedview4627"
     showgrid="false"
     inkscape:zoom="0.62540172"
     inkscape:cx="184.54828"
     inkscape:cy="188.67873"
     inkscape:window-x="0"
     inkscape:window-y="0"
     inkscape:window-maximized="0"
     inkscape:current-layer="svg5952" /><metadata
     id="metadata5958"><rdf:RDF><cc:Work
         rdf:about=""><dc:format>image/svg+xml</dc:format><dc:type
           rdf:resource="http://purl.org/dc/dcmitype/StillImage" /><dc:title /></cc:Work></rdf:RDF></metadata><defs
     id="defs5956" /><g
     id="g5962"
     transform="matrix(1.25,0,0,-1.25,-516.70354,1119.2423)"
     style="fill:#ff9800;fill-opacity:1" /><g
     id="g5964"
     transform="matrix(1.25,0,0,-1.25,-516.70354,1119.2423)"
     style="fill:#ff9800;fill-opacity:1"><g
       id="g5966"
       transform="scale(1146,1929)"
       style="fill:#ff9800;fill-opacity:1" /></g><path
     inkscape:connector-curvature="0"
     style="fill:#fafafa;fill-opacity:1;stroke-width:1.25"
     d="m 292.20585,376.34889 c -0.66819,-0.6517 -1.22095,-1.67087 -1.22837,-2.26479 -0.0146,-1.17273 -6.46522,-3.43991 -7.6425,-3.42523 -0.39676,0.005 -1.71028,-0.99122 -2.91895,-2.21372 -1.20864,-1.22251 -1.99307,-1.83414 -4.18758,-3.80363 -5.05331,-4.5351 -9.56658,-9.67381 -9.582,-10.90987 -0.006,-0.52433 -2.16093,-1.86255 -4.7875,-2.97383 -2.68439,-1.13572 -7.3559,-4.58472 -10.6681,-7.87628 -3.24087,-3.22068 -7.90659,-6.68953 -10.36828,-7.70855 -2.46169,-1.019 -4.74792,-2.53629 -5.08054,-3.37174 -0.33262,-0.83546 -1.38432,-1.50928 -2.33711,-1.49738 -0.95281,0.0125 -2.25896,-1.09688 -2.90257,-2.46396 -0.6436,-1.36706 -1.84133,-2.4772 -2.66157,-2.46696 -0.82027,0.01 -2.50626,-1.31881 -3.74666,-2.95345 -1.24041,-1.63465 -2.76457,-2.96573 -3.38704,-2.95795 -1.56162,0.0195 -7.55904,-5.31958 -7.57683,-6.74514 -0.007,-0.63839 -0.43528,-1.15546 -0.94958,-1.14904 -0.51429,0.006 -2.22395,-1.75843 -3.79926,-3.92192 -2.04031,-2.80213 -4.28192,-4.42821 -7.79305,-5.65315 -3.3241,-1.15968 -6.11615,-3.10913 -8.57541,-5.98745 -2.00559,-2.34735 -5.17573,-5.1912 -7.04471,-6.3197 -3.10595,-1.87532 -3.47615,-1.90829 -4.30482,-0.3832 -0.49865,0.91774 -1.51107,1.67615 -2.24984,1.68538 -0.73878,0.009 -1.59379,0.69495 -1.90006,1.52383 -0.30625,0.82889 -1.30385,1.51639 -2.21687,1.52779 -1.66525,0.0208 -7.24114,4.44911 -12.7776,10.14785 -1.62959,1.67734 -3.53466,3.05683 -4.23351,3.06555 -0.69884,0.009 -1.76913,1.14718 -2.3784,2.52989 -0.60929,1.38271 -1.46234,2.51845 -1.89569,2.52386 -0.43334,0.005 -1.98765,1.14991 -3.45403,2.54333 -1.46636,1.39341 -3.18744,2.53998 -3.8246,2.54793 -0.63715,0.007 -2.85816,1.61082 -4.93559,3.5619 -2.07742,1.95109 -4.11593,3.55167 -4.53003,3.55683 -0.41413,0.005 -1.26293,1.2855 -1.88626,2.84516 -1.07029,2.67793 -14.80547,14.36456 -16.9135,14.39088 -0.54016,0.006 -0.97185,0.83098 -0.95937,1.83166 0.0135,1.0768 -1.26565,2.41936 -3.13383,3.28937 -1.73612,0.80849 -3.62959,2.34383 -4.20774,3.41185 -1.58313,2.92453 -5.78172,6.5768 -7.6281,6.63556 -0.89895,0.0286 -2.35749,1.18612 -3.24119,2.57227 -0.8837,1.38614 -2.026325,2.52548 -2.539187,2.53189 -0.512863,0.006 -2.625213,1.20291 -4.694113,2.65891 -2.068925,1.45599 -4.769163,3.05369 -6.00055,3.55043 -1.2314,0.49675 -2.233287,1.35273 -2.226425,1.90217 0.02613,2.09446 -5.7702,3.91366 -13.901325,4.36295 l -8.449525,0.46689 -0.9536,-4.45942 c -0.642887,-3.00645 -0.601575,-5.03907 0.126825,-6.2385 0.594238,-0.97851 1.058938,-3.50021 1.032675,-5.60379 -0.02875,-2.30672 0.659925,-4.60358 1.7353,-5.78716 1.013413,-1.11536 1.834638,-3.68915 1.902575,-5.96277 0.332325,-11.12134 0.483325,-11.65909 4.1987,-14.95269 3.254625,-2.88519 3.5768,-3.63184 3.308388,-7.66721 -0.163563,-2.45891 0.032,-5.14991 0.434612,-5.98002 0.402588,-0.83008 1.255825,-2.97841 1.896062,-4.77403 0.640238,-1.79564 1.6119,-3.27038 2.159251,-3.27721 0.547337,-0.006 0.7453,-1.23642 0.439925,-2.7324 -0.318638,-1.56095 -1.8383,-4.2304 -0.872725,-6.26457 0.925387,-1.94952 1.488275,-4.36161 1.250875,-5.36021 -0.284601,-1.19714 0.265649,-2.0073 1.61535,-2.37832 2.458637,-0.67585 3.35615,-3.23823 3.167137,-9.04207 -0.1354,-4.15727 2.1976,-9.8305 5.459025,-13.27491 0.98485,-1.04012 1.133913,-3.02867 0.576212,-7.68642 -0.5749,-4.80153 1.614575,-7.04237 2.803475,-9.50198 0.8557,-1.77027 1.300463,-4.18481 0.988376,-5.36565 -0.358451,-1.3562 -1.644275,-1.54457 -0.061,-3.94146 1.378525,-2.08695 2.490476,-5.07081 2.470988,-6.6308 -0.0195,-1.55996 0.996037,-5.71548 2.2567,-9.23448 2.681037,-7.48383 2.034025,-7.92065 0.550162,-7.90212 -0.5512,0.006 0.725338,-1.53405 0.392325,-0.97985 -0.935487,1.55679 -3.484975,1.22499 -3.505975,-0.45628 -0.01,-0.82492 -0.741212,-1.49086 -1.62425,-1.47983 -3.04495,0.038 -10.499124,-6.31472 -10.533562,-9.07337 -0.02938,-2.35408 -3.6701,-5.81747 -5.393875,-5.13118 -0.77465,0.3084 -0.1245,-2.57893 -1.11195,-4.0457 -1.84495,-2.74049 -7.709238,-4.43185 -14.005212,-9.5922 -2.083988,-1.7081 -3.798113,-3.83034 -3.809175,-4.7161 -0.02538,-2.03463 -3.798263,-5.4478 -7.076638,-6.40199 -1.378,-0.40108 -2.964287,-1.2951 -3.525075,-1.98673 -0.560788,-0.69161 -1.915475,-1.40177 -3.0104,-1.57813 -1.094925,-0.17635 -2.9147,-1.74939 -4.04395,-3.49563 -1.320988,-2.04276 -2.87575,-3.17845 -4.35985,-3.1847 -2.115963,-0.009 -8.260675,-3.31905 -8.283638,-5.15852 -0.005,-0.4274 -0.909625,-0.76584 -2.00955,-0.75212 -1.099912,0.0137 -2.005462,-0.425 -2.012325,-0.97495 -0.0062,-0.54996 -2.575062,-9.00291 -3.262662,-9.00656 -0.6876,-0.004 -2.386075,-0.8725 -3.7744,-1.93079 -1.388313,-1.0583 -3.333775,-1.92406 -4.32325,-1.92393 -1.105213,5e-5 -2.473275,-1.45318 -3.547325,-3.76837 -0.96155,-2.07272 -3.228025,-5.30718 -5.0366,-7.18767 -3.992625,-4.15145 -4.0593875,-5.07139 -0.6963875,-9.59655 2.32185,-3.12423 3.0194,-3.477 5.885325,-2.9763 1.9090245,0.33351 3.5219495,0.1175 3.9069375,-0.5231 0.364712,-0.60693 3.167425,-1.0556 6.31585,-1.01108 3.1131,0.044 6.792412,-0.23652 8.176262,-0.62346 1.881413,-0.52604 3.173775,-0.109 5.123438,1.65309 2.131625,1.92662 3.59175,0.32065 8.0029,0.15961 2.967575,-0.10825 6.370862,-0.53765 7.5629,-0.95402 1.3055,-0.45604 3.69015,-2.14295 5.99705,-1.21275 2.517925,1.01531 5.11595,1.31042 7.58475,0.86156 2.06525,-0.3755 3.75975,-0.30305 3.765537,0.16099 0.0062,0.46403 1.434338,1.45282 3.17455,2.19726 2.432713,1.04071 3.585838,-2.91726 4.989088,-3.81815 2.384637,-1.53095 5.136275,0.47612 6.721425,2.01725 1.016137,0.98791 1.602425,0.78714 2.937675,-1.006 1.582812,-2.12561 2.026987,-2.19415 8.679975,-1.33924 3.856487,0.49556 8.48165,1.56966 10.278159,2.3869 3.31898,1.50979 7.70715,1.02715 8.8154,-0.81712 0.29649,-0.4934 1.61869,-0.64043 2.93821,-0.32672 1.35459,0.32208 3.76088,-0.1302 5.52689,-1.039 2.81726,-1.44965 1.42376,-5.46097 4.10963,-4.11425 4.15926,2.08545 9.09806,1.38394 10.30526,-1.46378 0.52744,-1.24418 1.30224,-2.26643 1.72177,-2.27167 1.12172,-0.014 2.89565,1.21219 1.74217,0.8363 -0.6435,-0.20967 -0.67045,-2.23295 -0.0779,-5.83281 0.49918,-3.03147 1.07184,-6.97794 1.2726,-8.76995 0.20076,-1.792012 1.28695,-5.082175 2.41378,-7.311487 1.12681,-2.229325 2.03188,-5.404313 2.01127,-7.055538 -0.0206,-1.6512 1.05971,-5.236162 2.40074,-7.96655 1.52052,-3.095887 4.41719,-6.6482 4.38235,-9.438212 -0.0308,-2.460638 0.3388,-4.72465 0.82115,-5.031138 1.35204,-0.859062 4.99969,-9.368875 4.97185,-11.598837 -0.0136,-1.092138 1.27594,-4.92195 2.86572,-8.510713 1.58979,-3.58875 3.16274,-7.669975 3.49545,-9.069375 0.33272,-1.399412 1.00613,-2.549387 1.49647,-2.555512 0.49033,-0.0062 0.87461,-1.365925 0.85393,-3.021788 -0.0206,-1.655875 0.80224,-4.9289 1.82868,-7.2734 1.02644,-2.3445 2.17252,-5.391637 2.54686,-6.771425 0.37433,-1.379775 1.50658,-3.713562 2.51613,-5.1861875 1.00952,-1.4726125 1.82875,-3.219275 1.82048,-3.881425 -0.01,-0.7720875 0.84993,-0.9983 2.39625,-0.6306625 2.01609,0.4793375 2.57624,0.080375 3.41785,-2.43445 1.09864,-3.282875 2.81257,-3.94065 3.80073,-1.45865 0.50456,1.26735 0.78729,1.3128125 1.44315,0.232 1.12394,-1.8521625 3.96369,-0.0595 5.84805,3.6922125 0.79656,1.58585 1.88615,3.7396 2.4213,4.7861255 0.53515,1.046512 0.99271,4.837412 1.01679,8.4242 0.0274,4.084087 0.58632,7.275775 1.49537,8.53975 0.79836,1.110062 1.46324,2.9531 1.4775,4.095625 0.0142,1.142537 0.43142,2.499812 0.92702,3.016162 0.49558,0.51635 1.66163,3.4871 2.59121,6.601663 0.92957,3.114562 2.82781,6.981112 4.2183,8.592362 2.86312,3.31765 3.27551,5.922063 1.07635,6.797613 -2.45233,0.976337 -1.70353,3.383162 1.04189,3.348875 2.21993,-0.02775 2.50637,0.388575 2.55848,3.71835 0.0778,4.962762 4.5672,19.85865 6.57568,21.817612 0.38161,0.372188 0.70722,1.748988 0.72359,3.059538 0.0164,1.310525 0.70701,3.653362 1.53478,5.206275 0.82778,1.552887 1.65567,4.782975 1.83977,7.177937 0.18408,2.39495 0.7915,4.89568 1.3498,5.55718 0.5583,0.6615 1.51792,1.79625 2.13248,2.52168 1.26065,1.48808 2.92165,7.93112 3.0148,11.69444 0.0716,2.89383 2.43535,3.29715 6.80913,1.16188 2.8635,-1.39798 7.19562,-1.25133 20.24664,0.68533 3.85743,0.57242 7.4211,1.39213 7.91925,1.82159 0.49815,0.42945 2.51731,-0.0509 4.48702,-1.06732 5.10136,-2.63257 11.1105,-3.48168 13.03626,-1.84205 0.90163,0.76767 4.92949,1.49286 9.52232,1.71443 4.65238,0.22444 8.1231,0.85447 8.35292,1.51627 0.21625,0.62272 1.04476,1.12411 1.84113,1.11417 0.79636,-0.01 1.71536,0.65364 2.04221,1.47461 0.86696,2.17757 4.38505,1.84837 4.35687,-0.40768 -0.0197,-1.58567 1.09413,-1.96634 7.71768,-2.63748 16.11862,-1.63325 17.13024,-1.64587 18.33644,-0.22887 0.6459,0.75876 2.66757,1.36093 4.49263,1.33815 1.82504,-0.0228 3.58412,0.37695 3.90904,0.88831 0.32494,0.51135 2.3127,0.88447 4.41725,0.82912 2.10456,-0.0552 4.73039,0.17394 5.8352,0.50947 1.1048,0.33553 3.30581,-0.087 4.89111,-0.9392 5.38167,-2.89255 10.38793,-1.15414 10.44763,3.62791 0.0176,1.40956 -1.19815,4.37761 0.63417,5.57812 l 2.60219,3.01529 -3.0267,3.0335 c -1.92681,1.93115 -5.02035,2.0451 -5.00922,3.81723 -4.12115,5.26522 -5.79274,7.52636 -11.67367,10.52111 -2.77351,1.41236 -3.39136,-0.68365 -4.20631,1.54312 -0.62535,1.7087 -1.66576,2.46445 -3.42299,2.48639 -2.02623,0.0252 -0.51838,0.52493 -0.49333,2.53133 0.0192,1.54482 -0.53637,2.50688 -1.45449,2.51835 -0.81714,0.01 -2.65433,1.83327 -4.08263,4.05128 -1.71412,2.66182 -3.34026,4.04202 -4.78353,4.06003 -1.20264,0.015 -1.15067,1.16442 -2.32895,2.55425 -1.21997,1.43896 -3.22148,2.54041 -4.64877,2.55822 -1.37852,0.0172 -2.5008,0.48127 -2.49393,1.03123 0.006,0.54995 -0.58404,1.00736 -1.3131,1.01646 -1.47965,0.0185 -5.0442,3.74251 -5.82864,6.08944 -0.57319,1.7149 -5.3231,4.30525 -11.93975,6.51131 -0.95859,0.3196 -1.73135,1.50479 -1.71725,2.63375 0.0164,1.30955 -0.96495,2.45799 -2.71061,3.17229 -1.50494,0.6158 -3.40614,1.53282 -4.22489,2.03784 -0.81876,0.50501 -2.16023,1.19691 -2.98104,1.53757 -6.36599,2.64205 -7.79131,3.69803 -8.38995,6.21591 -0.88804,3.7351 -11.9653,14.45152 -14.95676,14.48887 -1.90376,0.0238 -4.3409,2.50413 -4.3173,4.39387 0.004,0.2591 1.58805,2.31749 3.52184,4.5742 1.93377,2.25671 1.82737,5.65589 2.20798,7.55371 0.38063,1.89783 -0.90592,5.6922 -0.41455,5.98747 0.49138,0.29527 0.90924,1.80511 0.92859,3.35518 0.0194,1.55008 0.71274,3.36649 1.54085,4.03649 0.93689,0.75799 1.29599,2.10006 0.9506,3.55274 -0.4002,1.68326 0.32529,3.40246 2.6005,6.16236 2.56343,3.10953 3.18979,4.80569 3.33808,9.03918 0.10037,2.86626 0.57648,5.44813 1.05801,5.73748 0.48151,0.28935 0.8937,1.98443 0.91595,3.76683 0.046,3.68695 1.62617,5.72931 3.77179,4.87507 1.14566,-0.45611 1.40317,0.18789 1.19675,2.99288 -0.15275,2.07576 0.36222,4.32951 1.22843,5.37615 2.6733,3.23006 2.0465,6.19466 2.0791,8.80641 0.0176,1.40966 0.747,3.90434 1.62088,5.54375 0.87386,1.63938 1.32089,3.863 0.99339,4.94138 -0.35422,1.16636 0.0479,2.58808 0.99237,3.50933 0.8733,0.85177 1.60076,2.58633 1.6166,3.8546 0.0159,1.26828 0.64968,2.80828 1.40854,3.42224 0.75884,0.61395 1.99729,3.91635 2.75212,7.33865 0.75484,3.42231 1.98633,7.10243 2.73663,8.17801 0.75032,1.07559 1.37961,3.18957 1.39844,4.69773 0.0217,1.74547 -3.212,3.13346 -1.89183,3.81894 1.17928,0.61232 3.91748,1.80466 3.71121,2.76403 -0.46816,2.17782 -0.90145,9.94935 3.12834,12.30145 l 2.54119,2.65059 -2.26794,4.84659 c -2.31786,4.95327 -5.33111,0.2924 -7.56185,0.37965 -0.68722,0.0269 2.75854,0.69167 2.76835,1.47732 0.0445,3.55999 -5.24066,5.92313 -7.75731,3.46854 z m -79.19755,-73.3995 c -0.026,-2.07827 -1.71203,-1.66075 -2.26335,0.56047 -0.33629,1.35485 -0.0675,1.76731 0.90069,1.38188 0.75903,-0.3022 1.37222,-1.17625 1.36266,-1.94235 z m 42.66532,-56.24914 c -0.3757,-0.64484 -1.35381,-1.93488 -2.17356,-2.86674 -0.81972,-0.93185 2.76381,-4.3824 3.07456,-5.22344 0.50129,-1.35672 -2.94815,-4.29656 -3.89828,-3.3224 -0.18668,0.1914 -1.8712,2.41608 -1.2991,4.9437 0.71952,3.17852 -0.27853,6.89712 1.24921,7.57312 2.55406,1.13012 4.03606,0.59307 3.04717,-1.10424 z M 187.61895,231.8678 c 0.33302,-0.5542 -0.32098,-0.99608 -1.45335,-0.98194 -1.13238,0.0141 -2.05324,0.47568 -2.04638,1.02563 0.006,0.54996 0.66088,0.99182 1.45335,0.98193 0.79248,-0.01 1.71335,-0.47142 2.04638,-1.02562 z m -53.53328,-2.33188 c -0.006,-0.54995 -0.46245,-0.9943 -1.01241,-0.98742 -0.54995,0.006 -0.9943,0.46245 -0.98744,1.01239 0.006,0.54996 0.46245,0.99431 1.01241,0.98743 0.54995,-0.006 0.9943,-0.46245 0.98744,-1.0124 z m 118.46713,-43.4233 c -0.0134,-1.06746 -0.47768,-2.21331 -1.03188,-2.54633 -0.5542,-0.33303 -1.01854,-1.47889 -1.03186,-2.54634 -0.0304,-2.43115 -0.58431,-2.42733 -3.14814,0.0216 -2.12151,2.02655 -1.73536,4.09858 0.75803,4.06745 0.79247,-0.01 1.44928,0.65695 1.45958,1.48189 0.01,0.82494 0.69367,1.49146 1.5186,1.48116 0.82494,-0.01 1.48899,-0.8921 1.47565,-1.95955 z M 75.434197,185.73005 c -0.01,-0.79248 -0.692937,-1.43244 -1.517875,-1.42214 -1.506112,0.0188 -2.029175,6.13649 -0.819175,7.31664 0.944813,0.92151 2.357913,-4.22399 2.33705,-5.8945 z m 43.621513,-38.60261 c -0.004,-0.32432 -1.02869,-1.39579 -2.27696,-2.38103 -2.48212,-1.9591 -4.51928,-0.56404 -2.55168,1.74741 1.07579,1.26383 4.84268,1.7581 4.82864,0.63362 z m 59.38934,-4.04725 c 0.29813,-0.49613 -0.17051,-1.16533 -1.04143,-1.48712 -2.50827,-0.92675 -3.42115,-0.67503 -3.40101,0.93777 0.0201,1.60982 3.54336,2.04552 4.44244,0.54935 z m 6.43015,-0.81012 c 1.71432,-0.36517 3.11133,-1.11392 3.10447,-1.66388 -0.0149,-1.19415 -5.97982,-0.0973 -7.40234,1.36127 -1.15056,1.17965 -0.15005,1.25009 4.29787,0.30261 z m 59.76903,-3.47082 c 1.2509,-1.28251 -1.1547,-2.63639 -4.6078,-2.59328 -4.30333,0.0537 -5.20574,0.62648 -4.35477,2.76392 0.44839,1.1262 1.59066,1.36091 4.52565,0.92988 2.15924,-0.3171 4.15585,-0.81233 4.43692,-1.10052 z m -12.6961,-0.99218 c -0.01,-0.82493 -0.44212,-1.4946 -0.95962,-1.48813 -1.26087,0.0157 -2.14444,1.58847 -1.3356,2.37737 1.14018,1.11204 2.31454,0.65704 2.29522,-0.88924 z M 123.10426,122.98235 c 0.60663,-0.62198 -3.52501,-4.32359 -4.80797,-4.30756 -0.78433,0.01 2.78332,4.89026 3.59948,4.92402 0.32103,0.0132 0.86485,-0.26415 1.20849,-0.61646 z m -111.819938,9.07857 c 0.333013,-0.5542 0.128975,-1.00168 -0.453437,-0.99441 -0.582425,0.007 -1.0533125,0.46318 -1.04645,1.01314 0.00625,0.54996 0.2109,0.99745 0.453425,0.99441 0.242525,-0.002 0.713425,-0.45894 1.046462,-1.01314 z M 200.69463,117.69567 c -0.0137,-1.09991 -0.47493,-1.99422 -1.02488,-1.98736 -0.54997,0.006 -0.98869,0.91241 -0.97497,2.01233 0.0137,1.09991 0.47494,1.99422 1.0249,1.98736 0.54995,-0.006 0.98868,-0.91241 0.97495,-2.01233 z m 14.91144,-7.18671 c -0.0137,-1.09991 -0.47492,-1.99422 -1.02489,-1.98736 -0.54995,0.006 -0.98868,0.91241 -0.97495,2.01232 0.0137,1.09992 0.47493,1.99423 1.02489,1.98737 0.54997,-0.006 0.98869,-0.91242 0.97495,-2.01233 z m -10.59095,-3.79899 c 0.31003,-0.5159 0.10288,-1.21493 -0.46041,-1.55338 -0.56324,-0.33846 -1.01531,0.086 -1.00461,0.94351 0.0219,1.7564 0.62517,2.00751 1.46502,0.60987 z"
     id="path6051" /></svg>